<?xml version="1.0" encoding="UTF-8"?>
<!--Generator: Apple Native CoreSVG 175-->
<!DOCTYPE svg
PUBLIC "-//W3C//DTD SVG 1.1//EN"
       "http://www.w3.org/Graphics/SVG/1.1/DTD/svg11.dtd">
<svg version="1.1" xmlns="http://www.w3.org/2000/svg" xmlns:xlink="http://www.w3.org/1999/xlink" width="3300" height="2200">
 <!--glyph: "uni1000D2.medium", point size: 100.0, font version: "17.1d1e1", template writer version: "65.1"-->
 <g id="Notes">
  <rect height="2200" id="artboard" style="fill:white;opacity:1" width="3300" x="0" y="0"/>
  <line style="fill:none;stroke:black;opacity:1;stroke-width:0.5;" x1="263" x2="3036" y1="292" y2="292"/>
  <text style="stroke:none;fill:black;font-family:sans-serif;font-size:13;font-weight:bold;" transform="matrix(1 0 0 1 263 322)">Weight/Scale Variations</text>
  <text style="stroke:none;fill:black;font-family:sans-serif;font-size:13;text-anchor:middle;" transform="matrix(1 0 0 1 559.711 322)">Ultralight</text>
  <text style="stroke:none;fill:black;font-family:sans-serif;font-size:13;text-anchor:middle;" transform="matrix(1 0 0 1 856.422 322)">Thin</text>
  <text style="stroke:none;fill:black;font-family:sans-serif;font-size:13;text-anchor:middle;" transform="matrix(1 0 0 1 1153.13 322)">Light</text>
  <text style="stroke:none;fill:black;font-family:sans-serif;font-size:13;text-anchor:middle;" transform="matrix(1 0 0 1 1449.84 322)">Regular</text>
  <text style="stroke:none;fill:black;font-family:sans-serif;font-size:13;text-anchor:middle;" transform="matrix(1 0 0 1 1746.56 322)">Medium</text>
  <text style="stroke:none;fill:black;font-family:sans-serif;font-size:13;text-anchor:middle;" transform="matrix(1 0 0 1 2043.27 322)">Semibold</text>
  <text style="stroke:none;fill:black;font-family:sans-serif;font-size:13;text-anchor:middle;" transform="matrix(1 0 0 1 2339.98 322)">Bold</text>
  <text style="stroke:none;fill:black;font-family:sans-serif;font-size:13;text-anchor:middle;" transform="matrix(1 0 0 1 2636.69 322)">Heavy</text>
  <text style="stroke:none;fill:black;font-family:sans-serif;font-size:13;text-anchor:middle;" transform="matrix(1 0 0 1 2933.4 322)">Black</text>
  <line style="fill:none;stroke:black;opacity:1;stroke-width:0.5;" x1="263" x2="3036" y1="1903" y2="1903"/>
  <g transform="matrix(1 0 0 1 263 1933)">
   <path d="M9.24805 0.830078Q10.8691 0.830078 12.2949 0.214844Q13.7207-0.400391 14.8096-1.49414Q15.8984-2.58789 16.5186-4.01367Q17.1387-5.43945 17.1387-7.05078Q17.1387-8.66211 16.5186-10.0879Q15.8984-11.5137 14.8047-12.6074Q13.7109-13.7012 12.2852-14.3164Q10.8594-14.9316 9.23828-14.9316Q7.62695-14.9316 6.20117-14.3164Q4.77539-13.7012 3.69141-12.6074Q2.60742-11.5137 1.9873-10.0879Q1.36719-8.66211 1.36719-7.05078Q1.36719-5.43945 1.9873-4.01367Q2.60742-2.58789 3.69629-1.49414Q4.78516-0.400391 6.21094 0.214844Q7.63672 0.830078 9.24805 0.830078ZM9.24805-0.654297Q7.91992-0.654297 6.7627-1.14746Q5.60547-1.64062 4.73145-2.51953Q3.85742-3.39844 3.36426-4.56055Q2.87109-5.72266 2.87109-7.05078Q2.87109-8.37891 3.35938-9.54102Q3.84766-10.7031 4.72168-11.582Q5.5957-12.4609 6.75293-12.9541Q7.91016-13.4473 9.23828-13.4473Q10.5762-13.4473 11.7334-12.9541Q12.8906-12.4609 13.7695-11.582Q14.6484-10.7031 15.1465-9.54102Q15.6445-8.37891 15.6445-7.05078Q15.6445-5.72266 15.1514-4.56055Q14.6582-3.39844 13.7842-2.51953Q12.9102-1.64062 11.748-1.14746Q10.5859-0.654297 9.24805-0.654297ZM5.6543-7.05078Q5.6543-6.72852 5.85938-6.52832Q6.06445-6.32812 6.40625-6.32812L8.51562-6.32812L8.51562-4.20898Q8.51562-3.88672 8.71094-3.67676Q8.90625-3.4668 9.23828-3.4668Q9.56055-3.4668 9.77051-3.67676Q9.98047-3.88672 9.98047-4.20898L9.98047-6.32812L12.0898-6.32812Q12.4219-6.32812 12.627-6.52832Q12.832-6.72852 12.832-7.05078Q12.832-7.38281 12.627-7.58789Q12.4219-7.79297 12.0898-7.79297L9.98047-7.79297L9.98047-9.90234Q9.98047-10.2344 9.77051-10.4443Q9.56055-10.6543 9.23828-10.6543Q8.90625-10.6543 8.71094-10.4443Q8.51562-10.2344 8.51562-9.90234L8.51562-7.79297L6.40625-7.79297Q6.06445-7.79297 5.85938-7.58789Q5.6543-7.38281 5.6543-7.05078Z"/>
  </g>
  <g transform="matrix(1 0 0 1 281.867 1933)">
   <path d="M11.709 2.91016Q13.75 2.91016 15.5518 2.12891Q17.3535 1.34766 18.7305-0.0292969Q20.1074-1.40625 20.8887-3.20801Q21.6699-5.00977 21.6699-7.05078Q21.6699-9.0918 20.8887-10.8936Q20.1074-12.6953 18.7305-14.0723Q17.3535-15.4492 15.5469-16.2305Q13.7402-17.0117 11.6992-17.0117Q9.6582-17.0117 7.85645-16.2305Q6.05469-15.4492 4.68262-14.0723Q3.31055-12.6953 2.5293-10.8936Q1.74805-9.0918 1.74805-7.05078Q1.74805-5.00977 2.5293-3.20801Q3.31055-1.40625 4.6875-0.0292969Q6.06445 1.34766 7.86621 2.12891Q9.66797 2.91016 11.709 2.91016ZM11.709 1.25Q9.98047 1.25 8.47656 0.605469Q6.97266-0.0390625 5.83496-1.17676Q4.69727-2.31445 4.05762-3.81836Q3.41797-5.32227 3.41797-7.05078Q3.41797-8.7793 4.05762-10.2832Q4.69727-11.7871 5.83008-12.9297Q6.96289-14.0723 8.4668-14.7119Q9.9707-15.3516 11.6992-15.3516Q13.4277-15.3516 14.9316-14.7119Q16.4355-14.0723 17.5781-12.9297Q18.7207-11.7871 19.3652-10.2832Q20.0098-8.7793 20.0098-7.05078Q20.0098-5.32227 19.3701-3.81836Q18.7305-2.31445 17.5928-1.17676Q16.4551-0.0390625 14.9463 0.605469Q13.4375 1.25 11.709 1.25ZM7.17773-7.05078Q7.17773-6.69922 7.41211-6.47461Q7.64648-6.25 8.01758-6.25L10.8887-6.25L10.8887-3.36914Q10.8887-2.99805 11.1133-2.76855Q11.3379-2.53906 11.6895-2.53906Q12.0605-2.53906 12.29-2.76855Q12.5195-2.99805 12.5195-3.36914L12.5195-6.25L15.4004-6.25Q15.7715-6.25 16.001-6.47461Q16.2305-6.69922 16.2305-7.05078Q16.2305-7.42188 16.001-7.65137Q15.7715-7.88086 15.4004-7.88086L12.5195-7.88086L12.5195-10.752Q12.5195-11.1328 12.29-11.3623Q12.0605-11.5918 11.6895-11.5918Q11.3379-11.5918 11.1133-11.3574Q10.8887-11.123 10.8887-10.752L10.8887-7.88086L8.01758-7.88086Q7.63672-7.88086 7.40723-7.65137Q7.17773-7.42188 7.17773-7.05078Z"/>
  </g>
  <g transform="matrix(1 0 0 1 305.646 1933)">
   <path d="M14.9707 5.66406Q17.0605 5.66406 18.96 5.01465Q20.8594 4.36523 22.4512 3.19336Q24.043 2.02148 25.2197 0.429688Q26.3965-1.16211 27.0459-3.06641Q27.6953-4.9707 27.6953-7.05078Q27.6953-9.14062 27.0459-11.04Q26.3965-12.9395 25.2197-14.5312Q24.043-16.123 22.4512-17.2998Q20.8594-18.4766 18.9551-19.126Q17.0508-19.7754 14.9609-19.7754Q12.8711-19.7754 10.9717-19.126Q9.07227-18.4766 7.48535-17.2998Q5.89844-16.123 4.72168-14.5312Q3.54492-12.9395 2.90039-11.04Q2.25586-9.14062 2.25586-7.05078Q2.25586-4.9707 2.90527-3.06641Q3.55469-1.16211 4.72656 0.429688Q5.89844 2.02148 7.49023 3.19336Q9.08203 4.36523 10.9814 5.01465Q12.8809 5.66406 14.9707 5.66406ZM14.9707 3.84766Q13.1641 3.84766 11.5283 3.2959Q9.89258 2.74414 8.53516 1.74805Q7.17773 0.751953 6.17676-0.610352Q5.17578-1.97266 4.62891-3.6084Q4.08203-5.24414 4.08203-7.05078Q4.08203-8.86719 4.62891-10.5029Q5.17578-12.1387 6.17188-13.501Q7.16797-14.8633 8.52539-15.8594Q9.88281-16.8555 11.5186-17.4023Q13.1543-17.9492 14.9609-17.9492Q16.7773-17.9492 18.4131-17.4023Q20.0488-16.8555 21.4111-15.8594Q22.7734-14.8633 23.7695-13.501Q24.7656-12.1387 25.3174-10.5029Q25.8691-8.86719 25.8691-7.05078Q25.8789-5.24414 25.332-3.6084Q24.7852-1.97266 23.7842-0.610352Q22.7832 0.751953 21.4209 1.74805Q20.0586 2.74414 18.4229 3.2959Q16.7871 3.84766 14.9707 3.84766ZM9.19922-7.05078Q9.19922-6.66992 9.45801-6.4209Q9.7168-6.17188 10.1172-6.17188L14.0625-6.17188L14.0625-2.2168Q14.0625-1.81641 14.3115-1.55762Q14.5605-1.29883 14.9512-1.29883Q15.3516-1.29883 15.6104-1.55273Q15.8691-1.80664 15.8691-2.2168L15.8691-6.17188L19.8242-6.17188Q20.2246-6.17188 20.4785-6.4209Q20.7324-6.66992 20.7324-7.05078Q20.7324-7.46094 20.4785-7.71484Q20.2246-7.96875 19.8242-7.96875L15.8691-7.96875L15.8691-11.9141Q15.8691-12.3242 15.6104-12.583Q15.3516-12.8418 14.9512-12.8418Q14.5605-12.8418 14.3115-12.583Q14.0625-12.3242 14.0625-11.9141L14.0625-7.96875L10.1172-7.96875Q9.70703-7.96875 9.45312-7.71484Q9.19922-7.46094 9.19922-7.05078Z"/>
  </g>
  <text style="stroke:none;fill:black;font-family:sans-serif;font-size:13;font-weight:bold;" transform="matrix(1 0 0 1 263 1953)">Design Variations</text>
  <text style="stroke:none;fill:black;font-family:sans-serif;font-size:13;" transform="matrix(1 0 0 1 263 1971)">Symbols are supported in up to nine weights and three scales.</text>
  <text style="stroke:none;fill:black;font-family:sans-serif;font-size:13;" transform="matrix(1 0 0 1 263 1989)">For optimal layout with text and other symbols, vertically align</text>
  <text style="stroke:none;fill:black;font-family:sans-serif;font-size:13;" transform="matrix(1 0 0 1 263 2007)">symbols with the adjacent text.</text>
  <line style="fill:none;stroke:#00AEEF;stroke-width:0.5;opacity:1.0;" x1="776" x2="776" y1="1919" y2="1933"/>
  <g transform="matrix(1 0 0 1 776 1933)">
   <path d="M3.31055 0.15625Q3.70117 0.15625 3.91602-0.00976562Q4.13086-0.175781 4.26758-0.585938L5.52734-4.0332L11.2891-4.0332L12.5488-0.585938Q12.6855-0.175781 12.9004-0.00976562Q13.1152 0.15625 13.4961 0.15625Q13.8867 0.15625 14.1162-0.0585938Q14.3457-0.273438 14.3457-0.644531Q14.3457-0.869141 14.2383-1.17188L9.6582-13.3691Q9.48242-13.8184 9.17969-14.043Q8.87695-14.2676 8.4082-14.2676Q7.5-14.2676 7.17773-13.3789L2.59766-1.16211Q2.49023-0.859375 2.49023-0.634766Q2.49023-0.263672 2.70996-0.0537109Q2.92969 0.15625 3.31055 0.15625ZM6.00586-5.51758L8.37891-12.0898L8.42773-12.0898L10.8008-5.51758Z"/>
  </g>
  <line style="fill:none;stroke:#00AEEF;stroke-width:0.5;opacity:1.0;" x1="793.197" x2="793.197" y1="1919" y2="1933"/>
  <text style="stroke:none;fill:black;font-family:sans-serif;font-size:13;font-weight:bold;" transform="matrix(1 0 0 1 776 1953)">Margins</text>
  <text style="stroke:none;fill:black;font-family:sans-serif;font-size:13;" transform="matrix(1 0 0 1 776 1971)">Leading and trailing margins on the left and right side of each symbol</text>
  <text style="stroke:none;fill:black;font-family:sans-serif;font-size:13;" transform="matrix(1 0 0 1 776 1989)">can be adjusted by modifying the x-location of the margin guidelines.</text>
  <text style="stroke:none;fill:black;font-family:sans-serif;font-size:13;" transform="matrix(1 0 0 1 776 2007)">Modifications are automatically applied proportionally to all</text>
  <text style="stroke:none;fill:black;font-family:sans-serif;font-size:13;" transform="matrix(1 0 0 1 776 2025)">scales and weights.</text>
  <g transform="matrix(1 0 0 1 1289 1933)">
   <path d="M2.8418 1.86523L4.54102 3.57422Q5.18555 4.22852 5.90332 4.17969Q6.62109 4.13086 7.31445 3.35938L18.0078-8.42773L17.041-9.4043L6.42578 2.27539Q6.16211 2.57812 5.89355 2.61719Q5.625 2.65625 5.27344 2.30469L4.10156 1.14258Q3.75 0.791016 3.79395 0.522461Q3.83789 0.253906 4.14062-0.0195312L15.6152-10.8203L14.6387-11.7871L3.04688-0.898438Q2.30469-0.214844 2.25098 0.498047Q2.19727 1.21094 2.8418 1.86523ZM9.25781-16.3281Q8.94531-16.0254 8.90625-15.6348Q8.86719-15.2441 9.04297-14.9512Q9.21875-14.6777 9.55566-14.541Q9.89258-14.4043 10.3809-14.5215Q11.4746-14.7754 12.5977-14.7314Q13.7207-14.6875 14.7949-13.9844L14.209-12.5293Q13.9551-11.9043 14.0674-11.4404Q14.1797-10.9766 14.5801-10.5664L16.875-8.25195Q17.2363-7.88086 17.5781-7.82227Q17.9199-7.76367 18.3398-7.8418L19.4043-8.03711L20.0684-7.36328L20.0293-6.80664Q20-6.43555 20.1221-6.12305Q20.2441-5.81055 20.6055-5.44922L21.3672-4.70703Q21.7285-4.3457 22.1533-4.33105Q22.5781-4.31641 22.9297-4.66797L25.8398-7.58789Q26.1914-7.93945 26.1816-8.35449Q26.1719-8.76953 25.8105-9.13086L25.0391-9.89258Q24.6875-10.2539 24.3799-10.3857Q24.0723-10.5176 23.7109-10.4883L23.1348-10.4395L22.4902-11.0742L22.7344-12.1973Q22.832-12.6172 22.6953-12.9834Q22.5586-13.3496 22.1191-13.7891L19.9219-15.9766Q18.6719-17.2168 17.2607-17.8369Q15.8496-18.457 14.4189-18.4814Q12.9883-18.5059 11.665-17.959Q10.3418-17.4121 9.25781-16.3281ZM10.752-15.957Q11.6602-16.6211 12.7002-16.9043Q13.7402-17.1875 14.8047-17.085Q15.8691-16.9824 16.8701-16.5137Q17.8711-16.0449 18.7012-15.2051L21.1328-12.793Q21.3086-12.6172 21.3525-12.4512Q21.3965-12.2852 21.3379-12.0312L21.0156-10.5469L22.5195-9.0625L23.5059-9.12109Q23.6914-9.13086 23.7891-9.09668Q23.8867-9.0625 24.0332-8.91602L24.6094-8.33984L22.168-5.89844L21.5918-6.47461Q21.4453-6.62109 21.4062-6.71875Q21.3672-6.81641 21.377-7.01172L21.4453-7.98828L19.9512-9.47266L18.4277-9.21875Q18.1836-9.16992 18.042-9.2041Q17.9004-9.23828 17.7148-9.41406L15.7129-11.416Q15.5176-11.5918 15.4932-11.7529Q15.4688-11.9141 15.5859-12.1875L16.4648-14.2773Q15.293-15.3711 13.8281-15.791Q12.3633-16.2109 10.8398-15.7617Q10.7227-15.7324 10.6885-15.8057Q10.6543-15.8789 10.752-15.957Z"/>
  </g>
  <text style="stroke:none;fill:black;font-family:sans-serif;font-size:13;font-weight:bold;" transform="matrix(1 0 0 1 1289 1953)">Exporting</text>
  <text style="stroke:none;fill:black;font-family:sans-serif;font-size:13;" transform="matrix(1 0 0 1 1289 1971)">Symbols should be outlined when exporting to ensure the</text>
  <text style="stroke:none;fill:black;font-family:sans-serif;font-size:13;" transform="matrix(1 0 0 1 1289 1989)">design is preserved when submitting to Xcode.</text>
  <text id="template-version" style="stroke:none;fill:black;font-family:sans-serif;font-size:13;text-anchor:end;" transform="matrix(1 0 0 1 3036 1933)">Template v.3.0</text>
  <text style="stroke:none;fill:black;font-family:sans-serif;font-size:13;text-anchor:end;" transform="matrix(1 0 0 1 3036 1951)">Requires Xcode 13 or greater</text>
  <text id="descriptive-name" style="stroke:none;fill:black;font-family:sans-serif;font-size:13;text-anchor:end;" transform="matrix(1 0 0 1 3036 1969)">Generated from 5.square</text>
  <text style="stroke:none;fill:black;font-family:sans-serif;font-size:13;text-anchor:end;" transform="matrix(1 0 0 1 3036 1987)">Typeset at 100 points</text>
  <text style="stroke:none;fill:black;font-family:sans-serif;font-size:13;" transform="matrix(1 0 0 1 263 726)">Small</text>
  <text style="stroke:none;fill:black;font-family:sans-serif;font-size:13;" transform="matrix(1 0 0 1 263 1156)">Medium</text>
  <text style="stroke:none;fill:black;font-family:sans-serif;font-size:13;" transform="matrix(1 0 0 1 263 1586)">Large</text>
 </g>
 <g id="Guides">
  <g id="H-reference" style="fill:#27AAE1;stroke:none;" transform="matrix(1 0 0 1 339 696)">
   <path d="M0.993347 0L3.6377 0L29.3282-67.1326L30.0301-67.1326L30.0301-70.459L28.1227-70.459ZM11.6882-24.4797L46.9818-24.4797L46.2311-26.7288L12.4382-26.7288ZM55.1193 0L57.7637 0L30.6381-70.459L29.4327-70.459L29.4327-67.1326Z"/>
  </g>
  <line id="Baseline-S" style="fill:none;stroke:#27AAE1;opacity:1;stroke-width:0.5;" x1="263" x2="3036" y1="696" y2="696"/>
  <line id="Capline-S" style="fill:none;stroke:#27AAE1;opacity:1;stroke-width:0.5;" x1="263" x2="3036" y1="625.541" y2="625.541"/>
  <g id="H-reference" style="fill:#27AAE1;stroke:none;" transform="matrix(1 0 0 1 339 1126)">
   <path d="M0.993347 0L3.6377 0L29.3282-67.1326L30.0301-67.1326L30.0301-70.459L28.1227-70.459ZM11.6882-24.4797L46.9818-24.4797L46.2311-26.7288L12.4382-26.7288ZM55.1193 0L57.7637 0L30.6381-70.459L29.4327-70.459L29.4327-67.1326Z"/>
  </g>
  <line id="Baseline-M" style="fill:none;stroke:#27AAE1;opacity:1;stroke-width:0.5;" x1="263" x2="3036" y1="1126" y2="1126"/>
  <line id="Capline-M" style="fill:none;stroke:#27AAE1;opacity:1;stroke-width:0.5;" x1="263" x2="3036" y1="1055.54" y2="1055.54"/>
  <g id="H-reference" style="fill:#27AAE1;stroke:none;" transform="matrix(1 0 0 1 339 1556)">
   <path d="M0.993347 0L3.6377 0L29.3282-67.1326L30.0301-67.1326L30.0301-70.459L28.1227-70.459ZM11.6882-24.4797L46.9818-24.4797L46.2311-26.7288L12.4382-26.7288ZM55.1193 0L57.7637 0L30.6381-70.459L29.4327-70.459L29.4327-67.1326Z"/>
  </g>
  <line id="Baseline-L" style="fill:none;stroke:#27AAE1;opacity:1;stroke-width:0.5;" x1="263" x2="3036" y1="1556" y2="1556"/>
  <line id="Capline-L" style="fill:none;stroke:#27AAE1;opacity:1;stroke-width:0.5;" x1="263" x2="3036" y1="1485.54" y2="1485.54"/>
  <line id="left-margin-Regular-M" style="fill:none;stroke:#00AEEF;stroke-width:0.5;opacity:1.0;" x1="1392.45" x2="1392.45" y1="1030.79" y2="1150.12"/>
  <line id="right-margin-Regular-M" style="fill:none;stroke:#00AEEF;stroke-width:0.5;opacity:1.0;" x1="1507.24" x2="1507.24" y1="1030.79" y2="1150.12"/>
 </g>
 <g id="Symbols">
  <g id="Black-L" transform="matrix(1 0 0 1 2855.72 1556)">
   <path d="M39.8559 26.4225L115.512 26.4225Q126.881 26.4225 133.083 20.23Q139.284 14.0375 139.284 2.71277L139.284-73.0901Q139.284-84.4148 133.083-90.6066Q126.881-96.7985 115.512-96.7985L39.8559-96.7985Q28.5079-96.7985 22.2959-90.6073Q16.084-84.4161 16.084-73.0901L16.084 2.71277Q16.084 14.0401 22.2959 20.2313Q28.5079 26.4225 39.8559 26.4225ZM42.5866 6.42133Q39.3787 6.42133 37.7216 4.87256Q36.0645 3.3238 36.0645-0.121591L36.0645-70.2544Q36.0645-73.7375 37.7216-75.2674Q39.3787-76.7973 42.5866-76.7973L112.782-76.7973Q116.045-76.7973 117.675-75.2674Q119.304-73.7375 119.304-70.2544L119.304-0.121591Q119.304 3.3238 117.675 4.87256Q116.045 6.42133 112.782 6.42133ZM77.4287-6.20366Q88.5264-6.20366 95.0433-11.815Q101.56-17.4263 101.56-27.0316Q101.56-35.2525 96.4869-40.1761Q91.4136-45.0996 83.0137-45.0996Q78.9186-45.0996 75.4944-43.6074Q72.0701-42.1151 70.6461-39.6376L69.756-39.6376L70.5481-49.8722L91.6272-49.8722Q95.0942-49.8722 97.067-51.5932Q99.0399-53.3143 99.0399-56.3335Q99.0399-59.4137 97.1255-61.0763Q95.211-62.7389 91.6272-62.7389L65.6153-62.7389Q61.6092-62.7389 59.1112-60.3446Q56.6132-57.9502 56.3732-54.0842L55.3412-38.5032Q55.1025-34.0192 57.493-31.6528Q59.8836-29.2864 64.7569-29.2864Q67.2141-29.2864 68.8312-29.7852Q70.4482-30.2839 71.8709-31.1176Q73.3374-31.9185 74.6301-32.4105Q75.9228-32.9025 77.5748-32.9025Q80.4179-32.9025 82.1136-31.155Q83.8093-29.4074 83.8093-26.5216Q83.8093-23.6942 81.8692-21.8118Q79.9291-19.9295 76.9654-19.9295Q74.3903-19.9295 72.6453-20.8927Q70.9003-21.8558 69.4931-23.2724Q68.3644-24.2826 66.8095-24.9927Q65.2546-25.7029 62.5714-25.7029Q59.0214-25.7029 57.0071-23.904Q54.9928-22.1052 54.9928-19.1003Q54.9928-17.2776 55.7296-15.5628Q57.552-11.2814 63.1804-8.74252Q68.8088-6.20366 77.4287-6.20366Z"/>
  </g>
  <g id="Heavy-L" transform="matrix(1 0 0 1 2559.92 1556)">
   <path d="M38.8328 25.5158L114.704 25.5158Q125.682 25.5158 131.567 19.6396Q137.452 13.7633 137.452 2.85629L137.452-73.2288Q137.452-84.1358 131.567-90.0091Q125.682-95.8823 114.704-95.8823L38.8328-95.8823Q27.8839-95.8823 21.984-90.0121Q16.084-84.1419 16.084-73.2288L16.084 2.85629Q16.084 13.7754 21.984 19.6456Q27.8839 25.5158 38.8328 25.5158ZM40.957 7.98818Q37.3499 7.98818 35.4659 6.20086Q33.5818 4.41354 33.5818 0.583243L33.5818-70.9497Q33.5818-74.7949 35.4659-76.5748Q37.3499-78.3547 40.957-78.3547L112.579-78.3547Q116.219-78.3547 118.087-76.5748Q119.954-74.7949 119.954-70.9497L119.954 0.583243Q119.954 4.41354 118.087 6.20086Q116.219 7.98818 112.579 7.98818ZM76.4673-6.00918Q87.1995-6.00918 93.5723-11.5875Q99.945-17.1658 99.945-26.6452Q99.945-34.8923 94.7923-39.8888Q89.6395-44.8853 81.2139-44.8853Q77.1692-44.8853 73.7079-43.3764Q70.2466-41.8676 68.7475-39.4067L67.9587-39.4067L68.9218-51.4196L90.9918-51.4196Q94.0064-51.4196 95.7459-52.9762Q97.4854-54.5328 97.4854-57.2142Q97.4854-59.9522 95.7906-61.4642Q94.0957-62.9761 90.9918-62.9761L64.9406-62.9761Q61.2053-62.9761 58.8779-60.7975Q56.5504-58.6189 56.3152-55.0413L55.1168-38.0656Q54.8876-34.0449 57.0349-31.8693Q59.1821-29.6937 63.4914-29.6937Q65.7623-29.6937 67.2831-30.1849Q68.804-30.676 70.2834-31.6319Q71.9679-32.7307 73.4514-33.3184Q74.9349-33.9062 76.8016-33.9062Q80.1946-33.9062 82.2327-31.7936Q84.2708-29.6811 84.2708-26.2226Q84.2708-22.8088 81.9498-20.5294Q79.6288-18.2499 76.1019-18.2499Q73.1832-18.2499 71.096-19.4355Q69.0089-20.6211 67.5617-22.4763Q66.5171-23.5721 65.0855-24.2792Q63.654-24.9863 61.2939-24.9863Q58.1602-24.9863 56.3612-23.3613Q54.5622-21.7364 54.5622-19.028Q54.5622-17.3317 55.2795-15.6558Q57.0958-11.2499 62.6125-8.62952Q68.1292-6.00918 76.4673-6.00918Z"/>
  </g>
  <g id="Bold-L" transform="matrix(1 0 0 1 2264.35 1556)">
   <path d="M37.5443 24.3864L113.709 24.3864Q124.174 24.3864 129.672 18.8927Q135.17 13.3991 135.17 3.03698L135.17-73.4013Q135.17-83.7634 129.672-89.2499Q124.174-94.7365 113.709-94.7365L37.5443-94.7365Q27.1168-94.7365 21.6004-89.257Q16.084-83.7776 16.084-73.4013L16.084 3.03698Q16.084 13.4275 21.6004 18.9069Q27.1168 24.3864 37.5443 24.3864ZM38.9901 9.91361Q34.8616 9.91361 32.6907 7.82346Q30.5198 5.73331 30.5198 1.40624L30.5198-71.7564Q30.5198-76.0756 32.6907-78.1697Q34.8616-80.2637 38.9901-80.2637L112.264-80.2637Q116.393-80.2637 118.564-78.1697Q120.734-76.0756 120.734-71.7564L120.734 1.40624Q120.734 5.73331 118.564 7.82346Q116.393 9.91361 112.264 9.91361ZM75.2854-5.84918Q85.5627-5.84918 91.741-11.3747Q97.9194-16.9003 97.9194-26.2043Q97.9194-34.4547 92.6965-39.5228Q87.4736-44.5909 79.0538-44.5909Q75.0626-44.5909 71.5541-43.0534Q68.0455-41.5158 66.4337-39.042L65.761-39.042L66.9357-53.3031L90.1718-53.3031Q92.6399-53.3031 94.0939-54.6513Q95.548-55.9995 95.548-58.2569Q95.548-60.5719 94.1232-61.8909Q92.6983-63.2099 90.1718-63.2099L64.0275-63.2099Q60.6757-63.2099 58.5924-61.3114Q56.509-59.413 56.282-56.2242L54.8802-37.4695Q54.6674-34.0392 56.5036-32.1216Q58.3398-30.204 61.9519-30.204Q63.9684-30.204 65.3442-30.6737Q66.7201-31.1434 68.2052-32.2014Q70.1741-33.7054 71.9156-34.4291Q73.6571-35.1527 75.8274-35.1527Q79.8929-35.1527 82.3587-32.5945Q84.8244-30.0362 84.8244-25.8824Q84.8244-21.7579 82.0428-18.9983Q79.2611-16.2387 75.0554-16.2387Q71.6861-16.2387 69.1759-17.7076Q66.6657-19.1765 65.1997-21.5627Q64.2751-22.7226 63.0102-23.4119Q61.7454-24.1011 59.7756-24.1011Q57.1594-24.1011 55.6314-22.7009Q54.1034-21.3008 54.1034-18.9702Q54.1034-17.4584 54.7789-15.8663Q56.5595-11.3125 61.9254-8.58083Q67.2913-5.84918 75.2854-5.84918Z"/>
  </g>
  <g id="Semibold-L" transform="matrix(1 0 0 1 1968.43 1556)">
   <path d="M36.6561 23.6077L113.024 23.6077Q123.134 23.6077 128.365 18.3778Q133.596 13.1479 133.596 3.16154L133.596-73.5202Q133.596-83.5066 128.365-88.7266Q123.134-93.9466 113.024-93.9466L36.6561-93.9466Q26.588-93.9466 21.336-88.7365Q16.084-83.5265 16.084-73.5202L16.084 3.16154Q16.084 13.1877 21.336 18.3977Q26.588 23.6077 36.6561 23.6077ZM37.6342 11.241Q33.1463 11.241 30.7775 8.94207Q28.4088 6.64315 28.4088 1.97361L28.4088-72.3124Q28.4088-76.9586 30.7775-79.2692Q33.1463-81.5798 37.6342-81.5798L112.046-81.5798Q116.513-81.5798 118.892-79.2692Q121.272-76.9586 121.272-72.3124L121.272 1.97361Q121.272 6.64315 118.892 8.94207Q116.513 11.241 112.046 11.241ZM74.4706-5.73888Q84.4343-5.73888 90.4786-11.2281Q96.5229-16.7172 96.5229-25.9003Q96.5229-34.1531 91.2517-39.2706Q85.9805-44.388 77.5646-44.388Q73.6103-44.388 70.0692-42.8307Q66.5282-41.2733 64.8386-38.7905L64.2459-38.7905L65.5664-54.6016L89.6064-54.6016Q91.6979-54.6016 92.9551-55.8062Q94.2123-57.0107 94.2123-58.9757Q94.2123-60.999 92.9737-62.185Q91.735-63.371 89.6064-63.371L63.398-63.371Q60.3107-63.371 58.3956-61.6657Q56.4804-59.9604 56.259-57.0397L54.7171-37.0586Q54.5156-34.0352 56.1374-32.2955Q57.7592-30.5557 60.8906-30.5557Q62.7317-30.5557 64.0075-31.0107Q65.2834-31.4656 66.7726-32.5941Q68.9374-34.3774 70.8568-35.1947Q72.7762-36.012 75.1557-36.012Q79.685-36.012 82.4456-33.1465Q85.2061-30.2811 85.2061-25.6479Q85.2061-21.0334 82.1069-17.9428Q79.0077-14.8522 74.3339-14.8522Q70.6541-14.8522 67.8522-16.5164Q65.0503-18.1806 63.5714-20.9329Q62.7295-22.137 61.5795-22.8139Q60.4296-23.4909 58.7289-23.4909Q56.4695-23.4909 55.1283-22.2457Q53.7872-21.0005 53.7872-18.9303Q53.7872-17.5457 54.4337-16.0114Q56.1898-11.3556 61.4517-8.54726Q66.7136-5.73888 74.4706-5.73888Z"/>
  </g>
  <g id="Medium-L" transform="matrix(1 0 0 1 1672.31 1556)">
   <path d="M35.9826 23.0174L112.505 23.0174Q122.346 23.0174 127.375 17.9874Q132.403 12.9575 132.403 3.25599L132.403-73.6104Q132.403-83.3119 127.375-88.3298Q122.346-93.3476 112.505-93.3476L35.9826-93.3476Q26.187-93.3476 21.1355-88.3419Q16.084-83.3361 16.084-73.6104L16.084 3.25599Q16.084 13.0058 21.1355 18.0116Q26.187 23.0174 35.9826 23.0174ZM36.606 12.2475Q31.8456 12.2475 29.3269 9.79025Q26.8081 7.33303 26.8081 2.40381L26.8081-72.7341Q26.8081-77.628 29.3269-80.1029Q31.8456-82.5777 36.606-82.5777L111.881-82.5777Q116.604-82.5777 119.141-80.1029Q121.679-77.628 121.679-72.7341L121.679 2.40381Q121.679 7.33303 119.141 9.79025Q116.604 12.2475 111.881 12.2475ZM73.8527-5.65525Q83.5787-5.65525 89.5214-11.1168Q95.4641-16.5784 95.4641-25.6699Q95.4641-33.9244 90.1562-39.0793Q84.8483-44.2341 76.4355-44.2341Q72.5091-44.2341 68.9434-42.6618Q65.3776-41.0895 63.6291-38.5999L63.0971-38.5999L64.5282-55.5862L89.1777-55.5862Q90.9836-55.5862 92.0915-56.6818Q93.1995-57.7774 93.1995-59.5208Q93.1995-61.323 92.1021-62.408Q91.0046-63.4931 89.1777-63.4931L62.9208-63.4931Q60.0339-63.4931 58.2463-61.9343Q56.4588-60.3755 56.2416-57.658L54.5935-36.7471Q54.4005-34.0322 55.8597-32.4273Q57.3189-30.8225 60.0858-30.8225Q61.794-30.8225 62.994-31.2662Q64.1941-31.7099 65.6863-32.8918Q67.9997-34.887 70.054-35.7753Q72.1082-36.6636 74.6464-36.6636Q79.5273-36.6636 82.5114-33.5651Q85.4955-30.4667 85.4955-25.4701Q85.4955-20.484 82.1555-17.1425Q78.8155-13.8009 73.7868-13.8009Q69.8715-13.8009 66.8485-15.6132Q63.8255-17.4255 62.3367-20.4553Q61.5575-21.6929 60.4947-22.3606Q59.4319-23.0282 57.9352-23.0282Q55.9463-23.0282 54.7469-21.9005Q53.5474-20.7728 53.5474-18.9001Q53.5474-17.612 54.172-16.1215Q55.9094-11.3884 61.0925-8.52181Q66.2756-5.65525 73.8527-5.65525Z"/>
  </g>
  <g id="Regular-L" transform="matrix(1 0 0 1 1376.38 1556)">
   <path d="M35.1041 22.2473L111.827 22.2473Q121.318 22.2473 126.082 17.4782Q130.847 12.7092 130.847 3.37919L130.847-73.728Q130.847-83.058 126.082-87.8122Q121.318-92.5664 111.827-92.5664L35.1041-92.5664Q25.664-92.5664 20.874-87.8271Q16.084-83.0877 16.084-73.728L16.084 3.37919Q16.084 12.7686 20.874 17.508Q25.664 22.2473 35.1041 22.2473ZM35.265 13.5603Q30.1491 13.5603 27.4347 10.8966Q24.7203 8.23287 24.7203 2.96494L24.7203-73.284Q24.7203-78.5013 27.4347-81.1903Q30.1491-83.8794 35.265-83.8794L111.666-83.8794Q116.722-83.8794 119.467-81.1903Q122.211-78.5013 122.211-73.284L122.211 2.96494Q122.211 8.23287 119.467 10.8966Q116.722 13.5603 111.666 13.5603ZM73.0468-5.54616Q82.4627-5.54616 88.2728-10.9718Q94.0829-16.3974 94.0829-25.3693Q94.0829-33.6261 88.7273-38.8298Q83.3716-44.0334 74.9627-44.0334Q71.0728-44.0334 67.4748-42.4415Q63.8769-40.8497 62.0515-38.3512L61.5987-38.3512L63.174-56.8704L88.6186-56.8704Q90.0519-56.8704 90.9652-57.8239Q91.8785-58.7774 91.8785-60.2317Q91.8785-61.7454 90.9652-62.699Q90.0519-63.6525 88.6186-63.6525L62.2982-63.6525Q59.6728-63.6525 58.0517-62.2847Q56.4305-60.917 56.219-58.4646L54.4321-36.3407Q54.2504-34.0282 55.4975-32.5993Q56.7446-31.1704 59.0362-31.1704Q60.5709-31.1704 61.672-31.5995Q62.7732-32.0286 64.2693-33.2801Q66.7766-35.5516 69.0068-36.5325Q71.237-37.5135 73.9821-37.5135Q79.3217-37.5135 82.5973-34.1112Q85.873-30.7088 85.873-25.2382Q85.873-19.7675 82.2189-16.0986Q78.5648-12.4296 73.0732-12.4296Q68.8508-12.4296 65.5393-14.4351Q62.2278-16.4406 60.7263-19.8324Q60.0289-21.1137 59.0797-21.7692Q58.1306-22.4247 56.9-22.4247Q55.264-22.4247 54.2493-21.4503Q53.2346-20.4758 53.2346-18.8607Q53.2346-17.6984 53.8307-16.265Q55.5438-11.4311 60.6241-8.48861Q65.7043-5.54616 73.0468-5.54616Z"/>
  </g>
  <g id="Light-L" transform="matrix(1 0 0 1 1080.5 1556)">
   <path d="M34.078 21.4264L111.191 21.4264Q120.127 21.4264 124.656 16.8626Q129.185 12.2987 129.185 3.52284L129.185-73.8511Q129.185-82.627 124.656-87.1657Q120.127-91.7045 111.191-91.7045L34.078-91.7045Q25.1715-91.7045 20.6277-87.1909Q16.084-82.6773 16.084-73.8511L16.084 3.52284Q16.084 12.3992 20.6277 16.9128Q25.1715 21.4264 34.078 21.4264ZM34.2389 14.7916Q28.5894 14.7916 25.639 11.8714Q22.6887 8.95114 22.6887 3.21121L22.6887-73.4893Q22.6887-79.199 25.639-82.1343Q28.5894-85.0696 34.2389-85.0696L111.03-85.0696Q116.579-85.0696 119.579-82.1343Q122.58-79.199 122.58-73.4893L122.58 3.21121Q122.58 8.95114 119.579 11.8714Q116.579 14.7916 111.03 14.7916ZM72.2875-5.9566Q81.375-5.9566 86.9491-11.2694Q92.5233-16.5821 92.5233-25.3077Q92.5233-33.3799 87.301-38.5117Q82.0787-43.6435 73.9161-43.6435Q70.0056-43.6435 66.3666-41.9798Q62.7276-40.3161 60.6971-37.5919L60.2648-37.5919L61.9838-57.9581L87.8387-57.9581Q88.9847-57.9581 89.7236-58.7372Q90.4625-59.5162 90.4625-60.6421Q90.4625-61.8686 89.7236-62.6477Q88.9847-63.4267 87.8387-63.4267L61.1695-63.4267Q59.1187-63.4267 57.8772-62.336Q56.6357-61.2453 56.4447-59.2649L54.5348-35.5814Q54.394-33.782 55.3641-32.6711Q56.3342-31.5603 58.1537-31.5603Q59.3601-31.5603 60.1944-31.8971Q61.0288-32.2338 62.1145-33.2391Q64.9091-36.0236 67.4574-37.2098Q70.0057-38.3959 73.2023-38.3959Q78.9523-38.3959 82.546-34.7268Q86.1398-31.0577 86.1398-25.1971Q86.1398-19.3365 82.2394-15.4111Q78.3391-11.4856 72.4986-11.4856Q67.8041-11.4856 64.2054-13.7373Q60.6066-15.9891 59.2897-19.6683Q58.777-20.7238 58.0331-21.2767Q57.2892-21.8296 56.2638-21.8296Q54.9972-21.8296 54.198-21.0706Q53.3988-20.3116 53.3988-19.0249Q53.3988-18.1704 53.8512-17.0244Q55.3591-12.1288 60.2547-9.0427Q65.1502-5.9566 72.2875-5.9566Z"/>
  </g>
  <g id="Thin-L" transform="matrix(1 0 0 1 784.884 1556)">
   <path d="M32.7209 20.3407L110.349 20.3407Q118.553 20.3407 122.77 16.0483Q126.986 11.7559 126.986 3.71284L126.986-74.014Q126.986-82.057 122.77-86.3108Q118.553-90.5645 110.349-90.5645L32.7209-90.5645Q24.5201-90.5645 20.302-86.3495Q16.084-82.1344 16.084-74.014L16.084 3.71284Q16.084 11.9107 20.302 16.1257Q24.5201 20.3407 32.7209 20.3407ZM32.8818 16.4201Q26.5266 16.4201 23.2641 13.1606Q20.0016 9.9011 20.0016 3.53691L20.0016-73.7607Q20.0016-80.1218 23.2641-83.3829Q26.5266-86.6439 32.8818-86.6439L110.188-86.6439Q116.389-86.6439 119.729-83.3829Q123.069-80.1218 123.069-73.7607L123.069 3.53691Q123.069 9.9011 119.729 13.1606Q116.389 16.4201 110.188 16.4201ZM71.2833-6.49944Q79.9365-6.49944 85.1985-11.6629Q90.4605-16.8264 90.4605-25.2263Q90.4605-33.0542 85.4146-38.091Q80.3688-43.1278 72.5318-43.1278Q68.5943-43.1278 64.901-41.3691Q61.2077-39.6104 58.9057-36.5876L58.5006-36.5876L60.4095-59.3966L86.8073-59.3966Q87.5734-59.3966 88.0815-59.945Q88.5897-60.4934 88.5897-61.185Q88.5897-62.0314 88.0815-62.5798Q87.5734-63.1282 86.8073-63.1282L59.6767-63.1282Q58.3859-63.1282 57.6465-62.4039Q56.9071-61.6796 56.7433-60.3235L54.6705-34.5771Q54.584-33.4563 55.1877-32.7661Q55.7914-32.076 56.9866-32.076Q57.7587-32.076 58.2402-32.2906Q58.7218-32.5053 59.2646-33.1848Q62.4392-36.6479 65.4082-38.1055Q68.3771-39.563 72.1709-39.563Q78.4637-39.563 82.4782-35.5411Q86.4926-31.5191 86.4926-25.1428Q86.4926-18.7666 82.2666-14.5018Q78.0405-10.2371 71.7386-10.2371Q66.4199-10.2371 62.4412-12.8145Q58.4624-15.3919 57.3898-19.4511Q57.1214-20.2081 56.6489-20.6253Q56.1764-21.0425 55.4224-21.0425Q54.6444-21.0425 54.1302-20.5685Q53.6159-20.0945 53.6159-19.242Q53.6159-18.7946 53.8783-18.0286Q55.1148-13.0516 59.7661-9.77554Q64.4174-6.49944 71.2833-6.49944Z"/>
  </g>
  <g id="Ultralight-L" transform="matrix(1 0 0 1 488.735 1556)">
   <path d="M32.0258 19.7847L109.918 19.7847Q117.747 19.7847 121.803 15.6313Q125.86 11.4778 125.86 3.81015L125.86-74.0974Q125.86-81.7651 121.803-85.8729Q117.747-89.9806 109.918-89.9806L32.0258-89.9806Q24.1864-89.9806 20.1352-85.9185Q16.084-81.8564 16.084-74.0974L16.084 3.81015Q16.084 11.6604 20.1352 15.7226Q24.1864 19.7847 32.0258 19.7847ZM32.1867 17.2542Q25.4701 17.2542 22.0477 13.8209Q18.6253 10.3877 18.6253 3.70373L18.6253-73.8997Q18.6253-80.5945 22.0477-84.0223Q25.4701-87.4502 32.1867-87.4502L109.757-87.4502Q116.291-87.4502 119.805-84.0223Q123.319-80.5945 123.319-73.8997L123.319 3.70373Q123.319 10.3877 119.805 13.8209Q116.291 17.2542 109.757 17.2542ZM70.7689-6.77748Q79.1997-6.77748 84.3018-11.8645Q89.4039-16.9515 89.4039-25.1846Q89.4039-32.8873 84.4484-37.8755Q79.4929-42.8636 71.8228-42.8636Q67.8714-42.8636 64.1503-41.0563Q60.4292-39.249 57.9882-36.0733L57.5969-36.0733L59.6032-60.1334L86.2791-60.1334Q86.8505-60.1334 87.2405-60.5636Q87.6305-60.9938 87.6305-61.463Q87.6305-62.1148 87.2405-62.5451Q86.8505-62.9753 86.2791-62.9753L58.9121-62.9753Q58.0106-62.9753 57.5284-62.4386Q57.0462-61.902 56.8962-60.8656L54.74-34.0628Q54.6813-33.2894 55.0973-32.8148Q55.5133-32.3401 56.3888-32.3401Q56.9385-32.3401 57.2393-32.4922Q57.5401-32.6443 57.8049-33.157Q61.1741-36.9676 64.3586-38.5642Q67.543-40.1608 71.6426-40.1608Q78.2135-40.1608 82.4434-35.9581Q86.6733-31.7554 86.6733-25.115Q86.6733-18.4746 82.2805-14.0361Q77.8876-9.59758 71.3494-9.59758Q65.7109-9.59758 61.5375-12.3418Q57.3641-15.0861 56.4166-19.3399Q56.2733-19.944 55.9399-20.2916Q55.6064-20.6393 54.9915-20.6393Q54.4636-20.6393 54.0954-20.3113Q53.7272-19.9833 53.7272-19.3532Q53.7272-19.1144 53.8922-18.543Q54.9897-13.5243 59.5159-10.1509Q64.0421-6.77748 70.7689-6.77748Z"/>
  </g>
  <g id="Black-M" transform="matrix(1 0 0 1 2872.54 1126)">
   <path d="M31.6183 13.203L90.1012 13.203Q99.1693 13.203 104.214 8.16134Q109.259 3.11973 109.259-5.93791L109.259-64.4591Q109.259-73.5167 104.214-78.5585Q99.1693-83.6003 90.1012-83.6003L31.6183-83.6003Q22.5558-83.6003 17.5084-78.5583Q12.4609-73.5164 12.4609-64.4591L12.4609-5.93791Q12.4609 3.11912 17.5084 8.16104Q22.5558 13.203 31.6183 13.203ZM34.2552-4.14063Q32.0406-4.14063 30.9198-5.17025Q29.799-6.19988 29.799-8.60232L29.799-61.795Q29.799-64.249 30.9198-65.2528Q32.0406-66.2567 34.2552-66.2567L87.4644-66.2567Q89.7367-66.2567 90.8286-65.2528Q91.9206-64.249 91.9206-61.795L91.9206-8.60232Q91.9206-6.19988 90.8286-5.17025Q89.7367-4.14063 87.4644-4.14063ZM60.7107-12.9647Q69.578-12.9647 74.719-17.3251Q79.8599-21.6855 79.8599-29.202Q79.8599-35.5235 76.0157-39.2656Q72.1715-43.0076 65.7192-43.0076Q62.5005-43.0076 59.8739-41.8561Q57.2473-40.7045 56.1807-38.7401L55.4069-38.7401L55.893-45.3913L71.4278-45.3913Q74.4637-45.3913 76.1691-46.8423Q77.8745-48.2934 77.8745-50.8784Q77.8745-53.5199 76.2262-54.9138Q74.5779-56.3077 71.4278-56.3077L51.2619-56.3077Q48.0033-56.3077 45.9728-54.3049Q43.9424-52.302 43.7552-49.1229L43.0819-38.039Q42.8944-34.2364 44.918-32.2822Q46.9416-30.328 51.138-30.328Q53.1573-30.328 54.4566-30.7084Q55.7559-31.0888 56.7539-31.5963Q57.7415-32.0302 58.6222-32.3569Q59.5028-32.6836 60.6593-32.6836Q62.445-32.6836 63.5076-31.6073Q64.5701-30.5309 64.5701-28.7345Q64.5701-26.9952 63.3611-25.8433Q62.152-24.6915 60.2926-24.6915Q58.5289-24.6915 57.4321-25.2799Q56.3353-25.8684 55.3044-26.6278Q54.3828-27.3063 53.1-27.8452Q51.8172-28.3841 49.4884-28.3841Q46.4304-28.3841 44.714-26.8702Q42.9976-25.3562 42.9976-22.8179Q42.9976-21.3389 43.5657-20.0158Q44.9551-16.7975 49.3866-14.8811Q53.818-12.9647 60.7107-12.9647Z"/>
  </g>
  <g id="Heavy-M" transform="matrix(1 0 0 1 2576.65 1126)">
   <path d="M30.7128 12.3923L89.3692 12.3923Q98.107 12.3923 102.864 7.64094Q107.621 2.88957 107.621-5.81086L107.621-64.5834Q107.621-73.2838 102.864-78.0339Q98.107-82.7841 89.3692-82.7841L30.7128-82.7841Q21.9913-82.7841 17.2261-78.0352Q12.4609-73.2862 12.4609-64.5834L12.4609-5.81086Q12.4609 2.89446 17.2261 7.64338Q21.9913 12.3923 30.7128 12.3923ZM32.7568-2.72252Q30.2012-2.72252 28.8804-3.96168Q27.5595-5.20084 27.5595-7.93601L27.5595-62.4558Q27.5595-65.2183 28.8804-66.4438Q30.2012-67.6693 32.7568-67.6693L87.3253-67.6693Q89.9196-67.6693 91.221-66.4438Q92.5225-65.2183 92.5225-62.4558L92.5225-7.93601Q92.5225-5.20084 91.221-3.96168Q89.9196-2.72252 87.3253-2.72252ZM59.8409-12.7367Q68.3813-12.7367 73.403-17.0753Q78.4248-21.4138 78.4248-28.8299Q78.4248-35.1941 74.4906-39.0141Q70.5564-42.8341 64.0563-42.8341Q60.8888-42.8341 58.2297-41.6729Q55.5706-40.5117 54.4497-38.5845L53.7729-38.5845L54.413-46.8037L70.8786-46.8037Q73.4988-46.8037 74.9922-48.11Q76.4855-49.4164 76.4855-51.7014Q76.4855-54.0349 75.0358-55.2977Q73.5861-56.5605 70.8786-56.5605L50.7064-56.5605Q47.6595-56.5605 45.7608-54.7429Q43.8621-52.9254 43.6776-49.9847L42.8531-37.6812Q42.6711-34.2842 44.4824-32.4872Q46.2937-30.6901 49.9822-30.6901Q51.8497-30.6901 53.0796-31.0716Q54.3095-31.4531 55.4007-32.1028Q56.575-32.7807 57.6128-33.182Q58.6507-33.5834 59.9754-33.5834Q62.2608-33.5834 63.6287-32.1748Q64.9966-30.7663 64.9966-28.446Q64.9966-26.1694 63.4379-24.653Q61.8792-23.1367 59.5015-23.1367Q57.4454-23.1367 56.0407-23.9198Q54.6359-24.703 53.5489-25.8647Q52.6924-26.6477 51.5112-27.1931Q50.33-27.7385 48.2982-27.7385Q45.6131-27.7385 44.0873-26.3747Q42.5615-25.0109 42.5615-22.7321Q42.5615-21.3482 43.1238-20.0367Q44.5261-16.7023 48.8655-14.7195Q53.2048-12.7367 59.8409-12.7367Z"/>
  </g>
  <g id="Bold-M" transform="matrix(1 0 0 1 2280.85 1126)">
   <path d="M29.6999 11.4855L88.5504 11.4855Q96.9187 11.4855 101.354 7.05878Q105.789 2.6321 105.789-5.66875L105.789-64.7224Q105.789-73.0233 101.354-77.4472Q96.9187-81.8711 88.5504-81.8711L29.6999-81.8711Q21.3597-81.8711 16.9103-77.4499Q12.4609-73.0288 12.4609-64.7224L12.4609-5.66875Q12.4609 2.64314 16.9103 7.0643Q21.3597 11.4855 29.6999 11.4855ZM31.0806-1.13616Q28.1436-1.13616 26.5989-2.60972Q25.0543-4.08328 25.0543-7.19066L25.0543-63.195Q25.0543-66.3027 26.5989-67.7761Q28.1436-69.2495 31.0806-69.2495L87.1696-69.2495Q90.1241-69.2495 91.66-67.7761Q93.1959-66.3027 93.1959-63.195L93.1959-7.19066Q93.1959-4.08328 91.66-2.60972Q90.1241-1.13616 87.1696-1.13616ZM58.8679-12.4817Q67.0426-12.4817 71.931-16.7958Q76.8193-21.1099 76.8193-28.4137Q76.8193-34.8256 72.7846-38.7328Q68.7498-42.64 62.1962-42.64Q59.0858-42.64 56.3905-41.4681Q53.6951-40.2961 52.5132-38.4104L51.9451-38.4104L52.7574-48.3836L70.2643-48.3836Q72.4194-48.3836 73.6756-49.5281Q74.9318-50.6727 74.9318-52.6221Q74.9318-54.6111 73.7041-55.7271Q72.4765-56.8432 70.2643-56.8432L50.085-56.8432Q47.275-56.8432 45.5236-55.233Q43.7723-53.6228 43.5909-50.9487L42.5971-37.281Q42.4213-34.3378 43.9951-32.7165Q45.569-31.0953 48.6893-31.0953Q50.387-31.0953 51.5393-31.478Q52.6915-31.8607 53.887-32.6695Q55.2702-33.6201 56.4838-34.105Q57.6974-34.5899 59.2104-34.5899Q62.0547-34.5899 63.7642-32.8098Q65.4738-31.0296 65.4738-28.1233Q65.4738-25.2456 63.5239-23.3215Q61.574-21.3975 58.6165-21.3975Q56.2334-21.3975 54.4841-22.3984Q52.7348-23.3993 51.5851-25.011Q50.8015-25.9109 49.734-26.4636Q48.6664-27.0162 46.9669-27.0162Q44.6989-27.0162 43.3862-25.8203Q42.0736-24.6245 42.0736-22.6361Q42.0736-21.3586 42.6294-20.06Q44.0462-16.5959 48.2825-14.5388Q52.5189-12.4817 58.8679-12.4817Z"/>
  </g>
  <g id="Semibold-M" transform="matrix(1 0 0 1 1984.77 1126)">
   <path d="M29.0015 10.8603L87.9858 10.8603Q96.0995 10.8603 100.313 6.65745Q104.526 2.45461 104.526-5.57077L104.526-64.8183Q104.526-72.8436 100.313-77.0427Q96.0995-81.2417 87.9858-81.2417L29.0015-81.2417Q20.9244-81.2417 16.6926-77.0465Q12.4609-72.8513 12.4609-64.8183L12.4609-5.57077Q12.4609 2.46989 16.6926 6.66509Q20.9244 10.8603 29.0015 10.8603ZM29.925-0.0425279Q26.725-0.0425279 25.0262-1.67768Q23.3273-3.31284 23.3273-6.67681L23.3273-63.7046Q23.3273-67.0502 25.0262-68.6945Q26.725-70.3389 29.925-70.3389L87.0623-70.3389Q90.2652-70.3389 91.9626-68.6945Q93.6601-67.0502 93.6601-63.7046L93.6601-6.67681Q93.6601-3.31284 91.9626-1.67768Q90.2652-0.0425279 87.0623-0.0425279ZM58.1971-12.3059Q66.1197-12.3059 70.9161-16.6031Q75.7126-20.9003 75.7126-28.1268Q75.7126-34.5715 71.6085-38.5389Q67.5044-42.5062 60.9138-42.5062Q57.8429-42.5062 55.1225-41.3268Q52.4021-40.1475 51.1783-38.2904L50.685-38.2904L51.6161-49.4727L69.8409-49.4727Q71.6753-49.4727 72.7679-50.5058Q73.8606-51.5388 73.8606-53.2569Q73.8606-55.0083 72.7861-56.0232Q71.7116-57.0381 69.8409-57.0381L49.6567-57.0381Q47.01-57.0381 45.3601-55.5708Q43.7103-54.1035 43.5311-51.6133L42.4207-37.0051Q42.2491-34.3747 43.6592-32.8746Q45.0693-31.3745 47.798-31.3745Q49.3786-31.3745 50.4773-31.7581Q51.576-32.1417 52.8434-33.0601Q54.3706-34.1989 55.7054-34.7413Q57.0402-35.2838 58.683-35.2838Q61.9126-35.2838 63.8576-33.2475Q65.8027-31.2111 65.8027-27.9009Q65.8027-24.6088 63.5832-22.4036Q61.3637-20.1984 58.0064-20.1984Q55.3979-20.1984 53.4111-21.3495Q51.4243-22.5005 50.2313-24.4225Q49.4979-25.403 48.5087-25.9606Q47.5196-26.5182 46.0491-26.5182Q44.0686-26.5182 42.9029-25.4382Q41.7372-24.3581 41.7372-22.57Q41.7372-21.3658 42.2886-20.0761Q43.7154-16.5225 47.8807-14.4142Q52.0459-12.3059 58.1971-12.3059Z"/>
  </g>
  <g id="Medium-M" transform="matrix(1 0 0 1 1688.54 1126)">
   <path d="M28.472 10.3863L87.5578 10.3863Q95.4783 10.3863 99.5236 6.35315Q103.569 2.32003 103.569-5.49648L103.569-64.8909Q103.569-72.7075 99.5236-76.736Q95.4783-80.7644 87.5578-80.7644L28.472-80.7644Q20.5942-80.7644 16.5276-76.7406Q12.4609-72.7167 12.4609-64.8909L12.4609-5.49648Q12.4609 2.33852 16.5276 6.36239Q20.5942 10.3863 28.472 10.3863ZM29.0488 0.786706Q25.6495 0.786706 23.8336-0.970977Q22.0177-2.72866 22.0177-6.28719L22.0177-64.091Q22.0177-67.617 23.8336-69.391Q25.6495-71.1649 29.0488-71.1649L86.981-71.1649Q90.3721-71.1649 92.1921-69.391Q94.0121-67.617 94.0121-64.091L94.0121-6.28719Q94.0121-2.72866 92.1921-0.970977Q90.3721 0.786706 86.981 0.786706ZM57.6885-12.1726Q65.4199-12.1726 70.1466-16.457Q74.8734-20.7415 74.8734-27.9092Q74.8734-34.3789 70.7167-38.3918Q66.56-42.4048 59.9414-42.4048Q56.9004-42.4048 54.1611-41.2198Q51.4218-40.0348 50.166-38.1994L49.7295-38.1994L50.7507-50.2986L69.5197-50.2986Q71.111-50.2986 72.0797-51.2471Q73.0484-52.1955 73.0484-53.7381Q73.0484-55.3095 72.09-56.2477Q71.1316-57.1859 69.5197-57.1859L49.3319-57.1859Q46.809-57.1859 45.2362-55.827Q43.6634-54.4681 43.4857-52.1173L42.2869-36.796Q42.1185-34.4026 43.4045-32.9945Q44.6905-31.5863 47.1222-31.5863Q48.6141-31.5863 49.6722-31.9706Q50.7303-32.3548 52.0522-33.3563Q53.6885-34.6377 55.1152-35.2238Q56.5419-35.8099 58.2831-35.8099Q61.8049-35.8099 63.9285-33.5793Q66.0521-31.3488 66.0521-27.7322Q66.0521-24.1259 63.6281-21.7076Q61.2042-19.2893 57.5438-19.2893Q54.7643-19.2893 52.5975-20.5542Q50.4306-21.8191 49.2047-23.9763Q48.5095-25.0179 47.5797-25.5793Q46.65-26.1407 45.3531-26.1407Q43.5907-26.1407 42.5365-25.1484Q41.4822-24.1562 41.4822-22.5198Q41.4822-21.3713 42.0302-20.0883Q43.4645-16.4668 47.576-14.3197Q51.6874-12.1726 57.6885-12.1726Z"/>
  </g>
  <g id="Regular-M" transform="matrix(1 0 0 1 1392.45 1126)">
   <path d="M27.7814 9.76797L86.9995 9.76797Q94.6681 9.76797 98.494 5.95622Q102.32 2.14448 102.32-5.39959L102.32-64.9857Q102.32-72.5298 98.494-76.3359Q94.6681-80.142 86.9995-80.142L27.7814-80.142Q20.1637-80.142 16.3123-76.3416Q12.4609-72.5412 12.4609-64.9857L12.4609-5.39959Q12.4609 2.16717 16.3123 5.96757Q20.1637 9.76797 27.7814 9.76797ZM27.906 1.86832Q24.2465 1.86832 22.2781-0.0491846Q20.3096-1.96668 20.3096-5.77899L20.3096-64.595Q20.3096-68.3563 22.2781-70.2993Q24.2465-72.2423 27.906-72.2423L86.8749-72.2423Q90.5116-72.2423 92.4914-70.2993Q94.4712-68.3563 94.4712-64.595L94.4712-5.77899Q94.4712-1.96668 92.4914-0.0491846Q90.5116 1.86832 86.8749 1.86832ZM57.0251-11.9987Q64.5071-11.9987 69.1429-16.2665Q73.7788-20.5342 73.7788-27.6254Q73.7788-34.1276 69.5535-38.2Q65.3282-42.2724 58.6731-42.2724Q55.6712-42.2724 52.9071-41.0801Q50.143-39.8877 48.8457-38.0807L48.4833-38.0807L49.6219-51.3758L69.1009-51.3758Q70.3751-51.3758 71.1821-52.2139Q71.989-53.0521 71.989-54.3659Q71.989-55.7023 71.1821-56.5405Q70.3751-57.3786 69.1009-57.3786L48.9082-57.3786Q46.5468-57.3786 45.0745-56.1611Q43.6021-54.9435 43.4266-52.7746L42.1124-36.5231Q41.9482-34.4391 43.0723-33.1508Q44.1963-31.8625 46.2407-31.8625Q47.6168-31.8625 48.6219-32.2476Q49.6271-32.6327 51.0201-33.7426Q52.7988-35.2101 54.3454-35.8531Q55.8919-36.4961 57.7615-36.4961Q61.6643-36.4961 64.0209-34.0122Q66.3774-31.5283 66.3774-27.5122Q66.3774-23.496 63.6867-20.7997Q60.9961-18.1034 56.9403-18.1034Q53.938-18.1034 51.5362-19.5168Q49.1344-20.9302 47.8658-23.3943Q47.2202-24.5156 46.368-25.0819Q45.5157-25.6482 44.4454-25.6482Q42.9674-25.6482 42.0585-24.7705Q41.1496-23.8927 41.1496-22.4543Q41.1496-21.3784 41.6932-20.1042Q43.1373-16.3942 47.1785-14.1965Q51.2197-11.9987 57.0251-11.9987Z"/>
  </g>
  <g id="Light-M" transform="matrix(1 0 0 1 1096.49 1126)">
   <path d="M26.8614 9.03201L86.4291 9.03201Q93.601 9.03201 97.2153 5.40425Q100.83 1.7765 100.83-5.27079L100.83-65.0961Q100.83-72.1434 97.2153-75.7563Q93.601-79.3692 86.4291-79.3692L26.8614-79.3692Q19.7221-79.3692 16.0915-75.7712Q12.4609-72.1732 12.4609-65.0961L12.4609-5.27079Q12.4609 1.83599 16.0915 5.434Q19.7221 9.03201 26.8614 9.03201ZM26.986 2.97226Q22.8482 2.97226 20.6682 0.824768Q18.4881-1.32272 18.4881-5.55821L18.4881-64.779Q18.4881-68.9819 20.6682-71.1457Q22.8482-73.3094 26.986-73.3094L86.3045-73.3094Q90.3828-73.3094 92.5926-71.1457Q94.8024-68.9819 94.8024-64.779L94.8024-5.55821Q94.8024-1.32272 92.5926 0.824768Q90.3828 2.97226 86.3045 2.97226ZM56.3444-12.3667Q63.532-12.3667 67.9562-16.5332Q72.3804-20.6998 72.3804-27.5702Q72.3804-33.9068 68.2748-37.9148Q64.1691-41.9228 57.7348-41.9228Q54.7144-41.9228 51.9135-40.6661Q49.1126-39.4094 47.6314-37.3999L47.2873-37.3999L48.5547-52.351L68.4017-52.351Q69.4183-52.351 70.0689-53.0327Q70.7195-53.7144 70.7195-54.7339Q70.7195-55.8127 70.0689-56.4945Q69.4183-57.1762 68.4017-57.1762L47.8963-57.1762Q46.05-57.1762 44.9181-56.2071Q43.7861-55.2379 43.6289-53.4922L42.2044-35.8423Q42.077-34.2184 42.9527-33.2152Q43.8284-32.2121 45.4495-32.2121Q46.5312-32.2121 47.2972-32.5144Q48.0631-32.8167 49.0882-33.7058Q51.1245-35.6332 52.9563-36.4603Q54.788-37.2873 57.0623-37.2873Q61.3332-37.2873 63.9749-34.5642Q66.6166-31.8411 66.6166-27.4754Q66.6166-23.1096 63.7051-20.1834Q60.7937-17.2571 56.4252-17.2571Q52.9996-17.2571 50.3403-18.8912Q47.6809-20.5254 46.5779-23.2471Q46.0979-24.166 45.4296-24.6403Q44.7613-25.1147 43.875-25.1147Q42.7282-25.1147 42.0125-24.4301Q41.2967-23.7455 41.2967-22.6015Q41.2967-21.8016 41.7116-20.785Q42.9718-17.0198 46.8473-14.6932Q50.7229-12.3667 56.3444-12.3667Z"/>
  </g>
  <g id="Thin-M" transform="matrix(1 0 0 1 800.76 1126)">
   <path d="M25.6447 8.05864L85.6747 8.05864Q92.1896 8.05864 95.5241 4.67423Q98.8585 1.28982 98.8585-5.10045L98.8585-65.2421Q98.8585-71.6324 95.5241-74.9898Q92.1896-78.3472 85.6747-78.3472L25.6447-78.3472Q19.1381-78.3472 15.7995-75.0168Q12.4609-71.6865 12.4609-65.2421L12.4609-5.10045Q12.4609 1.39797 15.7995 4.72831Q19.1381 8.05864 25.6447 8.05864ZM25.7693 4.43231Q20.9988 4.43231 18.5389 1.98064Q16.079-0.471023 16.079-5.2662L16.079-65.0223Q16.079-69.8093 18.5389-72.2651Q20.9988-74.7208 25.7693-74.7208L85.5501-74.7208Q90.2125-74.7208 92.7264-72.2651Q95.2404-69.8093 95.2404-65.0223L95.2404-5.2662Q95.2404-0.471023 92.7264 1.98064Q90.2125 4.43231 85.5501 4.43231ZM55.444-12.8533Q62.2422-12.8533 66.3866-16.8861Q70.5311-20.9188 70.5311-27.4972Q70.5311-33.6148 66.5835-37.5377Q62.636-41.4605 56.4938-41.4605Q53.4491-41.4605 50.5995-40.1186Q47.7499-38.7767 46.0254-36.4996L45.7056-36.4996L47.1433-53.6407L67.477-53.6407Q68.153-53.6407 68.5967-54.1156Q69.0405-54.5905 69.0405-55.2205Q69.0405-55.9587 68.5967-56.4337Q68.153-56.9086 67.477-56.9086L46.5579-56.9086Q45.393-56.9086 44.7112-56.2679Q44.0295-55.6273 43.8966-54.4412L42.3261-34.942Q42.2473-33.9264 42.7945-33.3004Q43.3417-32.6745 44.4031-32.6745Q45.0955-32.6745 45.5451-32.8672Q45.9947-33.06 46.5331-33.6572Q48.9101-36.1929 51.119-37.2633Q53.3279-38.3337 56.1376-38.3337Q60.8951-38.3337 63.914-35.2942Q66.9329-32.2548 66.9329-27.4267Q66.9329-22.5986 63.7295-19.3682Q60.526-16.1377 55.7438-16.1377Q51.7586-16.1377 48.7585-18.0639Q45.7585-19.9901 44.8745-23.0524Q44.6135-23.7037 44.1886-24.0563Q43.7636-24.409 43.1206-24.409Q42.4118-24.409 41.9516-23.9799Q41.4914-23.5509 41.4914-22.7962Q41.4914-22.3613 41.7359-21.6854Q42.7527-17.8472 46.4093-15.3503Q50.0659-12.8533 55.444-12.8533Z"/>
  </g>
  <g id="Ultralight-M" transform="matrix(1 0 0 1 504.553 1126)">
   <path d="M25.0215 7.56009L85.2884 7.56009Q91.4667 7.56009 94.6578 4.30031Q97.8489 1.04054 97.8489-5.01321L97.8489-65.3169Q97.8489-71.3707 94.6578-74.5972Q91.4667-77.8237 85.2884-77.8237L25.0215-77.8237Q18.8389-77.8237 15.6499-74.6305Q12.4609-71.4372 12.4609-65.3169L12.4609-5.01321Q12.4609 1.17363 15.6499 4.36686Q18.8389 7.56009 25.0215 7.56009ZM25.1461 5.18014Q20.0516 5.18014 17.4483 2.57267Q14.8451-0.034789 14.8451-5.11663L14.8451-65.147Q14.8451-70.233 17.4483-72.8384Q20.0516-75.4437 25.1461-75.4437L85.1638-75.4437Q90.1252-75.4437 92.795-72.8384Q95.4648-70.233 95.4648-65.147L95.4648-5.11663Q95.4648-0.034789 92.795 2.57267Q90.1252 5.18014 85.1638 5.18014ZM54.9829-13.1026Q61.5817-13.1026 65.5827-17.0668Q69.5838-21.031 69.5838-27.4598Q69.5838-33.4653 65.7173-37.3445Q61.8508-41.2237 55.8581-41.2237Q52.8009-41.2237 49.9264-39.8381Q47.052-38.4526 45.2027-36.0384L44.8955-36.0384L46.4204-54.3013L67.0034-54.3013Q67.5048-54.3013 67.8426-54.6702Q68.1805-55.0392 68.1805-55.4698Q68.1805-56.0335 67.8426-56.4025Q67.5048-56.7715 67.0034-56.7715L45.8724-56.7715Q45.0565-56.7715 44.6053-56.2991Q44.1541-55.8267 44.0337-54.9273L42.3884-34.4808Q42.3345-33.7768 42.7135-33.344Q43.0924-32.9113 43.8672-32.9113Q44.3601-32.9113 44.6477-33.048Q44.9353-33.1847 45.2244-33.6322Q47.7759-36.4796 50.178-37.6746Q52.5801-38.8696 55.664-38.8696Q60.6708-38.8696 63.8829-35.6681Q67.0949-32.4667 67.0949-27.4018Q67.0949-22.3369 63.7419-18.9506Q60.3889-15.5643 55.3948-15.5643Q51.1229-15.5643 47.9484-17.6401Q44.7738-19.7159 44.002-22.9527Q43.8532-23.4668 43.5529-23.7572Q43.2526-24.0475 42.7343-24.0475Q42.2498-24.0475 41.9205-23.7493Q41.5911-23.4512 41.5911-22.8959Q41.5911-22.648 41.7484-22.1465Q42.6406-18.2709 46.185-15.6868Q49.7293-13.1026 54.9829-13.1026Z"/>
  </g>
  <g id="Black-S" transform="matrix(1 0 0 1 2885.5 696)">
   <path d="M25 2.92969L70.8008 2.92969Q77.9785 2.92969 82.0068-1.09863Q86.0352-5.12695 86.0352-12.3047L86.0352-58.1055Q86.0352-65.2832 82.0068-69.3115Q77.9785-73.3398 70.8008-73.3398L25-73.3398Q17.8223-73.3398 13.7939-69.3115Q9.76562-65.2832 9.76562-58.1055L9.76562-12.3047Q9.76562-5.12695 13.7939-1.09863Q17.8223 2.92969 25 2.92969ZM27.2461-11.2305Q25.5859-11.2305 24.7559-11.9873Q23.9258-12.7441 23.9258-14.5508L23.9258-55.8594Q23.9258-57.7148 24.7559-58.4473Q25.5859-59.1797 27.2461-59.1797L68.5547-59.1797Q70.2637-59.1797 71.0693-58.4473Q71.875-57.7148 71.875-55.8594L71.875-14.5508Q71.875-12.7441 71.0693-11.9873Q70.2637-11.2305 68.5547-11.2305ZM47.8027-17.8711Q54.834-17.8711 58.8867-21.2891Q62.9395-24.707 62.9395-30.6152Q62.9395-35.5469 59.9609-38.4521Q56.9824-41.3574 51.9531-41.3574Q49.4141-41.3574 47.3633-40.4541Q45.3125-39.5508 44.4824-37.9883L43.8477-37.9883L44.1895-42.8223L56.1035-42.8223Q58.5938-42.8223 59.9854-43.9941Q61.377-45.166 61.377-47.2656Q61.377-49.4141 60.0342-50.5371Q58.6914-51.6602 56.1035-51.6602L40.2832-51.6602Q37.6953-51.6602 36.084-50.0488Q34.4727-48.4375 34.3262-45.8984L33.8379-37.5Q33.6914-34.4238 35.3271-32.8613Q36.9629-31.2988 40.3809-31.2988Q41.9922-31.2988 43.0176-31.5918Q44.043-31.8848 44.7754-32.2266Q45.5078-32.5195 46.167-32.7637Q46.8262-33.0078 47.7051-33.0078Q48.9746-33.0078 49.7314-32.251Q50.4883-31.4941 50.4883-30.2246Q50.4883-29.0039 49.6338-28.1982Q48.7793-27.3926 47.4609-27.3926Q46.1426-27.3926 45.3613-27.8076Q44.5801-28.2227 43.7988-28.7109Q43.0664-29.1992 42.041-29.6143Q41.0156-30.0293 39.1113-30.0293Q36.6211-30.0293 35.2295-28.8086Q33.8379-27.5879 33.8379-25.5371Q33.8379-24.3652 34.2773-23.3398Q35.3516-20.8496 38.8428-19.3604Q42.334-17.8711 47.8027-17.8711Z"/>
  </g>
  <g id="Heavy-S" transform="matrix(1 0 0 1 2589.39 696)">
   <path d="M24.3431 2.33042L70.2476 2.33042Q77.2064 2.33042 81.0157-1.47318Q84.8251-5.27677 84.8251-12.2125L84.8251-58.1977Q84.8251-65.1334 81.0157-68.937Q77.2064-72.7406 70.2476-72.7406L24.3431-72.7406Q17.3959-72.7406 13.5807-68.937Q9.76562-65.1334 9.76562-58.1977L9.76562-12.2125Q9.76562-5.27677 13.5807-1.47318Q17.3959 2.33042 24.3431 2.33042ZM26.0821-10.1587Q24.1915-10.1587 23.2173-11.0653Q22.2432-11.972 22.2432-14.0091L22.2432-56.401Q22.2432-58.4639 23.2173-59.3577Q24.1915-60.2515 26.0821-60.2515L68.5086-60.2515Q70.4365-60.2515 71.392-59.3577Q72.3475-58.4639 72.3475-56.401L72.3475-14.0091Q72.3475-11.972 71.392-11.0653Q70.4365-10.1587 68.5086-10.1587ZM47.1458-17.6291Q53.9351-17.6291 57.9129-21.0413Q61.8907-24.4535 61.8907-30.3041Q61.8907-35.2933 58.82-38.2735Q55.7493-41.2537 50.6509-41.2537Q48.1579-41.2537 46.0841-40.3504Q44.0102-39.4471 43.1571-37.9422L42.603-37.9422L43.0601-43.9056L55.7232-43.9056Q57.8908-43.9056 59.121-44.9737Q60.3513-46.0419 60.3513-47.9225Q60.3513-49.8405 59.1583-50.8713Q57.9654-51.9022 55.7232-51.9022L39.9375-51.9022Q37.4648-51.9022 35.9226-50.4176Q34.3805-48.9331 34.234-46.5438L33.6305-37.281Q33.484-34.493 34.9699-33.0284Q36.4558-31.5639 39.4935-31.5639Q41.0126-31.5639 42.0092-31.8684Q43.0058-32.1729 43.865-32.6645Q44.7241-33.1073 45.4813-33.3918Q46.2384-33.6762 47.2095-33.6762Q48.8594-33.6762 49.8409-32.6659Q50.8225-31.6555 50.8225-29.9826Q50.8225-28.347 49.6972-27.259Q48.5719-26.171 46.8501-26.171Q45.3359-26.171 44.3241-26.7243Q43.3124-27.2777 42.462-28.0771Q41.7641-28.6806 40.8021-29.1129Q39.8401-29.5453 38.1663-29.5453Q35.9527-29.5453 34.6994-28.4283Q33.4461-27.3113 33.4461-25.4449Q33.4461-24.3191 33.897-23.2707Q35.0058-20.6883 38.4394-19.1587Q41.873-17.6291 47.1458-17.6291Z"/>
  </g>
  <g id="Bold-S" transform="matrix(1 0 0 1 2293.36 696)">
   <path d="M23.6084 1.66016L69.6289 1.66016Q76.3428 1.66016 79.9072-1.89209Q83.4717-5.44434 83.4717-12.1094L83.4717-58.3008Q83.4717-64.9658 79.9072-68.5181Q76.3428-72.0703 69.6289-72.0703L23.6084-72.0703Q16.9189-72.0703 13.3423-68.5181Q9.76562-64.9658 9.76562-58.3008L9.76562-12.1094Q9.76562-5.44434 13.3423-1.89209Q16.9189 1.66016 23.6084 1.66016ZM24.7803-8.95996Q22.6318-8.95996 21.4966-10.0342Q20.3613-11.1084 20.3613-13.4033L20.3613-57.0068Q20.3613-59.3018 21.4966-60.376Q22.6318-61.4502 24.7803-61.4502L68.457-61.4502Q70.6299-61.4502 71.7529-60.376Q72.876-59.3018 72.876-57.0068L72.876-13.4033Q72.876-11.1084 71.7529-10.0342Q70.6299-8.95996 68.457-8.95996ZM46.4111-17.3584Q52.9297-17.3584 56.8237-20.7642Q60.7178-24.1699 60.7178-29.9561Q60.7178-35.0098 57.5439-38.0737Q54.3701-41.1377 49.1943-41.1377Q46.7529-41.1377 44.6533-40.2344Q42.5537-39.3311 41.6748-37.8906L41.2109-37.8906L41.7969-45.1172L55.2979-45.1172Q57.1045-45.1172 58.1543-46.0693Q59.2041-47.0215 59.2041-48.6572Q59.2041-50.3174 58.1787-51.2451Q57.1533-52.1729 55.2979-52.1729L39.5508-52.1729Q37.207-52.1729 35.7422-50.8301Q34.2773-49.4873 34.1309-47.2656L33.3984-37.0361Q33.252-34.5703 34.5703-33.2153Q35.8887-31.8604 38.501-31.8604Q39.917-31.8604 40.8813-32.1777Q41.8457-32.4951 42.8467-33.1543Q43.8477-33.7646 44.7144-34.0942Q45.5811-34.4238 46.6553-34.4238Q48.7305-34.4238 49.9634-33.1299Q51.1963-31.8359 51.1963-29.7119Q51.1963-27.6123 49.7681-26.2085Q48.3398-24.8047 46.167-24.8047Q44.4336-24.8047 43.1641-25.5127Q41.8945-26.2207 40.9668-27.3682Q40.3076-28.1006 39.4165-28.5522Q38.5254-29.0039 37.1094-29.0039Q35.2051-29.0039 34.1064-28.0029Q33.0078-27.002 33.0078-25.3418Q33.0078-24.2676 33.4717-23.1934Q34.6191-20.5078 37.9883-18.9331Q41.3574-17.3584 46.4111-17.3584Z"/>
  </g>
  <g id="Semibold-S" transform="matrix(1 0 0 1 1997.11 696)">
   <path d="M23.1019 1.19805L69.2023 1.19805Q75.7474 1.19805 79.143-2.18091Q82.5386-5.55986 82.5386-12.0383L82.5386-58.3719Q82.5386-64.8503 79.143-68.2292Q75.7474-71.6082 69.2023-71.6082L23.1019-71.6082Q16.5901-71.6082 13.1779-68.2292Q9.76562-64.8503 9.76562-58.3719L9.76562-12.0383Q9.76562-5.55986 13.1779-2.18091Q16.5901 1.19805 23.1019 1.19805ZM23.8827-8.1335Q21.5565-8.1335 20.3102-9.32324Q19.0639-10.513 19.0639-12.9856L19.0639-57.4245Q19.0639-59.8794 20.3102-61.078Q21.5565-62.2767 23.8827-62.2767L68.4215-62.2767Q70.7632-62.2767 72.0018-61.078Q73.2403-59.8794 73.2403-57.4245L73.2403-12.9856Q73.2403-10.513 72.0018-9.32324Q70.7632-8.1335 68.4215-8.1335ZM45.9046-17.1718Q52.2365-17.1718 56.0728-20.5731Q59.9091-23.9744 59.9091-29.7161Q59.9091-34.8143 56.6642-37.936Q53.4192-41.0577 48.1901-41.0577Q45.7843-41.0577 43.6669-40.1544Q41.5495-39.2511 40.6528-37.8551L40.2512-37.8551L40.926-45.9525L55.0046-45.9525Q56.5624-45.9525 57.4878-46.8247Q58.4132-47.6969 58.4132-49.1638Q58.4132-50.6462 57.5033-51.5028Q56.5935-52.3595 55.0046-52.3595L39.2842-52.3595Q37.0293-52.3595 35.6178-51.1145Q34.2062-49.8694 34.0598-47.7633L33.2385-36.8673Q33.092-34.6236 34.2948-33.3442Q35.4977-32.0647 37.8167-32.0647Q39.1616-32.0647 40.1038-32.391Q41.0459-32.7173 42.1446-33.492Q43.2434-34.2179 44.1856-34.5786Q45.1278-34.9393 46.2731-34.9393Q48.6416-34.9393 50.0478-33.4498Q51.454-31.9604 51.454-29.5253Q51.454-27.1058 49.8169-25.4842Q48.1799-23.8627 45.696-23.8627Q43.8115-23.8627 42.3643-24.6773Q40.917-25.492 39.9359-26.8794Q39.3034-27.7007 38.4612-28.1657Q37.6189-28.6307 36.3807-28.6307Q34.6896-28.6307 33.6977-27.7097Q32.7057-26.7887 32.7057-25.2707Q32.7057-24.232 33.1784-23.14Q34.3525-20.3834 37.6772-18.7776Q41.002-17.1718 45.9046-17.1718Z"/>
  </g>
  <g id="Medium-S" transform="matrix(1 0 0 1 1700.76 696)">
   <path d="M22.7178 0.847656L68.8789 0.847656Q75.2959 0.847656 78.5635-2.3999Q81.8311-5.64746 81.8311-11.9844L81.8311-58.4258Q81.8311-64.7627 78.5635-68.0103Q75.2959-71.2578 68.8789-71.2578L22.7178-71.2578Q16.3408-71.2578 13.0532-68.0103Q9.76562-64.7627 9.76562-58.4258L9.76562-11.9844Q9.76562-5.64746 13.0532-2.3999Q16.3408 0.847656 22.7178 0.847656ZM23.2021-7.50684Q20.7412-7.50684 19.4106-8.78418Q18.0801-10.0615 18.0801-12.6689L18.0801-57.7412Q18.0801-60.3174 19.4106-61.6104Q20.7412-62.9033 23.2021-62.9033L68.3945-62.9033Q70.8643-62.9033 72.1904-61.6104Q73.5166-60.3174 73.5166-57.7412L73.5166-12.6689Q73.5166-10.0615 72.1904-8.78418Q70.8643-7.50684 68.3945-7.50684ZM45.5205-17.0303Q51.7109-17.0303 55.5034-20.4282Q59.2959-23.8262 59.2959-29.5342Q59.2959-34.666 55.9971-37.8315Q52.6982-40.9971 47.4287-40.9971Q45.0498-40.9971 42.9189-40.0938Q40.7881-39.1904 39.8779-37.8281L39.5234-37.8281L40.2656-46.5859L54.7822-46.5859Q56.1514-46.5859 56.9824-47.3975Q57.8135-48.209 57.8135-49.5479Q57.8135-50.8955 56.9912-51.6982Q56.1689-52.501 54.7822-52.501L39.082-52.501Q36.8945-52.501 35.5234-51.3301Q34.1523-50.1592 34.0059-48.1406L33.1172-36.7393Q32.9707-34.6641 34.0859-33.4419Q35.2012-32.2197 37.2979-32.2197Q38.5889-32.2197 39.5142-32.5527Q40.4395-32.8857 41.6123-33.748Q42.7852-34.5615 43.7847-34.9458Q44.7842-35.3301 45.9834-35.3301Q48.5742-35.3301 50.1118-33.6924Q51.6494-32.0547 51.6494-29.3838Q51.6494-26.7217 49.854-24.9351Q48.0586-23.1484 45.3389-23.1484Q43.3398-23.1484 41.7578-24.0439Q40.1758-24.9395 39.1543-26.5088Q38.542-27.3975 37.7368-27.8726Q36.9316-28.3477 35.8281-28.3477Q34.2988-28.3477 33.3877-27.4873Q32.4766-26.627 32.4766-25.2168Q32.4766-24.2051 32.9561-23.0996Q34.1504-20.2891 37.4414-18.6597Q40.7324-17.0303 45.5205-17.0303Z"/>
  </g>
  <g id="Regular-S" transform="matrix(1 0 0 1 1404.51 696)">
   <path d="M22.2168 0.390625L68.457 0.390625Q74.707 0.390625 77.8076-2.68555Q80.9082-5.76172 80.9082-11.9141L80.9082-58.4961Q80.9082-64.6484 77.8076-67.7246Q74.707-70.8008 68.457-70.8008L22.2168-70.8008Q16.0156-70.8008 12.8906-67.7246Q9.76562-64.6484 9.76562-58.4961L9.76562-11.9141Q9.76562-5.76172 12.8906-2.68555Q16.0156 0.390625 22.2168 0.390625ZM22.3145-6.68945Q19.6777-6.68945 18.2373-8.08105Q16.7969-9.47266 16.7969-12.2559L16.7969-58.1543Q16.7969-60.8887 18.2373-62.3047Q19.6777-63.7207 22.3145-63.7207L68.3594-63.7207Q70.9961-63.7207 72.4365-62.3047Q73.877-60.8887 73.877-58.1543L73.877-12.2559Q73.877-9.47266 72.4365-8.08105Q70.9961-6.68945 68.3594-6.68945ZM45.0195-16.8457Q51.0254-16.8457 54.7607-20.2393Q58.4961-23.6328 58.4961-29.2969Q58.4961-34.4727 55.127-37.6953Q51.7578-40.918 46.4355-40.918Q44.0918-40.918 41.9434-40.0146Q39.7949-39.1113 38.8672-37.793L38.5742-37.793L39.4043-47.4121L54.4922-47.4121Q55.6152-47.4121 56.3232-48.1445Q57.0312-48.877 57.0312-50.0488Q57.0312-51.2207 56.3232-51.9531Q55.6152-52.6855 54.4922-52.6855L38.8184-52.6855Q36.7188-52.6855 35.4004-51.6113Q34.082-50.5371 33.9355-48.6328L32.959-36.5723Q32.8125-34.7168 33.8135-33.5693Q34.8145-32.4219 36.6211-32.4219Q37.8418-32.4219 38.7451-32.7637Q39.6484-33.1055 40.918-34.082Q42.1875-35.0098 43.2617-35.4248Q44.3359-35.8398 45.6055-35.8398Q48.4863-35.8398 50.1953-34.0088Q51.9043-32.1777 51.9043-29.1992Q51.9043-26.2207 49.9023-24.2188Q47.9004-22.2168 44.873-22.2168Q42.7246-22.2168 40.9668-23.2178Q39.209-24.2188 38.1348-26.0254Q37.5488-27.002 36.792-27.4902Q36.0352-27.9785 35.1074-27.9785Q33.7891-27.9785 32.9834-27.1973Q32.1777-26.416 32.1777-25.1465Q32.1777-24.1699 32.666-23.0469Q33.8867-20.166 37.1338-18.5059Q40.3809-16.8457 45.0195-16.8457Z"/>
  </g>
  <g id="Light-S" transform="matrix(1 0 0 1 1108.45 696)">
   <path d="M21.403-0.260417L67.9525-0.260417Q73.763-0.260417 76.6764-3.17383Q79.5898-6.08724 79.5898-11.8001L79.5898-58.5938Q79.5898-64.3066 76.6764-67.2119Q73.763-70.1172 67.9525-70.1172L21.403-70.1172Q15.625-70.1172 12.6953-67.2201Q9.76562-64.3229 9.76562-58.5938L9.76562-11.8001Q9.76562-6.05469 12.6953-3.15755Q15.625-0.260417 21.403-0.260417ZM21.5007-5.71289Q18.4408-5.71289 16.8132-7.30794Q15.1855-8.90299 15.1855-12.0605L15.1855-58.3171Q15.1855-61.4421 16.8132-63.0534Q18.4408-64.6647 21.5007-64.6647L67.8548-64.6647Q70.8822-64.6647 72.526-63.0534Q74.1699-61.4421 74.1699-58.3171L74.1699-12.0605Q74.1699-8.90299 72.526-7.30794Q70.8822-5.71289 67.8548-5.71289ZM44.4173-17.1712Q50.1628-17.1712 53.7109-20.4753Q57.2591-23.7793 57.2591-29.248Q57.2591-34.2773 53.9958-37.443Q50.7324-40.6087 45.6055-40.6087Q43.2454-40.6087 41.0645-39.6484Q38.8835-38.6882 37.793-37.1908L37.5163-37.1908L38.4603-48.2747L53.8737-48.2747Q54.7689-48.2747 55.3385-48.8688Q55.9082-49.4629 55.9082-50.3743Q55.9082-51.3184 55.3385-51.9124Q54.7689-52.5065 53.8737-52.5065L37.9232-52.5065Q36.2793-52.5065 35.262-51.652Q34.2448-50.7975 34.1146-49.2676L33.0404-35.9701Q32.9264-34.5215 33.7077-33.6263Q34.4889-32.7311 35.9212-32.7311Q36.8815-32.7311 37.5732-32.9997Q38.265-33.2682 39.209-34.0495Q40.7064-35.3841 42.0329-35.9619Q43.3594-36.5397 44.987-36.5397Q48.1934-36.5397 50.1546-34.4971Q52.1159-32.4544 52.1159-29.1667Q52.1159-25.8789 49.9186-23.6735Q47.7214-21.4681 44.4173-21.4681Q41.8945-21.4681 39.9089-22.6644Q37.9232-23.8607 36.9954-25.8952Q36.556-26.6927 35.9619-27.0996Q35.3678-27.5065 34.6029-27.5065Q33.5775-27.5065 32.9427-26.8962Q32.3079-26.2858 32.3079-25.2767Q32.3079-24.5443 32.6823-23.6491Q33.7402-20.7194 36.8408-18.9453Q39.9414-17.1712 44.4173-17.1712Z"/>
  </g>
  <g id="Thin-S" transform="matrix(1 0 0 1 812.615 696)">
   <path d="M20.3267-1.12147L67.2852-1.12147Q72.5145-1.12147 75.1803-3.81962Q77.8462-6.51777 77.8462-11.6494L77.8462-58.7229Q77.8462-63.8546 75.1803-66.5338Q72.5145-69.2131 67.2852-69.2131L20.3267-69.2131Q15.1084-69.2131 12.437-66.5527Q9.76562-63.8924 9.76562-58.7229L9.76562-11.6494Q9.76562-6.44216 12.437-3.78182Q15.1084-1.12147 20.3267-1.12147ZM20.4243-4.42131Q16.8048-4.42131 14.9296-6.28544Q13.0544-8.14957 13.0544-11.8022L13.0544-58.5323Q13.0544-62.174 14.9296-64.0436Q16.8048-65.9132 20.4243-65.9132L67.1875-65.9132Q70.7315-65.9132 72.6444-64.0436Q74.5574-62.174 74.5574-58.5323L74.5574-11.8022Q74.5574-8.14957 72.6444-6.28544Q70.7315-4.42131 67.1875-4.42131ZM43.6208-17.6018Q49.0219-17.6018 52.3225-20.7874Q55.6231-23.973 55.6231-29.1835Q55.6231-34.019 52.4997-37.1094Q49.3763-40.1997 44.5076-40.1997Q42.1261-40.1997 39.902-39.1641Q37.678-38.1285 36.3722-36.3943L36.1171-36.3943L37.2118-49.4156L53.0557-49.4156Q53.6495-49.4156 54.0362-49.8267Q54.4229-50.2378 54.4229-50.8049Q54.4229-51.4475 54.0362-51.8586Q53.6495-52.2697 53.0557-52.2697L36.7392-52.2697Q35.6981-52.2697 35.0791-51.7058Q34.4601-51.1419 34.3514-50.1071L33.148-35.1736Q33.0771-34.2632 33.5678-33.7016Q34.0584-33.1401 34.9956-33.1401Q35.6115-33.1401 36.0233-33.3118Q36.4352-33.4835 36.9487-34.0064Q38.7475-35.8792 40.4076-36.6723Q42.0678-37.4653 44.169-37.4653Q47.8059-37.4653 50.1008-35.1429Q52.3957-32.8204 52.3957-29.1236Q52.3957-25.4269 49.9401-22.9524Q47.4846-20.4779 43.8146-20.4779Q40.7967-20.4779 38.5096-21.9325Q36.2226-23.3871 35.4886-25.723Q35.2429-26.2837 34.8641-26.583Q34.4853-26.8822 33.9355-26.8822Q33.2976-26.8822 32.8889-26.4979Q32.4802-26.1136 32.4802-25.4489Q32.4802-25.0394 32.7038-24.4456Q33.5465-21.4513 36.4533-19.5265Q39.3602-17.6018 43.6208-17.6018Z"/>
  </g>
  <g id="Ultralight-S" transform="matrix(1 0 0 1 516.35 696)">
   <path d="M19.7754-1.5625L66.9434-1.5625Q71.875-1.5625 74.4141-4.15039Q76.9531-6.73828 76.9531-11.5723L76.9531-58.7891Q76.9531-63.623 74.4141-66.1865Q71.875-68.75 66.9434-68.75L19.7754-68.75Q14.8438-68.75 12.3047-66.2109Q9.76562-63.6719 9.76562-58.7891L9.76562-11.5723Q9.76562-6.64062 12.3047-4.10156Q14.8438-1.5625 19.7754-1.5625ZM19.873-3.75977Q15.9668-3.75977 13.9648-5.76172Q11.9629-7.76367 11.9629-11.6699L11.9629-58.6426Q11.9629-62.5488 13.9648-64.5508Q15.9668-66.5527 19.873-66.5527L66.8457-66.5527Q70.6543-66.5527 72.7051-64.5508Q74.7559-62.5488 74.7559-58.6426L74.7559-11.6699Q74.7559-7.76367 72.7051-5.76172Q70.6543-3.75977 66.8457-3.75977ZM43.2129-17.8223Q48.4375-17.8223 51.6113-20.9473Q54.7852-24.0723 54.7852-29.1504Q54.7852-33.8867 51.7334-36.9385Q48.6816-39.9902 43.9453-39.9902Q41.5527-39.9902 39.3066-38.916Q37.0605-37.8418 35.6445-35.9863L35.4004-35.9863L36.5723-50L52.6367-50Q53.0762-50 53.3691-50.3174Q53.6621-50.6348 53.6621-51.0254Q53.6621-51.5137 53.3691-51.8311Q53.0762-52.1484 52.6367-52.1484L36.1328-52.1484Q35.4004-52.1484 34.9854-51.7334Q34.5703-51.3184 34.4727-50.5371L33.2031-34.7656Q33.1543-34.1309 33.4961-33.7402Q33.8379-33.3496 34.5215-33.3496Q34.9609-33.3496 35.2295-33.4717Q35.498-33.5938 35.791-33.9844Q37.7441-36.1328 39.5752-37.0361Q41.4062-37.9395 43.75-37.9395Q47.6074-37.9395 50.0732-35.4736Q52.5391-33.0078 52.5391-29.1016Q52.5391-25.1953 49.9512-22.583Q47.3633-19.9707 43.5059-19.9707Q40.2344-19.9707 37.793-21.5576Q35.3516-23.1445 34.7168-25.6348Q34.5703-26.0742 34.3018-26.3184Q34.0332-26.5625 33.5938-26.5625Q33.1543-26.5625 32.8613-26.2939Q32.5684-26.0254 32.5684-25.5371Q32.5684-25.293 32.7148-24.8535Q33.4473-21.8262 36.2549-19.8242Q39.0625-17.8223 43.2129-17.8223Z"/>
  </g>
 </g>
</svg>
