<?xml version="1.0" encoding="UTF-8"?>
<!--Generator: Apple Native CoreSVG 175-->
<!DOCTYPE svg
PUBLIC "-//W3C//DTD SVG 1.1//EN"
       "http://www.w3.org/Graphics/SVG/1.1/DTD/svg11.dtd">
<svg version="1.1" xmlns="http://www.w3.org/2000/svg" xmlns:xlink="http://www.w3.org/1999/xlink" width="3300" height="2200">
 <!--glyph: "uni1009E7.medium", point size: 100.0, font version: "17.1d1e1", template writer version: "65.1"-->
 <g id="Notes">
  <rect height="2200" id="artboard" style="fill:white;opacity:1" width="3300" x="0" y="0"/>
  <line style="fill:none;stroke:black;opacity:1;stroke-width:0.5;" x1="263" x2="3036" y1="292" y2="292"/>
  <text style="stroke:none;fill:black;font-family:sans-serif;font-size:13;font-weight:bold;" transform="matrix(1 0 0 1 263 322)">Weight/Scale Variations</text>
  <text style="stroke:none;fill:black;font-family:sans-serif;font-size:13;text-anchor:middle;" transform="matrix(1 0 0 1 559.711 322)">Ultralight</text>
  <text style="stroke:none;fill:black;font-family:sans-serif;font-size:13;text-anchor:middle;" transform="matrix(1 0 0 1 856.422 322)">Thin</text>
  <text style="stroke:none;fill:black;font-family:sans-serif;font-size:13;text-anchor:middle;" transform="matrix(1 0 0 1 1153.13 322)">Light</text>
  <text style="stroke:none;fill:black;font-family:sans-serif;font-size:13;text-anchor:middle;" transform="matrix(1 0 0 1 1449.84 322)">Regular</text>
  <text style="stroke:none;fill:black;font-family:sans-serif;font-size:13;text-anchor:middle;" transform="matrix(1 0 0 1 1746.56 322)">Medium</text>
  <text style="stroke:none;fill:black;font-family:sans-serif;font-size:13;text-anchor:middle;" transform="matrix(1 0 0 1 2043.27 322)">Semibold</text>
  <text style="stroke:none;fill:black;font-family:sans-serif;font-size:13;text-anchor:middle;" transform="matrix(1 0 0 1 2339.98 322)">Bold</text>
  <text style="stroke:none;fill:black;font-family:sans-serif;font-size:13;text-anchor:middle;" transform="matrix(1 0 0 1 2636.69 322)">Heavy</text>
  <text style="stroke:none;fill:black;font-family:sans-serif;font-size:13;text-anchor:middle;" transform="matrix(1 0 0 1 2933.4 322)">Black</text>
  <line style="fill:none;stroke:black;opacity:1;stroke-width:0.5;" x1="263" x2="3036" y1="1903" y2="1903"/>
  <g transform="matrix(1 0 0 1 263 1933)">
   <path d="M9.24805 0.830078Q10.8691 0.830078 12.2949 0.214844Q13.7207-0.400391 14.8096-1.49414Q15.8984-2.58789 16.5186-4.01367Q17.1387-5.43945 17.1387-7.05078Q17.1387-8.66211 16.5186-10.0879Q15.8984-11.5137 14.8047-12.6074Q13.7109-13.7012 12.2852-14.3164Q10.8594-14.9316 9.23828-14.9316Q7.62695-14.9316 6.20117-14.3164Q4.77539-13.7012 3.69141-12.6074Q2.60742-11.5137 1.9873-10.0879Q1.36719-8.66211 1.36719-7.05078Q1.36719-5.43945 1.9873-4.01367Q2.60742-2.58789 3.69629-1.49414Q4.78516-0.400391 6.21094 0.214844Q7.63672 0.830078 9.24805 0.830078ZM9.24805-0.654297Q7.91992-0.654297 6.7627-1.14746Q5.60547-1.64062 4.73145-2.51953Q3.85742-3.39844 3.36426-4.56055Q2.87109-5.72266 2.87109-7.05078Q2.87109-8.37891 3.35938-9.54102Q3.84766-10.7031 4.72168-11.582Q5.5957-12.4609 6.75293-12.9541Q7.91016-13.4473 9.23828-13.4473Q10.5762-13.4473 11.7334-12.9541Q12.8906-12.4609 13.7695-11.582Q14.6484-10.7031 15.1465-9.54102Q15.6445-8.37891 15.6445-7.05078Q15.6445-5.72266 15.1514-4.56055Q14.6582-3.39844 13.7842-2.51953Q12.9102-1.64062 11.748-1.14746Q10.5859-0.654297 9.24805-0.654297ZM5.6543-7.05078Q5.6543-6.72852 5.85938-6.52832Q6.06445-6.32812 6.40625-6.32812L8.51562-6.32812L8.51562-4.20898Q8.51562-3.88672 8.71094-3.67676Q8.90625-3.4668 9.23828-3.4668Q9.56055-3.4668 9.77051-3.67676Q9.98047-3.88672 9.98047-4.20898L9.98047-6.32812L12.0898-6.32812Q12.4219-6.32812 12.627-6.52832Q12.832-6.72852 12.832-7.05078Q12.832-7.38281 12.627-7.58789Q12.4219-7.79297 12.0898-7.79297L9.98047-7.79297L9.98047-9.90234Q9.98047-10.2344 9.77051-10.4443Q9.56055-10.6543 9.23828-10.6543Q8.90625-10.6543 8.71094-10.4443Q8.51562-10.2344 8.51562-9.90234L8.51562-7.79297L6.40625-7.79297Q6.06445-7.79297 5.85938-7.58789Q5.6543-7.38281 5.6543-7.05078Z"/>
  </g>
  <g transform="matrix(1 0 0 1 281.867 1933)">
   <path d="M11.709 2.91016Q13.75 2.91016 15.5518 2.12891Q17.3535 1.34766 18.7305-0.0292969Q20.1074-1.40625 20.8887-3.20801Q21.6699-5.00977 21.6699-7.05078Q21.6699-9.0918 20.8887-10.8936Q20.1074-12.6953 18.7305-14.0723Q17.3535-15.4492 15.5469-16.2305Q13.7402-17.0117 11.6992-17.0117Q9.6582-17.0117 7.85645-16.2305Q6.05469-15.4492 4.68262-14.0723Q3.31055-12.6953 2.5293-10.8936Q1.74805-9.0918 1.74805-7.05078Q1.74805-5.00977 2.5293-3.20801Q3.31055-1.40625 4.6875-0.0292969Q6.06445 1.34766 7.86621 2.12891Q9.66797 2.91016 11.709 2.91016ZM11.709 1.25Q9.98047 1.25 8.47656 0.605469Q6.97266-0.0390625 5.83496-1.17676Q4.69727-2.31445 4.05762-3.81836Q3.41797-5.32227 3.41797-7.05078Q3.41797-8.7793 4.05762-10.2832Q4.69727-11.7871 5.83008-12.9297Q6.96289-14.0723 8.4668-14.7119Q9.9707-15.3516 11.6992-15.3516Q13.4277-15.3516 14.9316-14.7119Q16.4355-14.0723 17.5781-12.9297Q18.7207-11.7871 19.3652-10.2832Q20.0098-8.7793 20.0098-7.05078Q20.0098-5.32227 19.3701-3.81836Q18.7305-2.31445 17.5928-1.17676Q16.4551-0.0390625 14.9463 0.605469Q13.4375 1.25 11.709 1.25ZM7.17773-7.05078Q7.17773-6.69922 7.41211-6.47461Q7.64648-6.25 8.01758-6.25L10.8887-6.25L10.8887-3.36914Q10.8887-2.99805 11.1133-2.76855Q11.3379-2.53906 11.6895-2.53906Q12.0605-2.53906 12.29-2.76855Q12.5195-2.99805 12.5195-3.36914L12.5195-6.25L15.4004-6.25Q15.7715-6.25 16.001-6.47461Q16.2305-6.69922 16.2305-7.05078Q16.2305-7.42188 16.001-7.65137Q15.7715-7.88086 15.4004-7.88086L12.5195-7.88086L12.5195-10.752Q12.5195-11.1328 12.29-11.3623Q12.0605-11.5918 11.6895-11.5918Q11.3379-11.5918 11.1133-11.3574Q10.8887-11.123 10.8887-10.752L10.8887-7.88086L8.01758-7.88086Q7.63672-7.88086 7.40723-7.65137Q7.17773-7.42188 7.17773-7.05078Z"/>
  </g>
  <g transform="matrix(1 0 0 1 305.646 1933)">
   <path d="M14.9707 5.66406Q17.0605 5.66406 18.96 5.01465Q20.8594 4.36523 22.4512 3.19336Q24.043 2.02148 25.2197 0.429688Q26.3965-1.16211 27.0459-3.06641Q27.6953-4.9707 27.6953-7.05078Q27.6953-9.14062 27.0459-11.04Q26.3965-12.9395 25.2197-14.5312Q24.043-16.123 22.4512-17.2998Q20.8594-18.4766 18.9551-19.126Q17.0508-19.7754 14.9609-19.7754Q12.8711-19.7754 10.9717-19.126Q9.07227-18.4766 7.48535-17.2998Q5.89844-16.123 4.72168-14.5312Q3.54492-12.9395 2.90039-11.04Q2.25586-9.14062 2.25586-7.05078Q2.25586-4.9707 2.90527-3.06641Q3.55469-1.16211 4.72656 0.429688Q5.89844 2.02148 7.49023 3.19336Q9.08203 4.36523 10.9814 5.01465Q12.8809 5.66406 14.9707 5.66406ZM14.9707 3.84766Q13.1641 3.84766 11.5283 3.2959Q9.89258 2.74414 8.53516 1.74805Q7.17773 0.751953 6.17676-0.610352Q5.17578-1.97266 4.62891-3.6084Q4.08203-5.24414 4.08203-7.05078Q4.08203-8.86719 4.62891-10.5029Q5.17578-12.1387 6.17188-13.501Q7.16797-14.8633 8.52539-15.8594Q9.88281-16.8555 11.5186-17.4023Q13.1543-17.9492 14.9609-17.9492Q16.7773-17.9492 18.4131-17.4023Q20.0488-16.8555 21.4111-15.8594Q22.7734-14.8633 23.7695-13.501Q24.7656-12.1387 25.3174-10.5029Q25.8691-8.86719 25.8691-7.05078Q25.8789-5.24414 25.332-3.6084Q24.7852-1.97266 23.7842-0.610352Q22.7832 0.751953 21.4209 1.74805Q20.0586 2.74414 18.4229 3.2959Q16.7871 3.84766 14.9707 3.84766ZM9.19922-7.05078Q9.19922-6.66992 9.45801-6.4209Q9.7168-6.17188 10.1172-6.17188L14.0625-6.17188L14.0625-2.2168Q14.0625-1.81641 14.3115-1.55762Q14.5605-1.29883 14.9512-1.29883Q15.3516-1.29883 15.6104-1.55273Q15.8691-1.80664 15.8691-2.2168L15.8691-6.17188L19.8242-6.17188Q20.2246-6.17188 20.4785-6.4209Q20.7324-6.66992 20.7324-7.05078Q20.7324-7.46094 20.4785-7.71484Q20.2246-7.96875 19.8242-7.96875L15.8691-7.96875L15.8691-11.9141Q15.8691-12.3242 15.6104-12.583Q15.3516-12.8418 14.9512-12.8418Q14.5605-12.8418 14.3115-12.583Q14.0625-12.3242 14.0625-11.9141L14.0625-7.96875L10.1172-7.96875Q9.70703-7.96875 9.45312-7.71484Q9.19922-7.46094 9.19922-7.05078Z"/>
  </g>
  <text style="stroke:none;fill:black;font-family:sans-serif;font-size:13;font-weight:bold;" transform="matrix(1 0 0 1 263 1953)">Design Variations</text>
  <text style="stroke:none;fill:black;font-family:sans-serif;font-size:13;" transform="matrix(1 0 0 1 263 1971)">Symbols are supported in up to nine weights and three scales.</text>
  <text style="stroke:none;fill:black;font-family:sans-serif;font-size:13;" transform="matrix(1 0 0 1 263 1989)">For optimal layout with text and other symbols, vertically align</text>
  <text style="stroke:none;fill:black;font-family:sans-serif;font-size:13;" transform="matrix(1 0 0 1 263 2007)">symbols with the adjacent text.</text>
  <line style="fill:none;stroke:#00AEEF;stroke-width:0.5;opacity:1.0;" x1="776" x2="776" y1="1919" y2="1933"/>
  <g transform="matrix(1 0 0 1 776 1933)">
   <path d="M3.31055 0.15625Q3.70117 0.15625 3.91602-0.00976562Q4.13086-0.175781 4.26758-0.585938L5.52734-4.0332L11.2891-4.0332L12.5488-0.585938Q12.6855-0.175781 12.9004-0.00976562Q13.1152 0.15625 13.4961 0.15625Q13.8867 0.15625 14.1162-0.0585938Q14.3457-0.273438 14.3457-0.644531Q14.3457-0.869141 14.2383-1.17188L9.6582-13.3691Q9.48242-13.8184 9.17969-14.043Q8.87695-14.2676 8.4082-14.2676Q7.5-14.2676 7.17773-13.3789L2.59766-1.16211Q2.49023-0.859375 2.49023-0.634766Q2.49023-0.263672 2.70996-0.0537109Q2.92969 0.15625 3.31055 0.15625ZM6.00586-5.51758L8.37891-12.0898L8.42773-12.0898L10.8008-5.51758Z"/>
  </g>
  <line style="fill:none;stroke:#00AEEF;stroke-width:0.5;opacity:1.0;" x1="793.197" x2="793.197" y1="1919" y2="1933"/>
  <text style="stroke:none;fill:black;font-family:sans-serif;font-size:13;font-weight:bold;" transform="matrix(1 0 0 1 776 1953)">Margins</text>
  <text style="stroke:none;fill:black;font-family:sans-serif;font-size:13;" transform="matrix(1 0 0 1 776 1971)">Leading and trailing margins on the left and right side of each symbol</text>
  <text style="stroke:none;fill:black;font-family:sans-serif;font-size:13;" transform="matrix(1 0 0 1 776 1989)">can be adjusted by modifying the x-location of the margin guidelines.</text>
  <text style="stroke:none;fill:black;font-family:sans-serif;font-size:13;" transform="matrix(1 0 0 1 776 2007)">Modifications are automatically applied proportionally to all</text>
  <text style="stroke:none;fill:black;font-family:sans-serif;font-size:13;" transform="matrix(1 0 0 1 776 2025)">scales and weights.</text>
  <g transform="matrix(1 0 0 1 1289 1933)">
   <path d="M2.8418 1.86523L4.54102 3.57422Q5.18555 4.22852 5.90332 4.17969Q6.62109 4.13086 7.31445 3.35938L18.0078-8.42773L17.041-9.4043L6.42578 2.27539Q6.16211 2.57812 5.89355 2.61719Q5.625 2.65625 5.27344 2.30469L4.10156 1.14258Q3.75 0.791016 3.79395 0.522461Q3.83789 0.253906 4.14062-0.0195312L15.6152-10.8203L14.6387-11.7871L3.04688-0.898438Q2.30469-0.214844 2.25098 0.498047Q2.19727 1.21094 2.8418 1.86523ZM9.25781-16.3281Q8.94531-16.0254 8.90625-15.6348Q8.86719-15.2441 9.04297-14.9512Q9.21875-14.6777 9.55566-14.541Q9.89258-14.4043 10.3809-14.5215Q11.4746-14.7754 12.5977-14.7314Q13.7207-14.6875 14.7949-13.9844L14.209-12.5293Q13.9551-11.9043 14.0674-11.4404Q14.1797-10.9766 14.5801-10.5664L16.875-8.25195Q17.2363-7.88086 17.5781-7.82227Q17.9199-7.76367 18.3398-7.8418L19.4043-8.03711L20.0684-7.36328L20.0293-6.80664Q20-6.43555 20.1221-6.12305Q20.2441-5.81055 20.6055-5.44922L21.3672-4.70703Q21.7285-4.3457 22.1533-4.33105Q22.5781-4.31641 22.9297-4.66797L25.8398-7.58789Q26.1914-7.93945 26.1816-8.35449Q26.1719-8.76953 25.8105-9.13086L25.0391-9.89258Q24.6875-10.2539 24.3799-10.3857Q24.0723-10.5176 23.7109-10.4883L23.1348-10.4395L22.4902-11.0742L22.7344-12.1973Q22.832-12.6172 22.6953-12.9834Q22.5586-13.3496 22.1191-13.7891L19.9219-15.9766Q18.6719-17.2168 17.2607-17.8369Q15.8496-18.457 14.4189-18.4814Q12.9883-18.5059 11.665-17.959Q10.3418-17.4121 9.25781-16.3281ZM10.752-15.957Q11.6602-16.6211 12.7002-16.9043Q13.7402-17.1875 14.8047-17.085Q15.8691-16.9824 16.8701-16.5137Q17.8711-16.0449 18.7012-15.2051L21.1328-12.793Q21.3086-12.6172 21.3525-12.4512Q21.3965-12.2852 21.3379-12.0312L21.0156-10.5469L22.5195-9.0625L23.5059-9.12109Q23.6914-9.13086 23.7891-9.09668Q23.8867-9.0625 24.0332-8.91602L24.6094-8.33984L22.168-5.89844L21.5918-6.47461Q21.4453-6.62109 21.4062-6.71875Q21.3672-6.81641 21.377-7.01172L21.4453-7.98828L19.9512-9.47266L18.4277-9.21875Q18.1836-9.16992 18.042-9.2041Q17.9004-9.23828 17.7148-9.41406L15.7129-11.416Q15.5176-11.5918 15.4932-11.7529Q15.4688-11.9141 15.5859-12.1875L16.4648-14.2773Q15.293-15.3711 13.8281-15.791Q12.3633-16.2109 10.8398-15.7617Q10.7227-15.7324 10.6885-15.8057Q10.6543-15.8789 10.752-15.957Z"/>
  </g>
  <text style="stroke:none;fill:black;font-family:sans-serif;font-size:13;font-weight:bold;" transform="matrix(1 0 0 1 1289 1953)">Exporting</text>
  <text style="stroke:none;fill:black;font-family:sans-serif;font-size:13;" transform="matrix(1 0 0 1 1289 1971)">Symbols should be outlined when exporting to ensure the</text>
  <text style="stroke:none;fill:black;font-family:sans-serif;font-size:13;" transform="matrix(1 0 0 1 1289 1989)">design is preserved when submitting to Xcode.</text>
  <text id="template-version" style="stroke:none;fill:black;font-family:sans-serif;font-size:13;text-anchor:end;" transform="matrix(1 0 0 1 3036 1933)">Template v.3.0</text>
  <text style="stroke:none;fill:black;font-family:sans-serif;font-size:13;text-anchor:end;" transform="matrix(1 0 0 1 3036 1951)">Requires Xcode 13 or greater</text>
  <text id="descriptive-name" style="stroke:none;fill:black;font-family:sans-serif;font-size:13;text-anchor:end;" transform="matrix(1 0 0 1 3036 1969)">Generated from die.face.3</text>
  <text style="stroke:none;fill:black;font-family:sans-serif;font-size:13;text-anchor:end;" transform="matrix(1 0 0 1 3036 1987)">Typeset at 100 points</text>
  <text style="stroke:none;fill:black;font-family:sans-serif;font-size:13;" transform="matrix(1 0 0 1 263 726)">Small</text>
  <text style="stroke:none;fill:black;font-family:sans-serif;font-size:13;" transform="matrix(1 0 0 1 263 1156)">Medium</text>
  <text style="stroke:none;fill:black;font-family:sans-serif;font-size:13;" transform="matrix(1 0 0 1 263 1586)">Large</text>
 </g>
 <g id="Guides">
  <g id="H-reference" style="fill:#27AAE1;stroke:none;" transform="matrix(1 0 0 1 339 696)">
   <path d="M0.993347 0L3.6377 0L29.3282-67.1326L30.0301-67.1326L30.0301-70.459L28.1227-70.459ZM11.6882-24.4797L46.9818-24.4797L46.2311-26.7288L12.4382-26.7288ZM55.1193 0L57.7637 0L30.6381-70.459L29.4327-70.459L29.4327-67.1326Z"/>
  </g>
  <line id="Baseline-S" style="fill:none;stroke:#27AAE1;opacity:1;stroke-width:0.5;" x1="263" x2="3036" y1="696" y2="696"/>
  <line id="Capline-S" style="fill:none;stroke:#27AAE1;opacity:1;stroke-width:0.5;" x1="263" x2="3036" y1="625.541" y2="625.541"/>
  <g id="H-reference" style="fill:#27AAE1;stroke:none;" transform="matrix(1 0 0 1 339 1126)">
   <path d="M0.993347 0L3.6377 0L29.3282-67.1326L30.0301-67.1326L30.0301-70.459L28.1227-70.459ZM11.6882-24.4797L46.9818-24.4797L46.2311-26.7288L12.4382-26.7288ZM55.1193 0L57.7637 0L30.6381-70.459L29.4327-70.459L29.4327-67.1326Z"/>
  </g>
  <line id="Baseline-M" style="fill:none;stroke:#27AAE1;opacity:1;stroke-width:0.5;" x1="263" x2="3036" y1="1126" y2="1126"/>
  <line id="Capline-M" style="fill:none;stroke:#27AAE1;opacity:1;stroke-width:0.5;" x1="263" x2="3036" y1="1055.54" y2="1055.54"/>
  <g id="H-reference" style="fill:#27AAE1;stroke:none;" transform="matrix(1 0 0 1 339 1556)">
   <path d="M0.993347 0L3.6377 0L29.3282-67.1326L30.0301-67.1326L30.0301-70.459L28.1227-70.459ZM11.6882-24.4797L46.9818-24.4797L46.2311-26.7288L12.4382-26.7288ZM55.1193 0L57.7637 0L30.6381-70.459L29.4327-70.459L29.4327-67.1326Z"/>
  </g>
  <line id="Baseline-L" style="fill:none;stroke:#27AAE1;opacity:1;stroke-width:0.5;" x1="263" x2="3036" y1="1556" y2="1556"/>
  <line id="Capline-L" style="fill:none;stroke:#27AAE1;opacity:1;stroke-width:0.5;" x1="263" x2="3036" y1="1485.54" y2="1485.54"/>
  <line id="left-margin-Regular-M" style="fill:none;stroke:#00AEEF;stroke-width:0.5;opacity:1.0;" x1="1392.45" x2="1392.45" y1="1030.79" y2="1150.12"/>
  <line id="right-margin-Regular-M" style="fill:none;stroke:#00AEEF;stroke-width:0.5;opacity:1.0;" x1="1507.24" x2="1507.24" y1="1030.79" y2="1150.12"/>
 </g>
 <g id="Symbols">
  <g id="Black-L" transform="matrix(1 0 0 1 2855.72 1556)">
   <path d="M39.8559 26.4225L115.512 26.4225Q126.881 26.4225 133.083 20.23Q139.284 14.0375 139.284 2.71277L139.284-73.0901Q139.284-84.4148 133.083-90.6066Q126.881-96.7985 115.512-96.7985L39.8559-96.7985Q28.5079-96.7985 22.2959-90.6073Q16.084-84.4161 16.084-73.0901L16.084 2.71277Q16.084 14.0401 22.2959 20.2313Q28.5079 26.4225 39.8559 26.4225ZM42.5866 6.42133Q39.3787 6.42133 37.7216 4.87256Q36.0645 3.3238 36.0645-0.121591L36.0645-70.2544Q36.0645-73.7375 37.7216-75.2674Q39.3787-76.7973 42.5866-76.7973L112.782-76.7973Q116.045-76.7973 117.675-75.2674Q119.304-73.7375 119.304-70.2544L119.304-0.121591Q119.304 3.3238 117.675 4.87256Q116.045 6.42133 112.782 6.42133ZM102.157-49.6456Q106.236-49.5652 109.21-52.54Q112.184-55.5149 112.184-59.6759Q112.184-63.8369 109.239-66.7599Q106.294-69.6829 102.157-69.6829Q98.0175-69.6829 95.0725-66.7599Q92.1275-63.8369 92.1275-59.6759Q92.1275-55.5733 95.0725-52.6496Q98.0175-49.726 102.157-49.6456ZM77.7335-25.159Q81.8128-25.159 84.7578-28.1338Q87.7028-31.1087 87.7028-35.2697Q87.7028-39.349 84.7578-42.2441Q81.8128-45.1392 77.7335-45.1392Q73.5932-45.1392 70.6592-42.2441Q67.7252-39.349 67.7252-35.2697Q67.7252-31.0503 70.63-28.1046Q73.5348-25.159 77.7335-25.159ZM53.2118-0.619119Q57.2924-0.619119 60.2257-3.58232Q63.1591-6.54552 63.1591-10.7065Q63.1591-14.8079 60.2257-17.7322Q57.2924-20.6564 53.2118-20.6564Q49.0728-20.6564 46.1381-17.7322Q43.2035-14.8079 43.2035-10.7065Q43.2035-6.48712 46.1381-3.55312Q49.0728-0.619119 53.2118-0.619119Z"/>
  </g>
  <g id="Heavy-L" transform="matrix(1 0 0 1 2559.92 1556)">
   <path d="M38.8328 25.5158L114.704 25.5158Q125.682 25.5158 131.567 19.6396Q137.452 13.7633 137.452 2.85629L137.452-73.2288Q137.452-84.1358 131.567-90.0091Q125.682-95.8823 114.704-95.8823L38.8328-95.8823Q27.8839-95.8823 21.984-90.0121Q16.084-84.1419 16.084-73.2288L16.084 2.85629Q16.084 13.7754 21.984 19.6456Q27.8839 25.5158 38.8328 25.5158ZM40.957 7.98818Q37.3499 7.98818 35.4659 6.20086Q33.5818 4.41354 33.5818 0.583243L33.5818-70.9497Q33.5818-74.7949 35.4659-76.5748Q37.3499-78.3547 40.957-78.3547L112.579-78.3547Q116.219-78.3547 118.087-76.5748Q119.954-74.7949 119.954-70.9497L119.954 0.583243Q119.954 4.41354 118.087 6.20086Q116.219 7.98818 112.579 7.98818ZM102.202-50.586Q106.294-50.5056 109.277-53.4914Q112.259-56.4772 112.259-60.6558Q112.259-64.8344 109.299-67.7591Q106.338-70.6838 102.202-70.6838Q98.0589-70.6838 95.0984-67.7591Q92.1379-64.8344 92.1379-60.6558Q92.1379-56.5218 95.0984-53.5941Q98.0589-50.6664 102.202-50.586ZM76.8039-25.1195Q80.8961-25.1195 83.8566-28.1053Q86.817-31.0911 86.817-35.2697Q86.817-39.3619 83.8566-42.2703Q80.8961-45.1787 76.8039-45.1787Q72.6551-45.1787 69.7125-42.2703Q66.7699-39.3619 66.7699-35.2697Q66.7699-31.0464 69.6902-28.083Q72.6104-25.1195 76.8039-25.1195ZM51.3346 0.367533Q55.4328 0.367533 58.3724-2.59735Q61.3119-5.56223 61.3119-9.74086Q61.3119-13.8688 58.3724-16.7995Q55.4328-19.7302 51.3346-19.7302Q47.1918-19.7302 44.2462-16.7995Q41.3006-13.8688 41.3006-9.74086Q41.3006-5.51761 44.2462-2.57504Q47.1918 0.367533 51.3346 0.367533Z"/>
  </g>
  <g id="Bold-L" transform="matrix(1 0 0 1 2264.35 1556)">
   <path d="M37.5443 24.3864L113.709 24.3864Q124.174 24.3864 129.672 18.8927Q135.17 13.3991 135.17 3.03698L135.17-73.4013Q135.17-83.7634 129.672-89.2499Q124.174-94.7365 113.709-94.7365L37.5443-94.7365Q27.1168-94.7365 21.6004-89.257Q16.084-83.7776 16.084-73.4013L16.084 3.03698Q16.084 13.4275 21.6004 18.9069Q27.1168 24.3864 37.5443 24.3864ZM38.9901 9.91361Q34.8616 9.91361 32.6907 7.82346Q30.5198 5.73331 30.5198 1.40624L30.5198-71.7564Q30.5198-76.0756 32.6907-78.1697Q34.8616-80.2637 38.9901-80.2637L112.264-80.2637Q116.393-80.2637 118.564-78.1697Q120.734-76.0756 120.734-71.7564L120.734 1.40624Q120.734 5.73331 118.564 7.82346Q116.393 9.91361 112.264 9.91361ZM102.238-51.7819Q106.327-51.7015 109.308-54.6895Q112.289-57.6774 112.289-61.8614Q112.289-66.0453 109.323-68.9603Q106.356-71.8754 102.238-71.8754Q98.1051-71.8754 95.1389-68.9603Q92.1726-66.0453 92.1726-61.8614Q92.1726-57.7066 95.1389-54.7845Q98.1051-51.8623 102.238-51.7819ZM75.6518-25.1098Q79.7411-25.1098 82.7074-28.0978Q85.6736-31.0858 85.6736-35.2697Q85.6736-39.359 82.7074-42.2737Q79.7411-45.1883 75.6518-45.1883Q71.5049-45.1883 68.5643-42.2737Q65.6236-39.359 65.6236-35.2697Q65.6236-31.0566 68.5497-28.0832Q71.4757-25.1098 75.6518-25.1098ZM49.016 1.53456Q53.1195 1.53456 56.053-1.42068Q58.9866-4.37593 58.9866-8.55987Q58.9866-12.7004 56.053-15.6296Q53.1195-18.5589 49.016-18.5589Q44.8833-18.5589 41.9355-15.6296Q38.9878-12.7004 38.9878-8.55987Q38.9878-4.34673 41.9355-1.40608Q44.8833 1.53456 49.016 1.53456Z"/>
  </g>
  <g id="Semibold-L" transform="matrix(1 0 0 1 1968.43 1556)">
   <path d="M36.6561 23.6077L113.024 23.6077Q123.134 23.6077 128.365 18.3778Q133.596 13.1479 133.596 3.16154L133.596-73.5202Q133.596-83.5066 128.365-88.7266Q123.134-93.9466 113.024-93.9466L36.6561-93.9466Q26.588-93.9466 21.336-88.7365Q16.084-83.5265 16.084-73.5202L16.084 3.16154Q16.084 13.1877 21.336 18.3977Q26.588 23.6077 36.6561 23.6077ZM37.6342 11.241Q33.1463 11.241 30.7775 8.94207Q28.4088 6.64315 28.4088 1.97361L28.4088-72.3124Q28.4088-76.9586 30.7775-79.2692Q33.1463-81.5798 37.6342-81.5798L112.046-81.5798Q116.513-81.5798 118.892-79.2692Q121.272-76.9586 121.272-72.3124L121.272 1.97361Q121.272 6.64315 118.892 8.94207Q116.513 11.241 112.046 11.241ZM102.263-52.6064Q106.35-52.526 109.33-55.5154Q112.309-58.5049 112.309-62.6925Q112.309-66.8801 109.339-69.7885Q106.369-72.6969 102.263-72.6969Q98.137-72.6969 95.1668-69.7885Q92.1965-66.8801 92.1965-62.6925Q92.1965-58.5235 95.1668-55.6051Q98.137-52.6868 102.263-52.6064ZM74.8576-25.1032Q78.9449-25.1032 81.9152-28.0926Q84.8854-31.0821 84.8854-35.2697Q84.8854-39.357 81.9152-42.276Q78.9449-45.195 74.8576-45.195Q70.712-45.195 67.7727-42.276Q64.8334-39.357 64.8334-35.2697Q64.8334-31.0635 67.7634-28.0834Q70.6934-25.1032 74.8576-25.1032ZM47.4176 2.33911Q51.5247 2.33911 54.4541-0.609499Q57.3835-3.55811 57.3835-7.7457Q57.3835-11.8948 54.4541-14.8231Q51.5247-17.7514 47.4176-17.7514Q43.2918-17.7514 40.3426-14.8231Q37.3933-11.8948 37.3933-7.7457Q37.3933-3.53953 40.3426-0.600212Q43.2918 2.33911 47.4176 2.33911Z"/>
  </g>
  <g id="Medium-L" transform="matrix(1 0 0 1 1672.31 1556)">
   <path d="M35.9826 23.0174L112.505 23.0174Q122.346 23.0174 127.375 17.9874Q132.403 12.9575 132.403 3.25599L132.403-73.6104Q132.403-83.3119 127.375-88.3298Q122.346-93.3476 112.505-93.3476L35.9826-93.3476Q26.187-93.3476 21.1355-88.3419Q16.084-83.3361 16.084-73.6104L16.084 3.25599Q16.084 13.0058 21.1355 18.0116Q26.187 23.0174 35.9826 23.0174ZM36.606 12.2475Q31.8456 12.2475 29.3269 9.79025Q26.8081 7.33303 26.8081 2.40381L26.8081-72.7341Q26.8081-77.628 29.3269-80.1029Q31.8456-82.5777 36.606-82.5777L111.881-82.5777Q116.604-82.5777 119.141-80.1029Q121.679-77.628 121.679-72.7341L121.679 2.40381Q121.679 7.33303 119.141 9.79025Q116.604 12.2475 111.881 12.2475ZM102.282-53.2315Q106.367-53.1511 109.346-56.1417Q112.324-59.1323 112.324-63.3227Q112.324-67.513 109.351-70.4164Q106.378-73.3198 102.282-73.3198Q98.1612-73.3198 95.1879-70.4164Q92.2146-67.513 92.2146-63.3227Q92.2146-59.1428 95.1879-56.2274Q98.1612-53.3119 102.282-53.2315ZM74.2554-25.0981Q78.3412-25.0981 81.3144-28.0887Q84.2877-31.0793 84.2877-35.2697Q84.2877-39.3555 81.3144-42.2778Q78.3412-45.2 74.2554-45.2Q70.1108-45.2 67.1725-42.2778Q64.2341-39.3555 64.2341-35.2697Q64.2341-31.0688 67.1672-28.0835Q70.1003-25.0981 74.2554-25.0981ZM46.2056 2.94915Q50.3155 2.94915 53.2417 0.00557579Q56.168-2.938 56.168-7.12836Q56.168-11.2841 53.2417-14.2116Q50.3155-17.1391 46.2056-17.1391Q42.0851-17.1391 39.1347-14.2116Q36.1843-11.2841 36.1843-7.12836Q36.1843-2.92748 39.1347 0.0108324Q42.0851 2.94915 46.2056 2.94915Z"/>
  </g>
  <g id="Regular-L" transform="matrix(1 0 0 1 1376.38 1556)">
   <path d="M35.1041 22.2473L111.827 22.2473Q121.318 22.2473 126.082 17.4782Q130.847 12.7092 130.847 3.37919L130.847-73.728Q130.847-83.058 126.082-87.8122Q121.318-92.5664 111.827-92.5664L35.1041-92.5664Q25.664-92.5664 20.874-87.8271Q16.084-83.0877 16.084-73.728L16.084 3.37919Q16.084 12.7686 20.874 17.508Q25.664 22.2473 35.1041 22.2473ZM35.265 13.5603Q30.1491 13.5603 27.4347 10.8966Q24.7203 8.23287 24.7203 2.96494L24.7203-73.284Q24.7203-78.5013 27.4347-81.1903Q30.1491-83.8794 35.265-83.8794L111.666-83.8794Q116.722-83.8794 119.467-81.1903Q122.211-78.5013 122.211-73.284L122.211 2.96494Q122.211 8.23287 119.467 10.8966Q116.722 13.5603 111.666 13.5603ZM102.306-54.0469Q106.39-53.9665 109.367-56.9586Q112.345-59.9507 112.345-64.1446Q112.345-68.3386 109.367-71.2354Q106.39-74.1322 102.306-74.1322Q98.1927-74.1322 95.2155-71.2354Q92.2383-68.3386 92.2383-64.1446Q92.2383-59.9507 95.2155-57.039Q98.1927-54.1273 102.306-54.0469ZM73.4699-25.0916Q77.5537-25.0916 80.5309-28.0836Q83.5081-31.0757 83.5081-35.2697Q83.5081-39.3535 80.5309-42.2801Q77.5537-45.2066 73.4699-45.2066Q69.3266-45.2066 66.3896-42.2801Q63.4526-39.3535 63.4526-35.2697Q63.4526-31.0757 66.3896-28.0836Q69.3266-25.0916 73.4699-25.0916ZM44.6247 3.74485Q48.7382 3.74485 51.6604 0.807847Q54.5825-2.12916 54.5825-6.32314Q54.5825-10.4874 51.6604-13.4139Q48.7382-16.3404 44.6247-16.3404Q40.5111-16.3404 37.5592-13.4139Q34.6074-10.4874 34.6074-6.32314Q34.6074-2.12916 37.5592 0.807847Q40.5111 3.74485 44.6247 3.74485Z"/>
  </g>
  <g id="Light-L" transform="matrix(1 0 0 1 1080.5 1556)">
   <path d="M34.078 21.4264L111.191 21.4264Q120.127 21.4264 124.656 16.8626Q129.185 12.2987 129.185 3.52284L129.185-73.8511Q129.185-82.627 124.656-87.1657Q120.127-91.7045 111.191-91.7045L34.078-91.7045Q25.1715-91.7045 20.6277-87.1909Q16.084-82.6773 16.084-73.8511L16.084 3.52284Q16.084 12.3992 20.6277 16.9128Q25.1715 21.4264 34.078 21.4264ZM34.2389 14.7916Q28.5894 14.7916 25.639 11.8714Q22.6887 8.95114 22.6887 3.21121L22.6887-73.4893Q22.6887-79.199 25.639-82.1343Q28.5894-85.0696 34.2389-85.0696L111.03-85.0696Q116.579-85.0696 119.579-82.1343Q122.58-79.199 122.58-73.4893L122.58 3.21121Q122.58 8.95114 119.579 11.8714Q116.579 14.7916 111.03 14.7916ZM102.204-55.073Q106.164-54.9926 109.059-57.9128Q111.955-60.8331 111.955-64.9245Q111.955-69.0158 109.059-71.8306Q106.164-74.6453 102.204-74.6453Q98.1927-74.6453 95.2976-71.8306Q92.4025-69.0158 92.4025-64.9245Q92.4025-60.8331 95.2976-57.9933Q98.1927-55.1534 102.204-55.073ZM72.6695-25.3378Q76.6302-25.3378 79.5253-28.2581Q82.4205-31.1783 82.4205-35.2697Q82.4205-39.2304 79.5253-42.0954Q76.6302-44.9603 72.6695-44.9603Q68.6083-44.9603 65.7534-42.0954Q62.8985-39.2304 62.8985-35.2697Q62.8985-31.1783 65.7534-28.2581Q68.6083-25.3378 72.6695-25.3378ZM43.065 4.19633Q47.076 4.19633 49.9058 1.34142Q52.7355-1.5135 52.7355-5.60487Q52.7355-9.64598 49.9058-12.5109Q47.076-15.3759 43.065-15.3759Q39.0541-15.3759 36.174-12.5109Q33.294-9.64598 33.294-5.60487Q33.294-1.5135 36.174 1.34142Q39.0541 4.19633 43.065 4.19633Z"/>
  </g>
  <g id="Thin-L" transform="matrix(1 0 0 1 784.884 1556)">
   <path d="M32.7209 20.3407L110.349 20.3407Q118.553 20.3407 122.77 16.0483Q126.986 11.7559 126.986 3.71284L126.986-74.014Q126.986-82.057 122.77-86.3108Q118.553-90.5645 110.349-90.5645L32.7209-90.5645Q24.5201-90.5645 20.302-86.3495Q16.084-82.1344 16.084-74.014L16.084 3.71284Q16.084 11.9107 20.302 16.1257Q24.5201 20.3407 32.7209 20.3407ZM32.8818 16.4201Q26.5266 16.4201 23.2641 13.1606Q20.0016 9.9011 20.0016 3.53691L20.0016-73.7607Q20.0016-80.1218 23.2641-83.3829Q26.5266-86.6439 32.8818-86.6439L110.188-86.6439Q116.389-86.6439 119.729-83.3829Q123.069-80.1218 123.069-73.7607L123.069 3.53691Q123.069 9.9011 119.729 13.1606Q116.389 16.4201 110.188 16.4201ZM102.068-56.4301Q105.866-56.3497 108.652-59.1749Q111.439-62.0002 111.439-65.9559Q111.439-69.9115 108.652-72.6177Q105.866-75.3238 102.068-75.3238Q98.1927-75.3238 95.4062-72.6177Q92.6196-69.9115 92.6196-65.9559Q92.6196-62.0002 95.4062-59.2554Q98.1927-56.5105 102.068-56.4301ZM71.611-25.6635Q75.4088-25.6635 78.1954-28.4888Q80.9819-31.314 80.9819-35.2697Q80.9819-39.0675 78.1954-41.8511Q75.4088-44.6346 71.611-44.6346Q67.6583-44.6346 64.912-41.8511Q62.1656-39.0675 62.1656-35.2697Q62.1656-31.314 64.912-28.4888Q67.6583-25.6635 71.611-25.6635ZM41.0022 4.79346Q44.8775 4.79346 47.5851 2.04711Q50.2928-0.699238 50.2928-4.6549Q50.2928-8.53316 47.5851-11.3167Q44.8775-14.1002 41.0022-14.1002Q37.127-14.1002 34.3419-11.3167Q31.5569-8.53316 31.5569-4.6549Q31.5569-0.699238 34.3419 2.04711Q37.127 4.79346 41.0022 4.79346Z"/>
  </g>
  <g id="Ultralight-L" transform="matrix(1 0 0 1 488.735 1556)">
   <path d="M32.0258 19.7847L109.918 19.7847Q117.747 19.7847 121.803 15.6313Q125.86 11.4778 125.86 3.81015L125.86-74.0974Q125.86-81.7651 121.803-85.8729Q117.747-89.9806 109.918-89.9806L32.0258-89.9806Q24.1864-89.9806 20.1352-85.9185Q16.084-81.8564 16.084-74.0974L16.084 3.81015Q16.084 11.6604 20.1352 15.7226Q24.1864 19.7847 32.0258 19.7847ZM32.1867 17.2542Q25.4701 17.2542 22.0477 13.8209Q18.6253 10.3877 18.6253 3.70373L18.6253-73.8997Q18.6253-80.5945 22.0477-84.0223Q25.4701-87.4502 32.1867-87.4502L109.757-87.4502Q116.291-87.4502 119.805-84.0223Q123.319-80.5945 123.319-73.8997L123.319 3.70373Q123.319 10.3877 119.805 13.8209Q116.291 17.2542 109.757 17.2542ZM101.998-57.1252Q105.713-57.0448 108.444-59.8214Q111.175-62.598 111.175-66.4841Q111.175-70.3703 108.444-73.0208Q105.713-75.6714 101.998-75.6714Q98.1927-75.6714 95.4618-73.0208Q92.7308-70.3703 92.7308-66.4841Q92.7308-62.598 95.4618-59.9018Q98.1927-57.2056 101.998-57.1252ZM71.0688-25.8303Q74.7832-25.8303 77.5142-28.6069Q80.2451-31.3835 80.2451-35.2697Q80.2451-38.9841 77.5142-41.726Q74.7832-44.4678 71.0688-44.4678Q67.1718-44.4678 64.481-41.726Q61.7903-38.9841 61.7903-35.2697Q61.7903-31.3835 64.481-28.6069Q67.1718-25.8303 71.0688-25.8303ZM39.9457 5.0993Q43.7514 5.0993 46.3965 2.40856Q49.0416-0.282179 49.0416-4.16833Q49.0416-7.96318 46.3965-10.705Q43.7514-13.4468 39.9457-13.4468Q36.1399-13.4468 33.4035-10.705Q30.6672-7.96318 30.6672-4.16833Q30.6672-0.282179 33.4035 2.40856Q36.1399 5.0993 39.9457 5.0993Z"/>
  </g>
  <g id="Black-M" transform="matrix(1 0 0 1 2872.54 1126)">
   <path d="M31.6183 13.203L90.1012 13.203Q99.1693 13.203 104.214 8.16134Q109.259 3.11973 109.259-5.93791L109.259-64.4591Q109.259-73.5167 104.214-78.5585Q99.1693-83.6003 90.1012-83.6003L31.6183-83.6003Q22.5558-83.6003 17.5084-78.5583Q12.4609-73.5164 12.4609-64.4591L12.4609-5.93791Q12.4609 3.11912 17.5084 8.16104Q22.5558 13.203 31.6183 13.203ZM34.2552-4.14063Q32.0406-4.14063 30.9198-5.17025Q29.799-6.19988 29.799-8.60232L29.799-61.795Q29.799-64.249 30.9198-65.2528Q32.0406-66.2567 34.2552-66.2567L87.4644-66.2567Q89.7367-66.2567 90.8286-65.2528Q91.9206-64.249 91.9206-61.795L91.9206-8.60232Q91.9206-6.19988 90.8286-5.17025Q89.7367-4.14063 87.4644-4.14063ZM79.0922-45.729Q82.2249-45.6667 84.5107-47.9523Q86.7964-50.2379 86.7964-53.4326Q86.7964-56.6273 84.5392-58.8793Q82.282-61.1313 79.0922-61.1313Q75.9027-61.1313 73.6455-58.8793Q71.3883-56.6273 71.3883-53.4326Q71.3883-50.295 73.6455-48.0432Q75.9027-45.7913 79.0922-45.729ZM60.9138-27.4948Q64.0465-27.4948 66.3037-29.7804Q68.5609-32.066 68.5609-35.2606Q68.5609-38.3933 66.3037-40.6165Q64.0465-42.8396 60.9138-42.8396Q57.7247-42.8396 55.47-40.6165Q53.2154-38.3933 53.2154-35.2606Q53.2154-32.0089 55.4415-29.7518Q57.6676-27.4948 60.9138-27.4948ZM42.6274-9.20217Q45.7597-9.20217 48.0145-11.4853Q50.2693-13.7685 50.2693-16.9632Q50.2693-20.1011 48.0145-22.3527Q45.7597-24.6044 42.6274-24.6044Q39.4379-24.6044 37.1834-22.3527Q34.929-20.1011 34.929-16.9632Q34.929-13.7114 37.1834-11.4568Q39.4379-9.20217 42.6274-9.20217Z"/>
  </g>
  <g id="Heavy-M" transform="matrix(1 0 0 1 2576.65 1126)">
   <path d="M30.7128 12.3923L89.3692 12.3923Q98.107 12.3923 102.864 7.64094Q107.621 2.88957 107.621-5.81086L107.621-64.5834Q107.621-73.2838 102.864-78.0339Q98.107-82.7841 89.3692-82.7841L30.7128-82.7841Q21.9913-82.7841 17.2261-78.0352Q12.4609-73.2862 12.4609-64.5834L12.4609-5.81086Q12.4609 2.89446 17.2261 7.64338Q21.9913 12.3923 30.7128 12.3923ZM32.7568-2.72252Q30.2012-2.72252 28.8804-3.96168Q27.5595-5.20084 27.5595-7.93601L27.5595-62.4558Q27.5595-65.2183 28.8804-66.4438Q30.2012-67.6693 32.7568-67.6693L87.3253-67.6693Q89.9196-67.6693 91.221-66.4438Q92.5225-65.2183 92.5225-62.4558L92.5225-7.93601Q92.5225-5.20084 91.221-3.96168Q89.9196-2.72252 87.3253-2.72252ZM79.1458-46.5537Q82.3025-46.4914 84.6042-48.7943Q86.9059-51.0973 86.9059-54.3186Q86.9059-57.54 84.626-59.8012Q82.3461-62.0624 79.1458-62.0624Q75.9432-62.0624 73.6633-59.8012Q71.3834-57.54 71.3834-54.3186Q71.3834-51.1409 73.6633-48.8784Q75.9432-46.616 79.1458-46.5537ZM60.079-27.4334Q63.2356-27.4334 65.5155-29.7364Q67.7954-32.0393 67.7954-35.2606Q67.7954-38.4173 65.5155-40.6591Q63.2356-42.901 60.079-42.901Q56.8738-42.901 54.6033-40.6591Q52.3327-38.4173 52.3327-35.2606Q52.3327-31.9957 54.5815-29.7145Q56.8302-27.4334 60.079-27.4334ZM40.9362-8.2793Q44.0953-8.2793 46.3646-10.5717Q48.6339-12.864 48.6339-16.0854Q48.6339-19.2607 46.3646-21.5244Q44.0953-23.788 40.9362-23.788Q37.7335-23.788 35.4617-21.5244Q33.19-19.2607 33.19-16.0854Q33.19-12.8204 35.4617-10.5499Q37.7335-8.2793 40.9362-8.2793Z"/>
  </g>
  <g id="Bold-M" transform="matrix(1 0 0 1 2280.85 1126)">
   <path d="M29.6999 11.4855L88.5504 11.4855Q96.9187 11.4855 101.354 7.05878Q105.789 2.6321 105.789-5.66875L105.789-64.7224Q105.789-73.0233 101.354-77.4472Q96.9187-81.8711 88.5504-81.8711L29.6999-81.8711Q21.3597-81.8711 16.9103-77.4499Q12.4609-73.0288 12.4609-64.7224L12.4609-5.66875Q12.4609 2.64314 16.9103 7.0643Q21.3597 11.4855 29.6999 11.4855ZM31.0806-1.13616Q28.1436-1.13616 26.5989-2.60972Q25.0543-4.08328 25.0543-7.19066L25.0543-63.195Q25.0543-66.3027 26.5989-67.7761Q28.1436-69.2495 31.0806-69.2495L87.1696-69.2495Q90.1241-69.2495 91.66-67.7761Q93.1959-66.3027 93.1959-63.195L93.1959-7.19066Q93.1959-4.08328 91.66-2.60972Q90.1241-1.13616 87.1696-1.13616ZM79.2058-47.4762Q82.3892-47.4139 84.7088-49.7362Q87.0283-52.0585 87.0283-55.3097Q87.0283-58.561 84.723-60.8325Q82.4178-63.104 79.2058-63.104Q75.9884-63.104 73.6831-60.8325Q71.3778-58.561 71.3778-55.3097Q71.3778-52.0871 73.6831-49.8128Q75.9884-47.5385 79.2058-47.4762ZM59.1451-27.3648Q62.3284-27.3648 64.6337-29.6871Q66.939-32.0094 66.939-35.2606Q66.939-38.444 64.6337-40.7068Q62.3284-42.9696 59.1451-42.9696Q55.9221-42.9696 53.6337-40.7068Q51.3453-38.444 51.3453-35.2606Q51.3453-31.9809 53.6194-29.6729Q55.8935-27.3648 59.1451-27.3648ZM39.0444-7.24694Q42.2333-7.24694 44.5189-9.54962Q46.8046-11.8523 46.8046-15.1035Q46.8046-18.3206 44.5189-20.5977Q42.2333-22.8747 39.0444-22.8747Q35.8269-22.8747 33.5358-20.5977Q31.2446-18.3206 31.2446-15.1035Q31.2446-11.8237 33.5358-9.53534Q35.8269-7.24694 39.0444-7.24694Z"/>
  </g>
  <g id="Semibold-M" transform="matrix(1 0 0 1 1984.77 1126)">
   <path d="M29.0015 10.8603L87.9858 10.8603Q96.0995 10.8603 100.313 6.65745Q104.526 2.45461 104.526-5.57077L104.526-64.8183Q104.526-72.8436 100.313-77.0427Q96.0995-81.2417 87.9858-81.2417L29.0015-81.2417Q20.9244-81.2417 16.6926-77.0465Q12.4609-72.8513 12.4609-64.8183L12.4609-5.57077Q12.4609 2.46989 16.6926 6.66509Q20.9244 10.8603 29.0015 10.8603ZM29.925-0.0425279Q26.725-0.0425279 25.0262-1.67768Q23.3273-3.31284 23.3273-6.67681L23.3273-63.7046Q23.3273-67.0502 25.0262-68.6945Q26.725-70.3389 29.925-70.3389L87.0623-70.3389Q90.2652-70.3389 91.9626-68.6945Q93.6601-67.0502 93.6601-63.7046L93.6601-6.67681Q93.6601-3.31284 91.9626-1.67768Q90.2652-0.0425279 87.0623-0.0425279ZM79.2472-48.1122Q82.449-48.0499 84.7809-50.3856Q87.1127-52.7212 87.1127-55.993Q87.1127-59.2648 84.79-61.5434Q82.4672-63.8221 79.2472-63.8221Q76.0196-63.8221 73.6968-61.5434Q71.374-59.2648 71.374-55.993Q71.374-52.7394 73.6968-50.457Q76.0196-48.1745 79.2472-48.1122ZM58.5012-27.3175Q61.7031-27.3175 64.0258-29.6532Q66.3486-31.9889 66.3486-35.2606Q66.3486-38.4625 64.0258-40.7397Q61.7031-43.0169 58.5012-43.0169Q55.2659-43.0169 52.9652-40.7397Q50.6645-38.4625 50.6645-35.2606Q50.6645-31.9707 52.9562-29.6441Q55.2478-27.3175 58.5012-27.3175ZM37.7402-6.53524Q40.9496-6.53524 43.2465-8.84502Q45.5434-11.1548 45.5434-14.4266Q45.5434-17.6726 43.2465-19.9588Q40.9496-22.2451 37.7402-22.2451Q34.5125-22.2451 32.208-19.9588Q29.9035-17.6726 29.9035-14.4266Q29.9035-11.1366 32.208-8.83594Q34.5125-6.53524 37.7402-6.53524Z"/>
  </g>
  <g id="Medium-M" transform="matrix(1 0 0 1 1688.54 1126)">
   <path d="M28.472 10.3863L87.5578 10.3863Q95.4783 10.3863 99.5236 6.35315Q103.569 2.32003 103.569-5.49648L103.569-64.8909Q103.569-72.7075 99.5236-76.736Q95.4783-80.7644 87.5578-80.7644L28.472-80.7644Q20.5942-80.7644 16.5276-76.7406Q12.4609-72.7167 12.4609-64.8909L12.4609-5.49648Q12.4609 2.33852 16.5276 6.36239Q20.5942 10.3863 28.472 10.3863ZM29.0488 0.786706Q25.6495 0.786706 23.8336-0.970977Q22.0177-2.72866 22.0177-6.28719L22.0177-64.091Q22.0177-67.617 23.8336-69.391Q25.6495-71.1649 29.0488-71.1649L86.981-71.1649Q90.3721-71.1649 92.1921-69.391Q94.0121-67.617 94.0121-64.091L94.0121-6.28719Q94.0121-2.72866 92.1921-0.970977Q90.3721 0.786706 86.981 0.786706ZM79.2785-48.5944Q82.4944-48.5321 84.8356-50.8779Q87.1767-53.2237 87.1767-56.5111Q87.1767-59.7985 84.8407-62.0825Q82.5046-64.3665 79.2785-64.3665Q76.0432-64.3665 73.7071-62.0825Q71.3711-59.7985 71.3711-56.5111Q71.3711-53.234 73.7071-50.9454Q76.0432-48.6567 79.2785-48.5944ZM58.013-27.2817Q61.2289-27.2817 63.5649-29.6275Q65.901-31.9733 65.901-35.2606Q65.901-38.4765 63.5649-40.7646Q61.2289-43.0527 58.013-43.0527Q54.7684-43.0527 52.4584-40.7646Q50.1484-38.4765 50.1484-35.2606Q50.1484-31.963 52.4533-29.6223Q54.7582-27.2817 58.013-27.2817ZM36.7513-5.99559Q39.9763-5.99559 42.2817-8.31076Q44.5872-10.6259 44.5872-13.9133Q44.5872-17.1812 42.2817-19.4744Q39.9763-21.7677 36.7513-21.7677Q33.5159-21.7677 31.2013-19.4744Q28.8866-17.1812 28.8866-13.9133Q28.8866-10.6157 31.2013-8.30562Q33.5159-5.99559 36.7513-5.99559Z"/>
  </g>
  <g id="Regular-M" transform="matrix(1 0 0 1 1392.45 1126)">
   <path d="M27.7814 9.76797L86.9995 9.76797Q94.6681 9.76797 98.494 5.95622Q102.32 2.14448 102.32-5.39959L102.32-64.9857Q102.32-72.5298 98.494-76.3359Q94.6681-80.142 86.9995-80.142L27.7814-80.142Q20.1637-80.142 16.3123-76.3416Q12.4609-72.5412 12.4609-64.9857L12.4609-5.39959Q12.4609 2.16717 16.3123 5.96757Q20.1637 9.76797 27.7814 9.76797ZM27.906 1.86832Q24.2465 1.86832 22.2781-0.0491846Q20.3096-1.96668 20.3096-5.77899L20.3096-64.595Q20.3096-68.3563 22.2781-70.2993Q24.2465-72.2423 27.906-72.2423L86.8749-72.2423Q90.5116-72.2423 92.4914-70.2993Q94.4712-68.3563 94.4712-64.595L94.4712-5.77899Q94.4712-1.96668 92.4914-0.0491846Q90.5116 1.86832 86.8749 1.86832ZM79.3194-49.2234Q82.5535-49.1611 84.9069-51.5201Q87.2602-53.8792 87.2602-57.1869Q87.2602-60.4946 84.9069-62.7857Q82.5535-65.0767 79.3194-65.0767Q76.074-65.0767 73.7207-62.7857Q71.3673-60.4946 71.3673-57.1869Q71.3673-53.8792 73.7207-51.5824Q76.074-49.2857 79.3194-49.2234ZM57.3763-27.2349Q60.6104-27.2349 62.9637-29.5939Q65.3171-31.9529 65.3171-35.2606Q65.3171-38.4947 62.9637-40.7971Q60.6104-43.0995 57.3763-43.0995Q54.1195-43.0995 51.7973-40.7971Q49.4751-38.4947 49.4751-35.2606Q49.4751-31.9529 51.7973-29.5939Q54.1195-27.2349 57.3763-27.2349ZM35.4614-5.29171Q38.7068-5.29171 41.0233-7.61391Q43.3399-9.93611 43.3399-13.2438Q43.3399-16.5402 41.0233-18.8426Q38.7068-21.145 35.4614-21.145Q32.216-21.145 29.8881-18.8426Q27.5602-16.5402 27.5602-13.2438Q27.5602-9.93611 29.8881-7.61391Q32.216-5.29171 35.4614-5.29171Z"/>
  </g>
  <g id="Light-M" transform="matrix(1 0 0 1 1096.49 1126)">
   <path d="M26.8614 9.03201L86.4291 9.03201Q93.601 9.03201 97.2153 5.40425Q100.83 1.7765 100.83-5.27079L100.83-65.0961Q100.83-72.1434 97.2153-75.7563Q93.601-79.3692 86.4291-79.3692L26.8614-79.3692Q19.7221-79.3692 16.0915-75.7712Q12.4609-72.1732 12.4609-65.0961L12.4609-5.27079Q12.4609 1.83599 16.0915 5.434Q19.7221 9.03201 26.8614 9.03201ZM26.986 2.97226Q22.8482 2.97226 20.6682 0.824768Q18.4881-1.32272 18.4881-5.55821L18.4881-64.779Q18.4881-68.9819 20.6682-71.1457Q22.8482-73.3094 26.986-73.3094L86.3045-73.3094Q90.3828-73.3094 92.5926-71.1457Q94.8024-68.9819 94.8024-64.779L94.8024-5.55821Q94.8024-1.32272 92.5926 0.824768Q90.3828 2.97226 86.3045 2.97226ZM79.2275-50.1434Q82.3511-50.0811 84.6309-52.3757Q86.9106-54.6703 86.9106-57.886Q86.9106-61.1018 84.6309-63.3192Q82.3511-65.5367 79.2275-65.5367Q76.074-65.5367 73.7943-63.3192Q71.5145-61.1018 71.5145-57.886Q71.5145-54.6703 73.7943-52.438Q76.074-50.2057 79.2275-50.1434ZM56.6587-27.4557Q59.7824-27.4557 62.0622-29.7503Q64.3419-32.0449 64.3419-35.2606Q64.3419-38.3843 62.0622-40.6315Q59.7824-42.8787 56.6587-42.8787Q53.4756-42.8787 51.227-40.6315Q48.9783-38.3843 48.9783-35.2606Q48.9783-32.0449 51.227-29.7503Q53.4756-27.4557 56.6587-27.4557ZM34.0631-4.88693Q37.2165-4.88693 39.4502-7.13554Q41.684-9.38414 41.684-12.5999Q41.684-15.7859 39.4502-18.033Q37.2165-20.2802 34.0631-20.2802Q30.9096-20.2802 28.6462-18.033Q26.3827-15.7859 26.3827-12.5999Q26.3827-9.38414 28.6462-7.13554Q30.9096-4.88693 34.0631-4.88693Z"/>
  </g>
  <g id="Thin-M" transform="matrix(1 0 0 1 800.76 1126)">
   <path d="M25.6447 8.05864L85.6747 8.05864Q92.1896 8.05864 95.5241 4.67423Q98.8585 1.28982 98.8585-5.10045L98.8585-65.2421Q98.8585-71.6324 95.5241-74.9898Q92.1896-78.3472 85.6747-78.3472L25.6447-78.3472Q19.1381-78.3472 15.7995-75.0168Q12.4609-71.6865 12.4609-65.2421L12.4609-5.10045Q12.4609 1.39797 15.7995 4.72831Q19.1381 8.05864 25.6447 8.05864ZM25.7693 4.43231Q20.9988 4.43231 18.5389 1.98064Q16.079-0.471023 16.079-5.2662L16.079-65.0223Q16.079-69.8093 18.5389-72.2651Q20.9988-74.7208 25.7693-74.7208L85.5501-74.7208Q90.2125-74.7208 92.7264-72.2651Q95.2404-69.8093 95.2404-65.0223L95.2404-5.2662Q95.2404-0.471023 92.7264 1.98064Q90.2125 4.43231 85.5501 4.43231ZM79.1058-51.3601Q82.0835-51.2978 84.2659-53.5072Q86.4483-55.7167 86.4483-58.8107Q86.4483-61.9048 84.2659-64.0249Q82.0835-66.145 79.1058-66.145Q76.074-66.145 73.8916-64.0249Q71.7092-61.9048 71.7092-58.8107Q71.7092-55.7167 73.8916-53.5695Q76.074-51.4224 79.1058-51.3601ZM55.7097-27.7477Q58.6874-27.7477 60.8698-29.9571Q63.0522-32.1666 63.0522-35.2606Q63.0522-38.2383 60.8698-40.4125Q58.6874-42.5867 55.7097-42.5867Q52.6239-42.5867 50.4726-40.4125Q48.3213-38.2383 48.3213-35.2606Q48.3213-32.1666 50.4726-29.9571Q52.6239-27.7477 55.7097-27.7477ZM32.2137-4.35158Q35.2454-4.35158 37.3697-6.50285Q39.4939-8.65411 39.4939-11.7482Q39.4939-14.7882 37.3697-16.9623Q35.2454-19.1365 32.2137-19.1365Q29.1819-19.1365 27.0036-16.9623Q24.8253-14.7882 24.8253-11.7482Q24.8253-8.65411 27.0036-6.50285Q29.1819-4.35158 32.2137-4.35158Z"/>
  </g>
  <g id="Ultralight-M" transform="matrix(1 0 0 1 504.553 1126)">
   <path d="M25.0215 7.56009L85.2884 7.56009Q91.4667 7.56009 94.6578 4.30031Q97.8489 1.04054 97.8489-5.01321L97.8489-65.3169Q97.8489-71.3707 94.6578-74.5972Q91.4667-77.8237 85.2884-77.8237L25.0215-77.8237Q18.8389-77.8237 15.6499-74.6305Q12.4609-71.4372 12.4609-65.3169L12.4609-5.01321Q12.4609 1.17363 15.6499 4.36686Q18.8389 7.56009 25.0215 7.56009ZM25.1461 5.18014Q20.0516 5.18014 17.4483 2.57267Q14.8451-0.034789 14.8451-5.11663L14.8451-65.147Q14.8451-70.233 17.4483-72.8384Q20.0516-75.4437 25.1461-75.4437L85.1638-75.4437Q90.1252-75.4437 92.795-72.8384Q95.4648-70.233 95.4648-65.147L95.4648-5.11663Q95.4648-0.034789 92.795 2.57267Q90.1252 5.18014 85.1638 5.18014ZM79.0435-51.9833Q81.9464-51.921 84.0789-54.0868Q86.2115-56.2526 86.2115-59.2844Q86.2115-62.3161 84.0789-64.3864Q81.9464-66.4566 79.0435-66.4566Q76.074-66.4566 73.9415-64.3864Q71.8089-62.3161 71.8089-59.2844Q71.8089-56.2526 73.9415-54.1491Q76.074-52.0456 79.0435-51.9833ZM55.2236-27.8972Q58.1265-27.8972 60.2591-30.0631Q62.3916-32.2289 62.3916-35.2606Q62.3916-38.1635 60.2591-40.3003Q58.1265-42.4371 55.2236-42.4371Q52.1876-42.4371 50.0862-40.3003Q47.9848-38.1635 47.9848-35.2606Q47.9848-32.2289 50.0862-30.0631Q52.1876-27.8972 55.2236-27.8972ZM31.2664-4.07738Q34.2359-4.07738 36.304-6.17879Q38.3721-8.2802 38.3721-11.3119Q38.3721-14.2771 36.304-16.4139Q34.2359-18.5507 31.2664-18.5507Q28.297-18.5507 26.1623-16.4139Q24.0276-14.2771 24.0276-11.3119Q24.0276-8.2802 26.1623-6.17879Q28.297-4.07738 31.2664-4.07738Z"/>
  </g>
  <g id="Black-S" transform="matrix(1 0 0 1 2885.5 696)">
   <path d="M25 2.92969L70.8008 2.92969Q77.9785 2.92969 82.0068-1.09863Q86.0352-5.12695 86.0352-12.3047L86.0352-58.1055Q86.0352-65.2832 82.0068-69.3115Q77.9785-73.3398 70.8008-73.3398L25-73.3398Q17.8223-73.3398 13.7939-69.3115Q9.76562-65.2832 9.76562-58.1055L9.76562-12.3047Q9.76562-5.12695 13.7939-1.09863Q17.8223 2.92969 25 2.92969ZM27.2461-11.2305Q25.5859-11.2305 24.7559-11.9873Q23.9258-12.7441 23.9258-14.5508L23.9258-55.8594Q23.9258-57.7148 24.7559-58.4473Q25.5859-59.1797 27.2461-59.1797L68.5547-59.1797Q70.2637-59.1797 71.0693-58.4473Q71.875-57.7148 71.875-55.8594L71.875-14.5508Q71.875-12.7441 71.0693-11.9873Q70.2637-11.2305 68.5547-11.2305ZM61.9629-43.2617Q64.4043-43.2129 66.1865-44.9951Q67.9688-46.7773 67.9688-49.2676Q67.9688-51.7578 66.2109-53.5156Q64.4531-55.2734 61.9629-55.2734Q59.4727-55.2734 57.7148-53.5156Q55.957-51.7578 55.957-49.2676Q55.957-46.8262 57.7148-45.0684Q59.4727-43.3105 61.9629-43.2617ZM47.9492-29.1992Q50.3906-29.1992 52.1484-30.9814Q53.9062-32.7637 53.9062-35.2539Q53.9062-37.6953 52.1484-39.4287Q50.3906-41.1621 47.9492-41.1621Q45.459-41.1621 43.7012-39.4287Q41.9434-37.6953 41.9434-35.2539Q41.9434-32.7148 43.6768-30.957Q45.4102-29.1992 47.9492-29.1992ZM33.8379-15.0879Q36.2793-15.0879 38.0371-16.8701Q39.7949-18.6523 39.7949-21.1426Q39.7949-23.584 38.0371-25.3418Q36.2793-27.0996 33.8379-27.0996Q31.3477-27.0996 29.5898-25.3418Q27.832-23.584 27.832-21.1426Q27.832-18.6035 29.5898-16.8457Q31.3477-15.0879 33.8379-15.0879Z"/>
  </g>
  <g id="Heavy-S" transform="matrix(1 0 0 1 2589.39 696)">
   <path d="M24.3431 2.33042L70.2476 2.33042Q77.2064 2.33042 81.0157-1.47318Q84.8251-5.27677 84.8251-12.2125L84.8251-58.1977Q84.8251-65.1334 81.0157-68.937Q77.2064-72.7406 70.2476-72.7406L24.3431-72.7406Q17.3959-72.7406 13.5807-68.937Q9.76562-65.1334 9.76562-58.1977L9.76562-12.2125Q9.76562-5.27677 13.5807-1.47318Q17.3959 2.33042 24.3431 2.33042ZM26.0821-10.1587Q24.1915-10.1587 23.2173-11.0653Q22.2432-11.972 22.2432-14.0091L22.2432-56.401Q22.2432-58.4639 23.2173-59.3577Q24.1915-60.2515 26.0821-60.2515L68.5086-60.2515Q70.4365-60.2515 71.392-59.3577Q72.3475-58.4639 72.3475-56.401L72.3475-14.0091Q72.3475-11.972 71.392-11.0653Q70.4365-10.1587 68.5086-10.1587ZM62.0205-43.8495Q64.4965-43.8006 66.3018-45.6059Q68.107-47.4112 68.107-49.936Q68.107-52.4608 66.3204-54.2359Q64.5338-56.011 62.0205-56.011Q59.5072-56.011 57.7206-54.2359Q55.934-52.4608 55.934-49.936Q55.934-47.4485 57.7206-45.6734Q59.5072-43.8983 62.0205-43.8495ZM47.3269-29.1185Q49.8029-29.1185 51.5895-30.9238Q53.3761-32.7291 53.3761-35.2539Q53.3761-37.7299 51.5895-39.4863Q49.8029-41.2428 47.3269-41.2428Q44.8136-41.2428 43.0328-39.4863Q41.2519-37.7299 41.2519-35.2539Q41.2519-32.6918 43.0141-30.9052Q44.7763-29.1185 47.3269-29.1185ZM32.5702-14.3503Q35.0462-14.3503 36.827-16.1498Q38.6079-17.9494 38.6079-20.4742Q38.6079-22.9617 36.827-24.7368Q35.0462-26.5119 32.5702-26.5119Q30.0569-26.5119 28.2761-24.7368Q26.4952-22.9617 26.4952-20.4742Q26.4952-17.912 28.2761-16.1312Q30.0569-14.3503 32.5702-14.3503Z"/>
  </g>
  <g id="Bold-S" transform="matrix(1 0 0 1 2293.36 696)">
   <path d="M23.6084 1.66016L69.6289 1.66016Q76.3428 1.66016 79.9072-1.89209Q83.4717-5.44434 83.4717-12.1094L83.4717-58.3008Q83.4717-64.9658 79.9072-68.5181Q76.3428-72.0703 69.6289-72.0703L23.6084-72.0703Q16.9189-72.0703 13.3423-68.5181Q9.76562-64.9658 9.76562-58.3008L9.76562-12.1094Q9.76562-5.44434 13.3423-1.89209Q16.9189 1.66016 23.6084 1.66016ZM24.7803-8.95996Q22.6318-8.95996 21.4966-10.0342Q20.3613-11.1084 20.3613-13.4033L20.3613-57.0068Q20.3613-59.3018 21.4966-60.376Q22.6318-61.4502 24.7803-61.4502L68.457-61.4502Q70.6299-61.4502 71.7529-60.376Q72.876-59.3018 72.876-57.0068L72.876-13.4033Q72.876-11.1084 71.7529-10.0342Q70.6299-8.95996 68.457-8.95996ZM62.085-44.5068Q64.5996-44.458 66.4307-46.2891Q68.2617-48.1201 68.2617-50.6836Q68.2617-53.2471 66.4429-55.0415Q64.624-56.8359 62.085-56.8359Q59.5459-56.8359 57.7271-55.0415Q55.9082-53.2471 55.9082-50.6836Q55.9082-48.1445 57.7271-46.3501Q59.5459-44.5557 62.085-44.5068ZM46.6309-29.0283Q49.1455-29.0283 50.9644-30.8594Q52.7832-32.6904 52.7832-35.2539Q52.7832-37.7686 50.9644-39.5508Q49.1455-41.333 46.6309-41.333Q44.0918-41.333 42.2852-39.5508Q40.4785-37.7686 40.4785-35.2539Q40.4785-32.666 42.2729-30.8472Q44.0674-29.0283 46.6309-29.0283ZM31.1523-13.5254Q33.667-13.5254 35.4736-15.3442Q37.2803-17.1631 37.2803-19.7266Q37.2803-22.2656 35.4736-24.0601Q33.667-25.8545 31.1523-25.8545Q28.6133-25.8545 26.8066-24.0601Q25-22.2656 25-19.7266Q25-17.1387 26.8066-15.332Q28.6133-13.5254 31.1523-13.5254Z"/>
  </g>
  <g id="Semibold-S" transform="matrix(1 0 0 1 1997.11 696)">
   <path d="M23.1019 1.19805L69.2023 1.19805Q75.7474 1.19805 79.143-2.18091Q82.5386-5.55986 82.5386-12.0383L82.5386-58.3719Q82.5386-64.8503 79.143-68.2292Q75.7474-71.6082 69.2023-71.6082L23.1019-71.6082Q16.5901-71.6082 13.1779-68.2292Q9.76562-64.8503 9.76562-58.3719L9.76562-12.0383Q9.76562-5.55986 13.1779-2.18091Q16.5901 1.19805 23.1019 1.19805ZM23.8827-8.1335Q21.5565-8.1335 20.3102-9.32324Q19.0639-10.513 19.0639-12.9856L19.0639-57.4245Q19.0639-59.8794 20.3102-61.078Q21.5565-62.2767 23.8827-62.2767L68.4215-62.2767Q70.7632-62.2767 72.0018-61.078Q73.2403-59.8794 73.2403-57.4245L73.2403-12.9856Q73.2403-10.513 72.0018-9.32324Q70.7632-8.1335 68.4215-8.1335ZM62.1294-44.9601Q64.6707-44.9112 66.5195-46.7601Q68.3684-48.6089 68.3684-51.199Q68.3684-53.7892 66.5273-55.5969Q64.6862-57.4047 62.1294-57.4047Q59.5726-57.4047 57.7315-55.5969Q55.8904-53.7892 55.8904-51.199Q55.8904-48.6244 57.7315-46.8167Q59.5726-45.0089 62.1294-44.9601ZM46.151-28.9661Q48.6923-28.9661 50.5333-30.8149Q52.3744-32.6638 52.3744-35.2539Q52.3744-37.7952 50.5333-39.5952Q48.6923-41.3952 46.151-41.3952Q43.5941-41.3952 41.7697-39.5952Q39.9453-37.7952 39.9453-35.2539Q39.9453-32.6482 41.762-30.8072Q43.5786-28.9661 46.151-28.9661ZM30.1748-12.9566Q32.7161-12.9566 34.5405-14.7888Q36.3649-16.621 36.3649-19.2111Q36.3649-21.7857 34.5405-23.5935Q32.7161-25.4013 30.1748-25.4013Q27.618-25.4013 25.7936-23.5935Q23.9691-21.7857 23.9691-19.2111Q23.9691-16.6055 25.7936-14.7811Q27.618-12.9566 30.1748-12.9566Z"/>
  </g>
  <g id="Medium-S" transform="matrix(1 0 0 1 1700.76 696)">
   <path d="M22.7178 0.847656L68.8789 0.847656Q75.2959 0.847656 78.5635-2.3999Q81.8311-5.64746 81.8311-11.9844L81.8311-58.4258Q81.8311-64.7627 78.5635-68.0103Q75.2959-71.2578 68.8789-71.2578L22.7178-71.2578Q16.3408-71.2578 13.0532-68.0103Q9.76562-64.7627 9.76562-58.4258L9.76562-11.9844Q9.76562-5.64746 13.0532-2.3999Q16.3408 0.847656 22.7178 0.847656ZM23.2021-7.50684Q20.7412-7.50684 19.4106-8.78418Q18.0801-10.0615 18.0801-12.6689L18.0801-57.7412Q18.0801-60.3174 19.4106-61.6104Q20.7412-62.9033 23.2021-62.9033L68.3945-62.9033Q70.8643-62.9033 72.1904-61.6104Q73.5166-60.3174 73.5166-57.7412L73.5166-12.6689Q73.5166-10.0615 72.1904-8.78418Q70.8643-7.50684 68.3945-7.50684ZM62.1631-45.3037Q64.7246-45.2549 66.5869-47.1172Q68.4492-48.9795 68.4492-51.5898Q68.4492-54.2002 66.5913-56.0181Q64.7334-57.8359 62.1631-57.8359Q59.5928-57.8359 57.7349-56.0181Q55.877-54.2002 55.877-51.5898Q55.877-48.9883 57.7349-47.1704Q59.5928-45.3525 62.1631-45.3037ZM45.7871-28.9189Q48.3486-28.9189 50.2065-30.7812Q52.0645-32.6436 52.0645-35.2539Q52.0645-37.8154 50.2065-39.6289Q48.3486-41.4424 45.7871-41.4424Q43.2168-41.4424 41.3789-39.6289Q39.541-37.8154 39.541-35.2539Q39.541-32.6348 41.3745-30.7769Q43.208-28.9189 45.7871-28.9189ZM29.4336-12.5254Q31.9951-12.5254 33.833-14.3677Q35.6709-16.21 35.6709-18.8203Q35.6709-21.4219 33.833-23.2397Q31.9951-25.0576 29.4336-25.0576Q26.8633-25.0576 25.0254-23.2397Q23.1875-21.4219 23.1875-18.8203Q23.1875-16.2012 25.0254-14.3633Q26.8633-12.5254 29.4336-12.5254Z"/>
  </g>
  <g id="Regular-S" transform="matrix(1 0 0 1 1404.51 696)">
   <path d="M22.2168 0.390625L68.457 0.390625Q74.707 0.390625 77.8076-2.68555Q80.9082-5.76172 80.9082-11.9141L80.9082-58.4961Q80.9082-64.6484 77.8076-67.7246Q74.707-70.8008 68.457-70.8008L22.2168-70.8008Q16.0156-70.8008 12.8906-67.7246Q9.76562-64.6484 9.76562-58.4961L9.76562-11.9141Q9.76562-5.76172 12.8906-2.68555Q16.0156 0.390625 22.2168 0.390625ZM22.3145-6.68945Q19.6777-6.68945 18.2373-8.08105Q16.7969-9.47266 16.7969-12.2559L16.7969-58.1543Q16.7969-60.8887 18.2373-62.3047Q19.6777-63.7207 22.3145-63.7207L68.3594-63.7207Q70.9961-63.7207 72.4365-62.3047Q73.877-60.8887 73.877-58.1543L73.877-12.2559Q73.877-9.47266 72.4365-8.08105Q70.9961-6.68945 68.3594-6.68945ZM62.207-45.752Q64.7949-45.7031 66.6748-47.583Q68.5547-49.4629 68.5547-52.0996Q68.5547-54.7363 66.6748-56.5674Q64.7949-58.3984 62.207-58.3984Q59.6191-58.3984 57.7393-56.5674Q55.8594-54.7363 55.8594-52.0996Q55.8594-49.4629 57.7393-47.6318Q59.6191-45.8008 62.207-45.752ZM45.3125-28.8574Q47.9004-28.8574 49.7803-30.7373Q51.6602-32.6172 51.6602-35.2539Q51.6602-37.8418 49.7803-39.6729Q47.9004-41.5039 45.3125-41.5039Q42.7246-41.5039 40.8691-39.6729Q39.0137-37.8418 39.0137-35.2539Q39.0137-32.6172 40.8691-30.7373Q42.7246-28.8574 45.3125-28.8574ZM28.4668-11.9629Q31.0547-11.9629 32.9102-13.8184Q34.7656-15.6738 34.7656-18.3105Q34.7656-20.9473 32.9102-22.7783Q31.0547-24.6094 28.4668-24.6094Q25.8789-24.6094 24.0234-22.7783Q22.168-20.9473 22.168-18.3105Q22.168-15.6738 24.0234-13.8184Q25.8789-11.9629 28.4668-11.9629Z"/>
  </g>
  <g id="Light-S" transform="matrix(1 0 0 1 1108.45 696)">
   <path d="M21.403-0.260417L67.9525-0.260417Q73.763-0.260417 76.6764-3.17383Q79.5898-6.08724 79.5898-11.8001L79.5898-58.5938Q79.5898-64.3066 76.6764-67.2119Q73.763-70.1172 67.9525-70.1172L21.403-70.1172Q15.625-70.1172 12.6953-67.2201Q9.76562-64.3229 9.76562-58.5938L9.76562-11.8001Q9.76562-6.05469 12.6953-3.15755Q15.625-0.260417 21.403-0.260417ZM21.5007-5.71289Q18.4408-5.71289 16.8132-7.30794Q15.1855-8.90299 15.1855-12.0605L15.1855-58.3171Q15.1855-61.4421 16.8132-63.0534Q18.4408-64.6647 21.5007-64.6647L67.8548-64.6647Q70.8822-64.6647 72.526-63.0534Q74.1699-61.4421 74.1699-58.3171L74.1699-12.0605Q74.1699-8.90299 72.526-7.30794Q70.8822-5.71289 67.8548-5.71289ZM62.1257-46.5658Q64.6159-46.5169 66.4307-48.3398Q68.2454-50.1628 68.2454-52.7181Q68.2454-55.2734 66.4307-57.0394Q64.6159-58.8053 62.1257-58.8053Q59.6191-58.8053 57.8044-57.0394Q55.9896-55.2734 55.9896-52.7181Q55.9896-50.1628 57.8044-48.3887Q59.6191-46.6146 62.1257-46.5658ZM44.6777-29.0527Q47.168-29.0527 48.9827-30.8757Q50.7975-32.6986 50.7975-35.2539Q50.7975-37.7441 48.9827-39.5264Q47.168-41.3086 44.6777-41.3086Q42.1549-41.3086 40.3646-39.5264Q38.5742-37.7441 38.5742-35.2539Q38.5742-32.6986 40.3646-30.8757Q42.1549-29.0527 44.6777-29.0527ZM27.2298-11.6048Q29.7363-11.6048 31.5186-13.3952Q33.3008-15.1855 33.3008-17.7409Q33.3008-20.2799 31.5186-22.0622Q29.7363-23.8444 27.2298-23.8444Q24.7233-23.8444 22.9248-22.0622Q21.1263-20.2799 21.1263-17.7409Q21.1263-15.1855 22.9248-13.3952Q24.7233-11.6048 27.2298-11.6048Z"/>
  </g>
  <g id="Thin-S" transform="matrix(1 0 0 1 812.615 696)">
   <path d="M20.3267-1.12147L67.2852-1.12147Q72.5145-1.12147 75.1803-3.81962Q77.8462-6.51777 77.8462-11.6494L77.8462-58.7229Q77.8462-63.8546 75.1803-66.5338Q72.5145-69.2131 67.2852-69.2131L20.3267-69.2131Q15.1084-69.2131 12.437-66.5527Q9.76562-63.8924 9.76562-58.7229L9.76562-11.6494Q9.76562-6.44216 12.437-3.78182Q15.1084-1.12147 20.3267-1.12147ZM20.4243-4.42131Q16.8048-4.42131 14.9296-6.28544Q13.0544-8.14957 13.0544-11.8022L13.0544-58.5323Q13.0544-62.174 14.9296-64.0436Q16.8048-65.9132 20.4243-65.9132L67.1875-65.9132Q70.7315-65.9132 72.6444-64.0436Q74.5574-62.174 74.5574-58.5323L74.5574-11.8022Q74.5574-8.14957 72.6444-6.28544Q70.7315-4.42131 67.1875-4.42131ZM62.018-47.6421Q64.3791-47.5932 66.1078-49.3408Q67.8364-51.0884 67.8364-53.5361Q67.8364-55.9838 66.1078-57.6637Q64.3791-59.3435 62.018-59.3435Q59.6191-59.3435 57.8905-57.6637Q56.1618-55.9838 56.1618-53.5361Q56.1618-51.0884 57.8905-49.3896Q59.6191-47.6909 62.018-47.6421ZM43.8382-29.3111Q46.1993-29.3111 47.928-31.0586Q49.6566-32.8062 49.6566-35.2539Q49.6566-37.615 47.928-39.3326Q46.1993-41.0503 43.8382-41.0503Q41.4015-41.0503 39.6973-39.3326Q37.993-37.615 37.993-35.2539Q37.993-32.8062 39.6973-31.0586Q41.4015-29.3111 43.8382-29.3111ZM25.5938-11.1312Q27.9927-11.1312 29.678-12.8355Q31.3634-14.5398 31.3634-16.9875Q31.3634-19.3974 29.678-21.115Q27.9927-22.8327 25.5938-22.8327Q23.1949-22.8327 21.4718-21.115Q19.7486-19.3974 19.7486-16.9875Q19.7486-14.5398 21.4718-12.8355Q23.1949-11.1312 25.5938-11.1312Z"/>
  </g>
  <g id="Ultralight-S" transform="matrix(1 0 0 1 516.35 696)">
   <path d="M19.7754-1.5625L66.9434-1.5625Q71.875-1.5625 74.4141-4.15039Q76.9531-6.73828 76.9531-11.5723L76.9531-58.7891Q76.9531-63.623 74.4141-66.1865Q71.875-68.75 66.9434-68.75L19.7754-68.75Q14.8438-68.75 12.3047-66.2109Q9.76562-63.6719 9.76562-58.7891L9.76562-11.5723Q9.76562-6.64062 12.3047-4.10156Q14.8438-1.5625 19.7754-1.5625ZM19.873-3.75977Q15.9668-3.75977 13.9648-5.76172Q11.9629-7.76367 11.9629-11.6699L11.9629-58.6426Q11.9629-62.5488 13.9648-64.5508Q15.9668-66.5527 19.873-66.5527L66.8457-66.5527Q70.6543-66.5527 72.7051-64.5508Q74.7559-62.5488 74.7559-58.6426L74.7559-11.6699Q74.7559-7.76367 72.7051-5.76172Q70.6543-3.75977 66.8457-3.75977ZM61.9629-48.1934Q64.2578-48.1445 65.9424-49.8535Q67.627-51.5625 67.627-53.9551Q67.627-56.3477 65.9424-57.9834Q64.2578-59.6191 61.9629-59.6191Q59.6191-59.6191 57.9346-57.9834Q56.25-56.3477 56.25-53.9551Q56.25-51.5625 57.9346-49.9023Q59.6191-48.2422 61.9629-48.1934ZM43.4082-29.4434Q45.7031-29.4434 47.3877-31.1523Q49.0723-32.8613 49.0723-35.2539Q49.0723-37.5488 47.3877-39.2334Q45.7031-40.918 43.4082-40.918Q41.0156-40.918 39.3555-39.2334Q37.6953-37.5488 37.6953-35.2539Q37.6953-32.8613 39.3555-31.1523Q41.0156-29.4434 43.4082-29.4434ZM24.7559-10.8887Q27.0996-10.8887 28.7354-12.5488Q30.3711-14.209 30.3711-16.6016Q30.3711-18.9453 28.7354-20.6299Q27.0996-22.3145 24.7559-22.3145Q22.4121-22.3145 20.7275-20.6299Q19.043-18.9453 19.043-16.6016Q19.043-14.209 20.7275-12.5488Q22.4121-10.8887 24.7559-10.8887Z"/>
  </g>
 </g>
</svg>
