<?xml version="1.0" encoding="UTF-8"?>
<!--Generator: Apple Native CoreSVG 175-->
<!DOCTYPE svg
PUBLIC "-//W3C//DTD SVG 1.1//EN"
       "http://www.w3.org/Graphics/SVG/1.1/DTD/svg11.dtd">
<svg version="1.1" xmlns="http://www.w3.org/2000/svg" xmlns:xlink="http://www.w3.org/1999/xlink" width="3300" height="2200">
 <!--glyph: "uni1000CE.medium", point size: 100.0, font version: "17.1d1e1", template writer version: "65.1"-->
 <g id="Notes">
  <rect height="2200" id="artboard" style="fill:white;opacity:1" width="3300" x="0" y="0"/>
  <line style="fill:none;stroke:black;opacity:1;stroke-width:0.5;" x1="263" x2="3036" y1="292" y2="292"/>
  <text style="stroke:none;fill:black;font-family:sans-serif;font-size:13;font-weight:bold;" transform="matrix(1 0 0 1 263 322)">Weight/Scale Variations</text>
  <text style="stroke:none;fill:black;font-family:sans-serif;font-size:13;text-anchor:middle;" transform="matrix(1 0 0 1 559.711 322)">Ultralight</text>
  <text style="stroke:none;fill:black;font-family:sans-serif;font-size:13;text-anchor:middle;" transform="matrix(1 0 0 1 856.422 322)">Thin</text>
  <text style="stroke:none;fill:black;font-family:sans-serif;font-size:13;text-anchor:middle;" transform="matrix(1 0 0 1 1153.13 322)">Light</text>
  <text style="stroke:none;fill:black;font-family:sans-serif;font-size:13;text-anchor:middle;" transform="matrix(1 0 0 1 1449.84 322)">Regular</text>
  <text style="stroke:none;fill:black;font-family:sans-serif;font-size:13;text-anchor:middle;" transform="matrix(1 0 0 1 1746.56 322)">Medium</text>
  <text style="stroke:none;fill:black;font-family:sans-serif;font-size:13;text-anchor:middle;" transform="matrix(1 0 0 1 2043.27 322)">Semibold</text>
  <text style="stroke:none;fill:black;font-family:sans-serif;font-size:13;text-anchor:middle;" transform="matrix(1 0 0 1 2339.98 322)">Bold</text>
  <text style="stroke:none;fill:black;font-family:sans-serif;font-size:13;text-anchor:middle;" transform="matrix(1 0 0 1 2636.69 322)">Heavy</text>
  <text style="stroke:none;fill:black;font-family:sans-serif;font-size:13;text-anchor:middle;" transform="matrix(1 0 0 1 2933.4 322)">Black</text>
  <line style="fill:none;stroke:black;opacity:1;stroke-width:0.5;" x1="263" x2="3036" y1="1903" y2="1903"/>
  <g transform="matrix(1 0 0 1 263 1933)">
   <path d="M9.24805 0.830078Q10.8691 0.830078 12.2949 0.214844Q13.7207-0.400391 14.8096-1.49414Q15.8984-2.58789 16.5186-4.01367Q17.1387-5.43945 17.1387-7.05078Q17.1387-8.66211 16.5186-10.0879Q15.8984-11.5137 14.8047-12.6074Q13.7109-13.7012 12.2852-14.3164Q10.8594-14.9316 9.23828-14.9316Q7.62695-14.9316 6.20117-14.3164Q4.77539-13.7012 3.69141-12.6074Q2.60742-11.5137 1.9873-10.0879Q1.36719-8.66211 1.36719-7.05078Q1.36719-5.43945 1.9873-4.01367Q2.60742-2.58789 3.69629-1.49414Q4.78516-0.400391 6.21094 0.214844Q7.63672 0.830078 9.24805 0.830078ZM9.24805-0.654297Q7.91992-0.654297 6.7627-1.14746Q5.60547-1.64062 4.73145-2.51953Q3.85742-3.39844 3.36426-4.56055Q2.87109-5.72266 2.87109-7.05078Q2.87109-8.37891 3.35938-9.54102Q3.84766-10.7031 4.72168-11.582Q5.5957-12.4609 6.75293-12.9541Q7.91016-13.4473 9.23828-13.4473Q10.5762-13.4473 11.7334-12.9541Q12.8906-12.4609 13.7695-11.582Q14.6484-10.7031 15.1465-9.54102Q15.6445-8.37891 15.6445-7.05078Q15.6445-5.72266 15.1514-4.56055Q14.6582-3.39844 13.7842-2.51953Q12.9102-1.64062 11.748-1.14746Q10.5859-0.654297 9.24805-0.654297ZM5.6543-7.05078Q5.6543-6.72852 5.85938-6.52832Q6.06445-6.32812 6.40625-6.32812L8.51562-6.32812L8.51562-4.20898Q8.51562-3.88672 8.71094-3.67676Q8.90625-3.4668 9.23828-3.4668Q9.56055-3.4668 9.77051-3.67676Q9.98047-3.88672 9.98047-4.20898L9.98047-6.32812L12.0898-6.32812Q12.4219-6.32812 12.627-6.52832Q12.832-6.72852 12.832-7.05078Q12.832-7.38281 12.627-7.58789Q12.4219-7.79297 12.0898-7.79297L9.98047-7.79297L9.98047-9.90234Q9.98047-10.2344 9.77051-10.4443Q9.56055-10.6543 9.23828-10.6543Q8.90625-10.6543 8.71094-10.4443Q8.51562-10.2344 8.51562-9.90234L8.51562-7.79297L6.40625-7.79297Q6.06445-7.79297 5.85938-7.58789Q5.6543-7.38281 5.6543-7.05078Z"/>
  </g>
  <g transform="matrix(1 0 0 1 281.867 1933)">
   <path d="M11.709 2.91016Q13.75 2.91016 15.5518 2.12891Q17.3535 1.34766 18.7305-0.0292969Q20.1074-1.40625 20.8887-3.20801Q21.6699-5.00977 21.6699-7.05078Q21.6699-9.0918 20.8887-10.8936Q20.1074-12.6953 18.7305-14.0723Q17.3535-15.4492 15.5469-16.2305Q13.7402-17.0117 11.6992-17.0117Q9.6582-17.0117 7.85645-16.2305Q6.05469-15.4492 4.68262-14.0723Q3.31055-12.6953 2.5293-10.8936Q1.74805-9.0918 1.74805-7.05078Q1.74805-5.00977 2.5293-3.20801Q3.31055-1.40625 4.6875-0.0292969Q6.06445 1.34766 7.86621 2.12891Q9.66797 2.91016 11.709 2.91016ZM11.709 1.25Q9.98047 1.25 8.47656 0.605469Q6.97266-0.0390625 5.83496-1.17676Q4.69727-2.31445 4.05762-3.81836Q3.41797-5.32227 3.41797-7.05078Q3.41797-8.7793 4.05762-10.2832Q4.69727-11.7871 5.83008-12.9297Q6.96289-14.0723 8.4668-14.7119Q9.9707-15.3516 11.6992-15.3516Q13.4277-15.3516 14.9316-14.7119Q16.4355-14.0723 17.5781-12.9297Q18.7207-11.7871 19.3652-10.2832Q20.0098-8.7793 20.0098-7.05078Q20.0098-5.32227 19.3701-3.81836Q18.7305-2.31445 17.5928-1.17676Q16.4551-0.0390625 14.9463 0.605469Q13.4375 1.25 11.709 1.25ZM7.17773-7.05078Q7.17773-6.69922 7.41211-6.47461Q7.64648-6.25 8.01758-6.25L10.8887-6.25L10.8887-3.36914Q10.8887-2.99805 11.1133-2.76855Q11.3379-2.53906 11.6895-2.53906Q12.0605-2.53906 12.29-2.76855Q12.5195-2.99805 12.5195-3.36914L12.5195-6.25L15.4004-6.25Q15.7715-6.25 16.001-6.47461Q16.2305-6.69922 16.2305-7.05078Q16.2305-7.42188 16.001-7.65137Q15.7715-7.88086 15.4004-7.88086L12.5195-7.88086L12.5195-10.752Q12.5195-11.1328 12.29-11.3623Q12.0605-11.5918 11.6895-11.5918Q11.3379-11.5918 11.1133-11.3574Q10.8887-11.123 10.8887-10.752L10.8887-7.88086L8.01758-7.88086Q7.63672-7.88086 7.40723-7.65137Q7.17773-7.42188 7.17773-7.05078Z"/>
  </g>
  <g transform="matrix(1 0 0 1 305.646 1933)">
   <path d="M14.9707 5.66406Q17.0605 5.66406 18.96 5.01465Q20.8594 4.36523 22.4512 3.19336Q24.043 2.02148 25.2197 0.429688Q26.3965-1.16211 27.0459-3.06641Q27.6953-4.9707 27.6953-7.05078Q27.6953-9.14062 27.0459-11.04Q26.3965-12.9395 25.2197-14.5312Q24.043-16.123 22.4512-17.2998Q20.8594-18.4766 18.9551-19.126Q17.0508-19.7754 14.9609-19.7754Q12.8711-19.7754 10.9717-19.126Q9.07227-18.4766 7.48535-17.2998Q5.89844-16.123 4.72168-14.5312Q3.54492-12.9395 2.90039-11.04Q2.25586-9.14062 2.25586-7.05078Q2.25586-4.9707 2.90527-3.06641Q3.55469-1.16211 4.72656 0.429688Q5.89844 2.02148 7.49023 3.19336Q9.08203 4.36523 10.9814 5.01465Q12.8809 5.66406 14.9707 5.66406ZM14.9707 3.84766Q13.1641 3.84766 11.5283 3.2959Q9.89258 2.74414 8.53516 1.74805Q7.17773 0.751953 6.17676-0.610352Q5.17578-1.97266 4.62891-3.6084Q4.08203-5.24414 4.08203-7.05078Q4.08203-8.86719 4.62891-10.5029Q5.17578-12.1387 6.17188-13.501Q7.16797-14.8633 8.52539-15.8594Q9.88281-16.8555 11.5186-17.4023Q13.1543-17.9492 14.9609-17.9492Q16.7773-17.9492 18.4131-17.4023Q20.0488-16.8555 21.4111-15.8594Q22.7734-14.8633 23.7695-13.501Q24.7656-12.1387 25.3174-10.5029Q25.8691-8.86719 25.8691-7.05078Q25.8789-5.24414 25.332-3.6084Q24.7852-1.97266 23.7842-0.610352Q22.7832 0.751953 21.4209 1.74805Q20.0586 2.74414 18.4229 3.2959Q16.7871 3.84766 14.9707 3.84766ZM9.19922-7.05078Q9.19922-6.66992 9.45801-6.4209Q9.7168-6.17188 10.1172-6.17188L14.0625-6.17188L14.0625-2.2168Q14.0625-1.81641 14.3115-1.55762Q14.5605-1.29883 14.9512-1.29883Q15.3516-1.29883 15.6104-1.55273Q15.8691-1.80664 15.8691-2.2168L15.8691-6.17188L19.8242-6.17188Q20.2246-6.17188 20.4785-6.4209Q20.7324-6.66992 20.7324-7.05078Q20.7324-7.46094 20.4785-7.71484Q20.2246-7.96875 19.8242-7.96875L15.8691-7.96875L15.8691-11.9141Q15.8691-12.3242 15.6104-12.583Q15.3516-12.8418 14.9512-12.8418Q14.5605-12.8418 14.3115-12.583Q14.0625-12.3242 14.0625-11.9141L14.0625-7.96875L10.1172-7.96875Q9.70703-7.96875 9.45312-7.71484Q9.19922-7.46094 9.19922-7.05078Z"/>
  </g>
  <text style="stroke:none;fill:black;font-family:sans-serif;font-size:13;font-weight:bold;" transform="matrix(1 0 0 1 263 1953)">Design Variations</text>
  <text style="stroke:none;fill:black;font-family:sans-serif;font-size:13;" transform="matrix(1 0 0 1 263 1971)">Symbols are supported in up to nine weights and three scales.</text>
  <text style="stroke:none;fill:black;font-family:sans-serif;font-size:13;" transform="matrix(1 0 0 1 263 1989)">For optimal layout with text and other symbols, vertically align</text>
  <text style="stroke:none;fill:black;font-family:sans-serif;font-size:13;" transform="matrix(1 0 0 1 263 2007)">symbols with the adjacent text.</text>
  <line style="fill:none;stroke:#00AEEF;stroke-width:0.5;opacity:1.0;" x1="776" x2="776" y1="1919" y2="1933"/>
  <g transform="matrix(1 0 0 1 776 1933)">
   <path d="M3.31055 0.15625Q3.70117 0.15625 3.91602-0.00976562Q4.13086-0.175781 4.26758-0.585938L5.52734-4.0332L11.2891-4.0332L12.5488-0.585938Q12.6855-0.175781 12.9004-0.00976562Q13.1152 0.15625 13.4961 0.15625Q13.8867 0.15625 14.1162-0.0585938Q14.3457-0.273438 14.3457-0.644531Q14.3457-0.869141 14.2383-1.17188L9.6582-13.3691Q9.48242-13.8184 9.17969-14.043Q8.87695-14.2676 8.4082-14.2676Q7.5-14.2676 7.17773-13.3789L2.59766-1.16211Q2.49023-0.859375 2.49023-0.634766Q2.49023-0.263672 2.70996-0.0537109Q2.92969 0.15625 3.31055 0.15625ZM6.00586-5.51758L8.37891-12.0898L8.42773-12.0898L10.8008-5.51758Z"/>
  </g>
  <line style="fill:none;stroke:#00AEEF;stroke-width:0.5;opacity:1.0;" x1="793.197" x2="793.197" y1="1919" y2="1933"/>
  <text style="stroke:none;fill:black;font-family:sans-serif;font-size:13;font-weight:bold;" transform="matrix(1 0 0 1 776 1953)">Margins</text>
  <text style="stroke:none;fill:black;font-family:sans-serif;font-size:13;" transform="matrix(1 0 0 1 776 1971)">Leading and trailing margins on the left and right side of each symbol</text>
  <text style="stroke:none;fill:black;font-family:sans-serif;font-size:13;" transform="matrix(1 0 0 1 776 1989)">can be adjusted by modifying the x-location of the margin guidelines.</text>
  <text style="stroke:none;fill:black;font-family:sans-serif;font-size:13;" transform="matrix(1 0 0 1 776 2007)">Modifications are automatically applied proportionally to all</text>
  <text style="stroke:none;fill:black;font-family:sans-serif;font-size:13;" transform="matrix(1 0 0 1 776 2025)">scales and weights.</text>
  <g transform="matrix(1 0 0 1 1289 1933)">
   <path d="M2.8418 1.86523L4.54102 3.57422Q5.18555 4.22852 5.90332 4.17969Q6.62109 4.13086 7.31445 3.35938L18.0078-8.42773L17.041-9.4043L6.42578 2.27539Q6.16211 2.57812 5.89355 2.61719Q5.625 2.65625 5.27344 2.30469L4.10156 1.14258Q3.75 0.791016 3.79395 0.522461Q3.83789 0.253906 4.14062-0.0195312L15.6152-10.8203L14.6387-11.7871L3.04688-0.898438Q2.30469-0.214844 2.25098 0.498047Q2.19727 1.21094 2.8418 1.86523ZM9.25781-16.3281Q8.94531-16.0254 8.90625-15.6348Q8.86719-15.2441 9.04297-14.9512Q9.21875-14.6777 9.55566-14.541Q9.89258-14.4043 10.3809-14.5215Q11.4746-14.7754 12.5977-14.7314Q13.7207-14.6875 14.7949-13.9844L14.209-12.5293Q13.9551-11.9043 14.0674-11.4404Q14.1797-10.9766 14.5801-10.5664L16.875-8.25195Q17.2363-7.88086 17.5781-7.82227Q17.9199-7.76367 18.3398-7.8418L19.4043-8.03711L20.0684-7.36328L20.0293-6.80664Q20-6.43555 20.1221-6.12305Q20.2441-5.81055 20.6055-5.44922L21.3672-4.70703Q21.7285-4.3457 22.1533-4.33105Q22.5781-4.31641 22.9297-4.66797L25.8398-7.58789Q26.1914-7.93945 26.1816-8.35449Q26.1719-8.76953 25.8105-9.13086L25.0391-9.89258Q24.6875-10.2539 24.3799-10.3857Q24.0723-10.5176 23.7109-10.4883L23.1348-10.4395L22.4902-11.0742L22.7344-12.1973Q22.832-12.6172 22.6953-12.9834Q22.5586-13.3496 22.1191-13.7891L19.9219-15.9766Q18.6719-17.2168 17.2607-17.8369Q15.8496-18.457 14.4189-18.4814Q12.9883-18.5059 11.665-17.959Q10.3418-17.4121 9.25781-16.3281ZM10.752-15.957Q11.6602-16.6211 12.7002-16.9043Q13.7402-17.1875 14.8047-17.085Q15.8691-16.9824 16.8701-16.5137Q17.8711-16.0449 18.7012-15.2051L21.1328-12.793Q21.3086-12.6172 21.3525-12.4512Q21.3965-12.2852 21.3379-12.0312L21.0156-10.5469L22.5195-9.0625L23.5059-9.12109Q23.6914-9.13086 23.7891-9.09668Q23.8867-9.0625 24.0332-8.91602L24.6094-8.33984L22.168-5.89844L21.5918-6.47461Q21.4453-6.62109 21.4062-6.71875Q21.3672-6.81641 21.377-7.01172L21.4453-7.98828L19.9512-9.47266L18.4277-9.21875Q18.1836-9.16992 18.042-9.2041Q17.9004-9.23828 17.7148-9.41406L15.7129-11.416Q15.5176-11.5918 15.4932-11.7529Q15.4688-11.9141 15.5859-12.1875L16.4648-14.2773Q15.293-15.3711 13.8281-15.791Q12.3633-16.2109 10.8398-15.7617Q10.7227-15.7324 10.6885-15.8057Q10.6543-15.8789 10.752-15.957Z"/>
  </g>
  <text style="stroke:none;fill:black;font-family:sans-serif;font-size:13;font-weight:bold;" transform="matrix(1 0 0 1 1289 1953)">Exporting</text>
  <text style="stroke:none;fill:black;font-family:sans-serif;font-size:13;" transform="matrix(1 0 0 1 1289 1971)">Symbols should be outlined when exporting to ensure the</text>
  <text style="stroke:none;fill:black;font-family:sans-serif;font-size:13;" transform="matrix(1 0 0 1 1289 1989)">design is preserved when submitting to Xcode.</text>
  <text id="template-version" style="stroke:none;fill:black;font-family:sans-serif;font-size:13;text-anchor:end;" transform="matrix(1 0 0 1 3036 1933)">Template v.3.0</text>
  <text style="stroke:none;fill:black;font-family:sans-serif;font-size:13;text-anchor:end;" transform="matrix(1 0 0 1 3036 1951)">Requires Xcode 13 or greater</text>
  <text id="descriptive-name" style="stroke:none;fill:black;font-family:sans-serif;font-size:13;text-anchor:end;" transform="matrix(1 0 0 1 3036 1969)">Generated from 3.square</text>
  <text style="stroke:none;fill:black;font-family:sans-serif;font-size:13;text-anchor:end;" transform="matrix(1 0 0 1 3036 1987)">Typeset at 100 points</text>
  <text style="stroke:none;fill:black;font-family:sans-serif;font-size:13;" transform="matrix(1 0 0 1 263 726)">Small</text>
  <text style="stroke:none;fill:black;font-family:sans-serif;font-size:13;" transform="matrix(1 0 0 1 263 1156)">Medium</text>
  <text style="stroke:none;fill:black;font-family:sans-serif;font-size:13;" transform="matrix(1 0 0 1 263 1586)">Large</text>
 </g>
 <g id="Guides">
  <g id="H-reference" style="fill:#27AAE1;stroke:none;" transform="matrix(1 0 0 1 339 696)">
   <path d="M0.993347 0L3.6377 0L29.3282-67.1326L30.0301-67.1326L30.0301-70.459L28.1227-70.459ZM11.6882-24.4797L46.9818-24.4797L46.2311-26.7288L12.4382-26.7288ZM55.1193 0L57.7637 0L30.6381-70.459L29.4327-70.459L29.4327-67.1326Z"/>
  </g>
  <line id="Baseline-S" style="fill:none;stroke:#27AAE1;opacity:1;stroke-width:0.5;" x1="263" x2="3036" y1="696" y2="696"/>
  <line id="Capline-S" style="fill:none;stroke:#27AAE1;opacity:1;stroke-width:0.5;" x1="263" x2="3036" y1="625.541" y2="625.541"/>
  <g id="H-reference" style="fill:#27AAE1;stroke:none;" transform="matrix(1 0 0 1 339 1126)">
   <path d="M0.993347 0L3.6377 0L29.3282-67.1326L30.0301-67.1326L30.0301-70.459L28.1227-70.459ZM11.6882-24.4797L46.9818-24.4797L46.2311-26.7288L12.4382-26.7288ZM55.1193 0L57.7637 0L30.6381-70.459L29.4327-70.459L29.4327-67.1326Z"/>
  </g>
  <line id="Baseline-M" style="fill:none;stroke:#27AAE1;opacity:1;stroke-width:0.5;" x1="263" x2="3036" y1="1126" y2="1126"/>
  <line id="Capline-M" style="fill:none;stroke:#27AAE1;opacity:1;stroke-width:0.5;" x1="263" x2="3036" y1="1055.54" y2="1055.54"/>
  <g id="H-reference" style="fill:#27AAE1;stroke:none;" transform="matrix(1 0 0 1 339 1556)">
   <path d="M0.993347 0L3.6377 0L29.3282-67.1326L30.0301-67.1326L30.0301-70.459L28.1227-70.459ZM11.6882-24.4797L46.9818-24.4797L46.2311-26.7288L12.4382-26.7288ZM55.1193 0L57.7637 0L30.6381-70.459L29.4327-70.459L29.4327-67.1326Z"/>
  </g>
  <line id="Baseline-L" style="fill:none;stroke:#27AAE1;opacity:1;stroke-width:0.5;" x1="263" x2="3036" y1="1556" y2="1556"/>
  <line id="Capline-L" style="fill:none;stroke:#27AAE1;opacity:1;stroke-width:0.5;" x1="263" x2="3036" y1="1485.54" y2="1485.54"/>
  <line id="left-margin-Regular-M" style="fill:none;stroke:#00AEEF;stroke-width:0.5;opacity:1.0;" x1="1392.45" x2="1392.45" y1="1030.79" y2="1150.12"/>
  <line id="right-margin-Regular-M" style="fill:none;stroke:#00AEEF;stroke-width:0.5;opacity:1.0;" x1="1507.24" x2="1507.24" y1="1030.79" y2="1150.12"/>
 </g>
 <g id="Symbols">
  <g id="Black-L" transform="matrix(1 0 0 1 2855.72 1556)">
   <path d="M39.8559 26.4225L115.512 26.4225Q126.881 26.4225 133.083 20.23Q139.284 14.0375 139.284 2.71277L139.284-73.0901Q139.284-84.4148 133.083-90.6066Q126.881-96.7985 115.512-96.7985L39.8559-96.7985Q28.5079-96.7985 22.2959-90.6073Q16.084-84.4161 16.084-73.0901L16.084 2.71277Q16.084 14.0401 22.2959 20.2313Q28.5079 26.4225 39.8559 26.4225ZM42.5866 6.42133Q39.3787 6.42133 37.7216 4.87256Q36.0645 3.3238 36.0645-0.121591L36.0645-70.2544Q36.0645-73.7375 37.7216-75.2674Q39.3787-76.7973 42.5866-76.7973L112.782-76.7973Q116.045-76.7973 117.675-75.2674Q119.304-73.7375 119.304-70.2544L119.304-0.121591Q119.304 3.3238 117.675 4.87256Q116.045 6.42133 112.782 6.42133ZM77.9634-6.20366Q89.3385-6.20366 95.8737-10.8303Q102.409-15.4569 102.409-23.1813Q102.409-28.5123 99.0192-32.2588Q95.6295-36.0053 90.4259-36.393L90.4259-37.2818Q94.7631-37.8706 97.8728-41.3213Q100.982-44.7719 100.982-48.9974Q100.982-55.9553 94.7442-60.1455Q88.5059-64.3357 78.1292-64.3357Q69.7067-64.3357 63.9467-61.487Q58.1867-58.6382 56.4807-53.6422Q56.2043-52.8054 56.0369-51.9427Q55.8695-51.0799 55.8695-50.164Q55.8695-46.984 58.0116-45.1254Q60.1538-43.2668 63.8205-43.2668Q68.1484-43.2668 70.7604-46.9133Q71.9941-48.963 73.8366-50.0578Q75.6791-51.1525 78.0086-51.1525Q80.5469-51.1525 82.0163-50.0604Q83.4858-48.9684 83.4858-47.0811Q83.4858-44.9615 81.9237-43.6432Q80.3616-42.3248 77.7557-42.3248L76.5992-42.3248Q73.0154-42.3248 70.9524-40.5467Q68.8894-38.7686 68.8894-35.6299Q68.8894-32.5705 70.9816-30.7229Q73.0738-28.8754 76.5992-28.8754L77.8463-28.8754Q80.9631-28.8754 82.6937-27.6525Q84.4242-26.4296 84.4242-24.2986Q84.4242-22.3181 82.7404-21.0861Q81.0566-19.8541 78.3553-19.8541Q75.446-19.8541 73.5095-20.991Q71.573-22.1279 70.2757-24.0934Q67.6184-27.7398 63.2567-27.7398Q59.6483-27.7398 57.5056-25.8605Q55.3628-23.9812 55.3628-20.7999Q55.3628-19.0549 55.9752-17.3645Q57.6941-12.467 63.8206-9.33533Q69.9471-6.20366 77.9634-6.20366Z"/>
  </g>
  <g id="Heavy-L" transform="matrix(1 0 0 1 2559.92 1556)">
   <path d="M38.8328 25.5158L114.704 25.5158Q125.682 25.5158 131.567 19.6396Q137.452 13.7633 137.452 2.85629L137.452-73.2288Q137.452-84.1358 131.567-90.0091Q125.682-95.8823 114.704-95.8823L38.8328-95.8823Q27.8839-95.8823 21.984-90.0121Q16.084-84.1419 16.084-73.2288L16.084 2.85629Q16.084 13.7754 21.984 19.6456Q27.8839 25.5158 38.8328 25.5158ZM40.957 7.98818Q37.3499 7.98818 35.4659 6.20086Q33.5818 4.41354 33.5818 0.583243L33.5818-70.9497Q33.5818-74.7949 35.4659-76.5748Q37.3499-78.3547 40.957-78.3547L112.579-78.3547Q116.219-78.3547 118.087-76.5748Q119.954-74.7949 119.954-70.9497L119.954 0.583243Q119.954 4.41354 118.087 6.20086Q116.219 7.98818 112.579 7.98818ZM76.9112-6.00918Q87.9466-6.00918 94.3105-10.6719Q100.674-15.3347 100.674-22.9798Q100.674-28.3559 97.1995-32.1552Q93.7247-35.9544 88.3928-36.3835L88.3928-37.1663Q92.8312-37.7832 95.9707-41.3279Q99.1101-44.8727 99.1101-49.2726Q99.1101-56.1283 93.0799-60.3293Q87.0498-64.5302 77.1493-64.5302Q68.9277-64.5302 63.2725-61.5693Q57.6172-58.6083 56.0367-53.4944Q55.7926-52.6994 55.6483-51.9106Q55.504-51.1217 55.504-50.2524Q55.504-47.4102 57.4101-45.7346Q59.3163-44.059 62.5392-44.059Q66.5696-44.059 68.7981-47.5777Q69.971-50.0014 72.077-51.3388Q74.183-52.6762 77.0154-52.6762Q80.0983-52.6762 81.8845-51.3042Q83.6706-49.9322 83.6706-47.5554Q83.6706-45.0062 81.7668-43.369Q79.863-41.7318 76.7866-41.7318L74.9239-41.7318Q71.8201-41.7318 69.9883-40.1366Q68.1565-38.5414 68.1565-35.7588Q68.1565-33.0505 70.0106-31.3928Q71.8647-29.7351 74.9239-29.7351L76.9419-29.7351Q80.5933-29.7351 82.7208-28.1543Q84.8482-26.5736 84.8482-23.9169Q84.8482-21.3728 82.7445-19.7965Q80.6408-18.2202 77.2385-18.2202Q73.8049-18.2202 71.6018-19.6201Q69.3987-21.02 68.1571-23.3187Q65.8509-26.8374 61.8237-26.8374Q58.6455-26.8374 56.7363-25.132Q54.8271-23.4266 54.8271-20.5784Q54.8271-18.977 55.3658-17.402Q57.0068-12.3862 62.9983-9.19767Q68.9899-6.00918 76.9112-6.00918Z"/>
  </g>
  <g id="Bold-L" transform="matrix(1 0 0 1 2264.35 1556)">
   <path d="M37.5443 24.3864L113.709 24.3864Q124.174 24.3864 129.672 18.8927Q135.17 13.3991 135.17 3.03698L135.17-73.4013Q135.17-83.7634 129.672-89.2499Q124.174-94.7365 113.709-94.7365L37.5443-94.7365Q27.1168-94.7365 21.6004-89.257Q16.084-83.7776 16.084-73.4013L16.084 3.03698Q16.084 13.4275 21.6004 18.9069Q27.1168 24.3864 37.5443 24.3864ZM38.9901 9.91361Q34.8616 9.91361 32.6907 7.82346Q30.5198 5.73331 30.5198 1.40624L30.5198-71.7564Q30.5198-76.0756 32.6907-78.1697Q34.8616-80.2637 38.9901-80.2637L112.264-80.2637Q116.393-80.2637 118.564-78.1697Q120.734-76.0756 120.734-71.7564L120.734 1.40624Q120.734 5.73331 118.564 7.82346Q116.393 9.91361 112.264 9.91361ZM75.6478-5.84918Q86.2225-5.84918 92.3703-10.5409Q98.5181-15.2326 98.5181-22.7658Q98.5181-28.1781 94.9467-32.0349Q91.3753-35.8918 85.9055-36.3671L85.9055-37.0256Q90.4601-37.6825 93.6299-41.3311Q96.7997-44.9797 96.7997-49.5719Q96.7997-56.2931 91.0283-60.4917Q85.2569-64.6902 75.9437-64.6902Q68.0103-64.6902 62.4981-61.611Q56.986-58.5317 55.5717-53.3146Q55.3667-52.5751 55.2495-51.8761Q55.1324-51.1771 55.1324-50.3714Q55.1324-47.9533 56.7444-46.5096Q58.3564-45.066 61.031-45.066Q64.6653-45.066 66.4246-48.3727Q67.5093-51.2494 69.9403-52.8841Q72.3713-54.5187 75.8036-54.5187Q79.5418-54.5187 81.7197-52.7977Q83.8976-51.0766 83.8976-48.1062Q83.8976-45.0332 81.5799-43.0047Q79.2622-40.9763 75.6249-40.9763L72.9118-40.9763Q70.3852-40.9763 68.8394-39.6131Q67.2935-38.2499 67.2935-35.9057Q67.2935-33.6277 68.854-32.2097Q70.4144-30.7917 72.9118-30.7917L75.8582-30.7917Q80.1394-30.7917 82.7424-28.7776Q85.3454-26.7634 85.3454-23.4842Q85.3454-20.252 82.7389-18.2532Q80.1324-16.2543 75.897-16.2543Q71.8684-16.2543 69.3225-17.9701Q66.7765-19.6858 65.6057-22.4003Q63.7298-25.707 60.1459-25.707Q57.5006-25.707 55.8815-24.2264Q54.2623-22.7458 54.2623-20.3134Q54.2623-18.8926 54.7158-17.4584Q56.2724-12.3303 62.0814-9.08972Q67.8903-5.84918 75.6478-5.84918Z"/>
  </g>
  <g id="Semibold-L" transform="matrix(1 0 0 1 1968.43 1556)">
   <path d="M36.6561 23.6077L113.024 23.6077Q123.134 23.6077 128.365 18.3778Q133.596 13.1479 133.596 3.16154L133.596-73.5202Q133.596-83.5066 128.365-88.7266Q123.134-93.9466 113.024-93.9466L36.6561-93.9466Q26.588-93.9466 21.336-88.7365Q16.084-83.5265 16.084-73.5202L16.084 3.16154Q16.084 13.1877 21.336 18.3977Q26.588 23.6077 36.6561 23.6077ZM37.6342 11.241Q33.1463 11.241 30.7775 8.94207Q28.4088 6.64315 28.4088 1.97361L28.4088-72.3124Q28.4088-76.9586 30.7775-79.2692Q33.1463-81.5798 37.6342-81.5798L112.046-81.5798Q116.513-81.5798 118.892-79.2692Q121.272-76.9586 121.272-72.3124L121.272 1.97361Q121.272 6.64315 118.892 8.94207Q116.513 11.241 112.046 11.241ZM74.7768-5.73888Q85.034-5.73888 91.0328-10.4505Q97.0316-15.1621 97.0316-22.6183Q97.0316-28.0555 93.3936-31.9521Q89.7556-35.8486 84.1908-36.3558L84.1908-36.9286Q88.8255-37.613 92.0162-41.3332Q95.2069-45.0534 95.2069-49.7782Q95.2069-56.4068 89.6139-60.6036Q84.0209-64.8005 75.1126-64.8005Q67.3778-64.8005 61.9643-61.6397Q56.5508-58.4789 55.2511-53.1907Q55.073-52.4894 54.9746-51.8524Q54.8763-51.2153 54.8763-50.4535Q54.8763-48.3276 56.2855-47.044Q57.6947-45.7603 59.9913-45.7603Q63.3526-45.7603 64.7883-48.9208Q65.8122-52.1097 68.4672-53.9494Q71.1223-55.789 74.9681-55.789Q79.1581-55.789 81.6061-53.8272Q84.054-51.8655 84.054-48.4859Q84.054-45.0518 81.451-42.7536Q78.8479-40.4554 74.824-40.4554L71.5246-40.4554Q69.3959-40.4554 68.0473-39.2522Q66.6986-38.0489 66.6986-36.007Q66.6986-34.0257 68.0566-32.7729Q69.4145-31.5202 71.5246-31.5202L75.1111-31.5202Q79.8265-31.5202 82.7574-29.2073Q85.6882-26.8943 85.6882-23.1859Q85.6882-19.4794 82.7351-17.1892Q79.782-14.899 74.9722-14.899Q70.5334-14.899 67.7511-16.8325Q64.9688-18.766 63.8468-21.7672Q62.2676-24.9277 58.9893-24.9277Q56.7113-24.9277 55.2922-23.6021Q53.873-22.2764 53.873-20.1307Q53.873-18.8345 54.2677-17.4973Q55.7661-12.2917 61.4492-9.0153Q67.1323-5.73888 74.7768-5.73888Z"/>
  </g>
  <g id="Medium-L" transform="matrix(1 0 0 1 1672.31 1556)">
   <path d="M35.9826 23.0174L112.505 23.0174Q122.346 23.0174 127.375 17.9874Q132.403 12.9575 132.403 3.25599L132.403-73.6104Q132.403-83.3119 127.375-88.3298Q122.346-93.3476 112.505-93.3476L35.9826-93.3476Q26.187-93.3476 21.1355-88.3419Q16.084-83.3361 16.084-73.6104L16.084 3.25599Q16.084 13.0058 21.1355 18.0116Q26.187 23.0174 35.9826 23.0174ZM36.606 12.2475Q31.8456 12.2475 29.3269 9.79025Q26.8081 7.33303 26.8081 2.40381L26.8081-72.7341Q26.8081-77.628 29.3269-80.1029Q31.8456-82.5777 36.606-82.5777L111.881-82.5777Q116.604-82.5777 119.141-80.1029Q121.679-77.628 121.679-72.7341L121.679 2.40381Q121.679 7.33303 119.141 9.79025Q116.604 12.2475 111.881 12.2475ZM74.1164-5.65525Q84.1328-5.65525 90.0187-10.382Q95.9045-15.1087 95.9045-22.5065Q95.9045-27.9626 92.216-31.8892Q88.5275-35.8159 82.8907-36.3473L82.8907-36.8551Q87.586-37.5604 90.7926-41.3349Q93.9991-45.1094 93.9991-49.9346Q93.9991-56.4929 88.5414-60.6885Q83.0836-64.8842 74.4824-64.8842Q66.8982-64.8842 61.5596-61.6615Q56.2209-58.4389 55.008-53.0968Q54.8503-52.4244 54.7662-51.8344Q54.6821-51.2443 54.6821-50.5157Q54.6821-48.6115 55.9375-47.4491Q57.193-46.2867 59.2029-46.2867Q62.3572-46.2867 63.5475-49.3364Q64.5254-52.7621 67.3503-54.7571Q70.1752-56.7521 74.3347-56.7521Q78.8672-56.7521 81.5199-54.6079Q84.1727-52.4637 84.1727-48.7737Q84.1727-45.0659 81.3533-42.5632Q78.5339-40.0605 74.2167-40.0605L70.4728-40.0605Q68.6459-40.0605 67.4467-38.9785Q66.2475-37.8966 66.2475-36.0839Q66.2475-34.3274 67.4519-33.2Q68.6564-32.0726 70.4728-32.0726L74.5447-32.0726Q79.5893-32.0726 82.7687-29.5331Q85.9482-26.9936 85.9482-22.9597Q85.9482-18.8935 82.7322-16.3825Q79.5162-13.8714 74.271-13.8714Q69.5211-13.8714 66.5596-15.97Q63.5981-18.0686 62.5132-21.2871Q61.1588-24.3368 58.1123-24.3368Q56.1129-24.3368 54.8453-23.1287Q53.5778-21.9205 53.5778-19.9922Q53.5778-18.7904 53.9279-17.5267Q55.3823-12.2625 60.9699-8.95887Q66.5575-5.65525 74.1164-5.65525Z"/>
  </g>
  <g id="Regular-L" transform="matrix(1 0 0 1 1376.38 1556)">
   <path d="M35.1041 22.2473L111.827 22.2473Q121.318 22.2473 126.082 17.4782Q130.847 12.7092 130.847 3.37919L130.847-73.728Q130.847-83.058 126.082-87.8122Q121.318-92.5664 111.827-92.5664L35.1041-92.5664Q25.664-92.5664 20.874-87.8271Q16.084-83.0877 16.084-73.728L16.084 3.37919Q16.084 12.7686 20.874 17.508Q25.664 22.2473 35.1041 22.2473ZM35.265 13.5603Q30.1491 13.5603 27.4347 10.8966Q24.7203 8.23287 24.7203 2.96494L24.7203-73.284Q24.7203-78.5013 27.4347-81.1903Q30.1491-83.8794 35.265-83.8794L111.666-83.8794Q116.722-83.8794 119.467-81.1903Q122.211-78.5013 122.211-73.284L122.211 2.96494Q122.211 8.23287 119.467 10.8966Q116.722 13.5603 111.666 13.5603ZM73.255-5.54616Q82.9573-5.54616 88.6958-10.2926Q94.4344-15.0391 94.4344-22.3606Q94.4344-27.8413 90.68-31.8072Q86.9256-35.7732 81.1948-36.3361L81.1948-36.7591Q85.9693-37.4917 89.1966-41.337Q92.4239-45.1823 92.4239-50.1386Q92.4239-56.6053 87.1425-60.7993Q81.8612-64.9932 73.6605-64.9932Q66.2727-64.9932 61.0316-61.69Q55.7905-58.3867 54.691-52.9742Q54.5599-52.3397 54.4943-51.8109Q54.4288-51.2821 54.4288-50.5968Q54.4288-48.9817 55.4837-47.9775Q56.5386-46.9733 58.1746-46.9733Q61.0588-46.9733 61.9292-49.8785Q62.8469-53.613 65.8934-55.8107Q68.94-58.0084 73.5084-58.0084Q78.4878-58.0084 81.4076-55.6262Q84.3274-53.244 84.3274-49.1493Q84.3274-45.0843 81.2258-42.3148Q78.1242-39.5454 73.4246-39.5454L69.1008-39.5454Q67.6675-39.5454 66.6633-38.6216Q65.6591-37.6978 65.6591-36.1841Q65.6591-34.721 66.6633-33.757Q67.6675-32.793 69.1008-32.793L73.8058-32.793Q79.2798-32.793 82.7835-29.958Q86.2872-27.123 86.2872-22.6647Q86.2872-18.1294 82.7284-15.3302Q79.1696-12.531 73.3564-12.531Q68.2007-12.531 65.0055-14.8449Q61.8103-17.1589 60.7736-20.6609Q59.7126-23.5661 56.9683-23.5661Q55.3323-23.5661 54.2625-22.5112Q53.1928-21.4563 53.1928-19.8115Q53.1928-18.7329 53.4847-17.5652Q54.8816-12.2244 60.3447-8.88527Q65.8078-5.54616 73.255-5.54616Z"/>
  </g>
  <g id="Light-L" transform="matrix(1 0 0 1 1080.5 1556)">
   <path d="M34.078 21.4264L111.191 21.4264Q120.127 21.4264 124.656 16.8626Q129.185 12.2987 129.185 3.52284L129.185-73.8511Q129.185-82.627 124.656-87.1657Q120.127-91.7045 111.191-91.7045L34.078-91.7045Q25.1715-91.7045 20.6277-87.1909Q16.084-82.6773 16.084-73.8511L16.084 3.52284Q16.084 12.3992 20.6277 16.9128Q25.1715 21.4264 34.078 21.4264ZM34.2389 14.7916Q28.5894 14.7916 25.639 11.8714Q22.6887 8.95114 22.6887 3.21121L22.6887-73.4893Q22.6887-79.199 25.639-82.1343Q28.5894-85.0696 34.2389-85.0696L111.03-85.0696Q116.579-85.0696 119.579-82.1343Q122.58-79.199 122.58-73.4893L122.58 3.21121Q122.58 8.95114 119.579 11.8714Q116.579 14.7916 111.03 14.7916ZM72.6394-5.9566Q81.7671-5.9566 87.3311-10.621Q92.8952-15.2853 92.8952-22.4427Q92.8952-27.8208 89.1305-31.7765Q85.3659-35.7321 79.6762-36.2951L79.6762-36.6771Q84.4712-37.4712 87.678-41.3062Q90.8847-45.1413 90.8847-50.077Q90.8847-56.4001 85.7881-60.4914Q80.6914-64.5828 72.8806-64.5828Q65.9444-64.5828 60.8879-61.3308Q55.8315-58.0788 54.9167-52.8716Q54.8062-52.2986 54.7509-51.8211Q54.6956-51.3436 54.6956-50.7405Q54.6956-49.4537 55.535-48.6445Q56.3744-47.8352 57.641-47.8352Q60.0738-47.8352 60.6568-50.2479Q61.4309-54.2286 64.6929-56.6111Q67.9549-58.9935 72.7901-58.9935Q78.0978-58.9935 81.2844-56.3547Q84.4711-53.716 84.4711-49.2929Q84.4711-44.9201 81.1437-41.9044Q77.8164-38.8887 72.8706-38.8887L68.1158-38.8887Q66.9698-38.8887 66.1605-38.1598Q65.3513-37.431 65.3513-36.2046Q65.3513-35.0083 66.1605-34.2393Q66.9698-33.4702 68.1158-33.4702L73.2928-33.4702Q78.9925-33.4702 82.7219-30.3992Q86.4514-27.3282 86.4514-22.6237Q86.4514-17.6779 82.6566-14.6119Q78.8618-11.5459 72.6997-11.5459Q67.4824-11.5459 63.9691-14.0138Q60.4558-16.4817 59.4807-20.2915Q58.6865-22.7042 56.4347-22.7042Q55.1681-22.7042 54.3035-21.8648Q53.439-21.0254 53.439-19.6884Q53.439-18.7535 53.7104-17.6678Q55.1278-12.4706 60.3652-9.21362Q65.6026-5.9566 72.6394-5.9566Z"/>
  </g>
  <g id="Thin-L" transform="matrix(1 0 0 1 784.884 1556)">
   <path d="M32.7209 20.3407L110.349 20.3407Q118.553 20.3407 122.77 16.0483Q126.986 11.7559 126.986 3.71284L126.986-74.014Q126.986-82.057 122.77-86.3108Q118.553-90.5645 110.349-90.5645L32.7209-90.5645Q24.5201-90.5645 20.302-86.3495Q16.084-82.1344 16.084-74.014L16.084 3.71284Q16.084 11.9107 20.302 16.1257Q24.5201 20.3407 32.7209 20.3407ZM32.8818 16.4201Q26.5266 16.4201 23.2641 13.1606Q20.0016 9.9011 20.0016 3.53691L20.0016-73.7607Q20.0016-80.1218 23.2641-83.3829Q26.5266-86.6439 32.8818-86.6439L110.188-86.6439Q116.389-86.6439 119.729-83.3829Q123.069-80.1218 123.069-73.7607L123.069 3.53691Q123.069 9.9011 119.729 13.1606Q116.389 16.4201 110.188 16.4201ZM71.8251-6.49944Q80.1928-6.49944 85.5262-11.0552Q90.8596-15.611 90.8596-22.5513Q90.8596-27.7937 87.0813-31.7358Q83.3031-35.6778 77.6677-36.2408L77.6677-36.5685Q82.4899-37.4441 85.6695-41.2655Q88.8491-45.087 88.8491-49.9956Q88.8491-56.1286 83.9967-60.0843Q79.1444-64.04 71.8492-64.04Q65.5101-64.04 60.698-60.8558Q55.8858-57.6717 55.2153-52.7359Q55.1319-52.2443 55.0901-51.8347Q55.0484-51.4251 55.0484-50.9305Q55.0484-50.078 55.6028-49.5266Q56.1572-48.9752 56.9353-48.9752Q58.771-48.9752 58.974-50.7364Q59.5581-55.0429 63.1051-57.6696Q66.6521-60.2963 71.8402-60.2963Q77.5821-60.2963 81.1216-57.3183Q84.6611-54.3402 84.6611-49.4829Q84.6611-44.703 81.0351-41.3615Q77.4092-38.0201 72.1377-38.0201L66.813-38.0201Q66.0469-38.0201 65.4955-37.5491Q64.9441-37.0782 64.9441-36.2317Q64.9441-35.3883 65.4955-34.8771Q66.0469-34.3659 66.813-34.3659L72.6142-34.3659Q78.6125-34.3659 82.6405-30.9828Q86.6685-27.5996 86.6685-22.5694Q86.6685-17.0808 82.5616-13.6619Q78.4547-10.2431 71.8311-10.2431Q66.5325-10.2431 62.5984-12.9145Q58.6644-15.586 57.7708-19.803Q57.3294-21.5642 55.729-21.5642Q54.9509-21.5642 54.3578-21.0098Q53.7647-20.4554 53.7647-19.5255Q53.7647-18.7806 54.009-17.8035Q55.4535-12.7963 60.3923-9.64789Q65.3312-6.49944 71.8251-6.49944Z"/>
  </g>
  <g id="Ultralight-L" transform="matrix(1 0 0 1 488.735 1556)">
   <path d="M32.0258 19.7847L109.918 19.7847Q117.747 19.7847 121.803 15.6313Q125.86 11.4778 125.86 3.81015L125.86-74.0974Q125.86-81.7651 121.803-85.8729Q117.747-89.9806 109.918-89.9806L32.0258-89.9806Q24.1864-89.9806 20.1352-85.9185Q16.084-81.8564 16.084-74.0974L16.084 3.81015Q16.084 11.6604 20.1352 15.7226Q24.1864 19.7847 32.0258 19.7847ZM32.1867 17.2542Q25.4701 17.2542 22.0477 13.8209Q18.6253 10.3877 18.6253 3.70373L18.6253-73.8997Q18.6253-80.5945 22.0477-84.0223Q25.4701-87.4502 32.1867-87.4502L109.757-87.4502Q116.291-87.4502 119.805-84.0223Q123.319-80.5945 123.319-73.8997L123.319 3.70373Q123.319 10.3877 119.805 13.8209Q116.291 17.2542 109.757 17.2542ZM71.408-6.77748Q79.3865-6.77748 84.6017-11.2777Q89.8169-15.7779 89.8169-22.6069Q89.8169-27.7798 86.0317-31.7149Q82.2466-35.65 76.6389-36.213L76.6389-36.5129Q81.475-37.4302 84.6407-41.2447Q87.8064-45.0592 87.8064-49.9539Q87.8064-55.9896 83.0792-59.8758Q78.3519-63.7619 71.321-63.7619Q65.2877-63.7619 60.6006-60.6125Q55.9136-57.4632 55.3682-52.6664Q55.2987-52.2165 55.2639-51.8416Q55.2291-51.4668 55.2291-51.0278Q55.2291-50.3977 55.6376-49.9784Q56.046-49.5591 56.5739-49.5591Q58.1037-49.5591 58.1121-50.9867Q58.5989-55.46 62.2918-58.2118Q65.9848-60.9636 71.3536-60.9636Q77.318-60.9636 81.0382-57.8118Q84.7584-54.66 84.7584-49.5802Q84.7584-44.5918 80.9795-41.0835Q77.2007-37.5753 71.7624-37.5753L66.1457-37.5753Q65.5743-37.5753 65.1549-37.2363Q64.7356-36.8974 64.7356-36.2456Q64.7356-35.5829 65.1549-35.2038Q65.5743-34.8247 66.1457-34.8247L72.2667-34.8247Q78.4179-34.8247 82.5988-31.2817Q86.7798-27.7387 86.7798-22.5416Q86.7798-16.7749 82.513-13.1754Q78.2462-9.57581 71.3863-9.57581Q66.0459-9.57581 61.8964-12.3515Q57.7469-15.1272 56.8949-19.5527Q56.6343-20.9803 55.3676-20.9803Q54.8397-20.9803 54.3856-20.5719Q53.9315-20.1634 53.9315-19.4421Q53.9315-18.7945 54.1619-17.873Q55.6204-12.9632 60.4062-9.87032Q65.1921-6.77748 71.408-6.77748Z"/>
  </g>
  <g id="Black-M" transform="matrix(1 0 0 1 2872.54 1126)">
   <path d="M31.6183 13.203L90.1012 13.203Q99.1693 13.203 104.214 8.16134Q109.259 3.11973 109.259-5.93791L109.259-64.4591Q109.259-73.5167 104.214-78.5585Q99.1693-83.6003 90.1012-83.6003L31.6183-83.6003Q22.5558-83.6003 17.5084-78.5583Q12.4609-73.5164 12.4609-64.4591L12.4609-5.93791Q12.4609 3.11912 17.5084 8.16104Q22.5558 13.203 31.6183 13.203ZM34.2552-4.14063Q32.0406-4.14063 30.9198-5.17025Q29.799-6.19988 29.799-8.60232L29.799-61.795Q29.799-64.249 30.9198-65.2528Q32.0406-66.2567 34.2552-66.2567L87.4644-66.2567Q89.7367-66.2567 90.8286-65.2528Q91.9206-64.249 91.9206-61.795L91.9206-8.60232Q91.9206-6.19988 90.8286-5.17025Q89.7367-4.14063 87.4644-4.14063ZM61.2224-12.9647Q70.2493-12.9647 75.436-16.507Q80.6227-20.0492 80.6227-26.0796Q80.6227-30.157 78.0683-33.0128Q75.5138-35.8687 71.5982-36.1335L71.5982-36.9076Q74.8742-37.3481 77.2551-39.9392Q79.636-42.5303 79.636-45.6512Q79.636-51.1101 74.6491-54.3333Q69.6622-57.5566 61.2665-57.5566Q54.6297-57.5566 50.1021-55.4529Q45.5746-53.3492 44.1701-49.6077Q43.931-48.9318 43.7829-48.2068Q43.6348-47.4819 43.6348-46.7434Q43.6348-44.0338 45.468-42.4631Q47.3011-40.8923 50.4733-40.8923Q54.0208-40.8923 56.3351-43.7604Q57.3237-45.0604 58.5539-45.725Q59.7841-46.3897 61.1929-46.3897Q62.7358-46.3897 63.6382-45.7494Q64.5405-45.1092 64.5405-44.0232Q64.5405-42.7086 63.5934-41.9279Q62.6462-41.1473 60.9983-41.1473L60.6509-41.1473Q57.5008-41.1473 55.7302-39.6388Q53.9596-38.1304 53.9596-35.4318Q53.9596-32.7958 55.7588-31.2277Q57.5579-29.6596 60.6509-29.6596L61.0185-29.6596Q63.0043-29.6596 64.0346-28.9878Q65.0649-28.3159 65.0649-27.0833Q65.0649-25.9778 64.0892-25.283Q63.1136-24.5883 61.576-24.5883Q59.7643-24.5883 58.45-25.2639Q57.1357-25.9394 56.0912-27.2176Q53.7668-30.0857 50.1668-30.0857Q47.0517-30.0857 45.2187-28.5095Q43.3857-26.9332 43.3857-24.2239Q43.3857-22.7682 43.9207-21.3704Q45.3221-17.6973 50.154-15.331Q54.9859-12.9647 61.2224-12.9647Z"/>
  </g>
  <g id="Heavy-M" transform="matrix(1 0 0 1 2576.65 1126)">
   <path d="M30.7128 12.3923L89.3692 12.3923Q98.107 12.3923 102.864 7.64094Q107.621 2.88957 107.621-5.81086L107.621-64.5834Q107.621-73.2838 102.864-78.0339Q98.107-82.7841 89.3692-82.7841L30.7128-82.7841Q21.9913-82.7841 17.2261-78.0352Q12.4609-73.2862 12.4609-64.5834L12.4609-5.81086Q12.4609 2.89446 17.2261 7.64338Q21.9913 12.3923 30.7128 12.3923ZM32.7568-2.72252Q30.2012-2.72252 28.8804-3.96168Q27.5595-5.20084 27.5595-7.93601L27.5595-62.4558Q27.5595-65.2183 28.8804-66.4438Q30.2012-67.6693 32.7568-67.6693L87.3253-67.6693Q89.9196-67.6693 91.221-66.4438Q92.5225-65.2183 92.5225-62.4558L92.5225-7.93601Q92.5225-5.20084 91.221-3.96168Q89.9196-2.72252 87.3253-2.72252ZM60.2506-12.7367Q68.9984-12.7367 74.0337-16.3219Q79.069-19.9071 79.069-25.875Q79.069-30.006 76.4324-32.9144Q73.7957-35.8228 69.7509-36.128L69.7509-36.8023Q73.1239-37.2645 75.5358-39.9485Q77.9476-42.6326 77.9476-45.9259Q77.9476-51.2982 73.1471-54.5414Q68.3467-57.7846 60.3805-57.7846Q53.8985-57.7846 49.4563-55.5665Q45.0141-53.3484 43.7152-49.4727Q43.5058-48.832 43.3793-48.1745Q43.2528-47.5171 43.2528-46.8166Q43.2528-44.4069 44.8752-42.9971Q46.4976-41.5872 49.27-41.5872Q52.5683-41.5872 54.5342-44.3759Q55.4766-46.0187 56.9445-46.9035Q58.4124-47.7883 60.2882-47.7883Q62.3332-47.7883 63.5206-46.8981Q64.708-46.0078 64.708-44.4737Q64.708-42.7674 63.4476-41.6978Q62.1873-40.6281 60.1021-40.6281L59.1041-40.6281Q56.3967-40.6281 54.8342-39.2805Q53.2716-37.933 53.2716-35.5558Q53.2716-33.2386 54.856-31.838Q56.4403-30.4375 59.1041-30.4375L60.1818-30.4375Q62.6694-30.4375 64.0668-29.4376Q65.4642-28.4378 65.4642-26.714Q65.4642-25.0953 64.0998-24.0886Q62.7355-23.0819 60.5448-23.0819Q58.2263-23.0819 56.6807-24.0005Q55.1352-24.919 54.1394-26.4944Q52.1336-29.283 48.8153-29.283Q46.0865-29.283 44.4629-27.8569Q42.8392-26.4308 42.8392-24.0188Q42.8392-22.6901 43.3041-21.3976Q44.6275-17.5955 49.3483-15.1661Q54.069-12.7367 60.2506-12.7367Z"/>
  </g>
  <g id="Bold-M" transform="matrix(1 0 0 1 2280.85 1126)">
   <path d="M29.6999 11.4855L88.5504 11.4855Q96.9187 11.4855 101.354 7.05878Q105.789 2.6321 105.789-5.66875L105.789-64.7224Q105.789-73.0233 101.354-77.4472Q96.9187-81.8711 88.5504-81.8711L29.6999-81.8711Q21.3597-81.8711 16.9103-77.4499Q12.4609-73.0288 12.4609-64.7224L12.4609-5.66875Q12.4609 2.64314 16.9103 7.0643Q21.3597 11.4855 29.6999 11.4855ZM31.0806-1.13616Q28.1436-1.13616 26.5989-2.60972Q25.0543-4.08328 25.0543-7.19066L25.0543-63.195Q25.0543-66.3027 26.5989-67.7761Q28.1436-69.2495 31.0806-69.2495L87.1696-69.2495Q90.1241-69.2495 91.66-67.7761Q93.1959-66.3027 93.1959-63.195L93.1959-7.19066Q93.1959-4.08328 91.66-2.60972Q90.1241-1.13616 87.1696-1.13616ZM59.1635-12.4817Q67.5991-12.4817 72.465-16.1149Q77.331-19.748 77.331-25.6461Q77.331-29.8371 74.6024-32.8043Q71.8737-35.7714 67.6843-36.1219L67.6843-36.6845Q71.166-37.1709 73.6124-39.959Q76.0589-42.747 76.0589-46.2332Q76.0589-51.5086 71.467-54.7741Q66.875-58.0396 59.3894-58.0396Q53.0805-58.0396 48.7339-55.6935Q44.3872-53.3475 43.2064-49.3216Q43.0302-48.7203 42.9279-48.1384Q42.8255-47.5564 42.8255-46.8984Q42.8255-44.8244 44.2121-43.5945Q45.5987-42.3645 47.9239-42.3645Q50.9435-42.3645 52.5197-45.0643Q53.4104-47.0907 55.1442-48.2218Q56.8781-49.3528 59.2761-49.3528Q61.8829-49.3528 63.3891-48.183Q64.8953-47.0131 64.8953-44.9775Q64.8953-42.8333 63.2846-41.4403Q61.6739-40.0473 59.0996-40.0473L57.3738-40.0473Q55.1616-40.0473 53.8318-38.8797Q52.502-37.7121 52.502-35.6946Q52.502-33.7338 53.8461-32.5208Q55.1902-31.3078 57.3738-31.3078L59.2457-31.3078Q62.2947-31.3078 64.1028-29.9409Q65.9108-28.574 65.9108-26.3009Q65.9108-24.1082 64.1117-22.7525Q62.3125-21.3968 59.3912-21.3968Q56.5058-21.3968 54.7015-22.5871Q52.8973-23.7774 51.9559-25.6854Q50.3067-28.3851 47.3033-28.3851Q45.0067-28.3851 43.6174-27.127Q42.228-25.8688 42.228-23.7893Q42.228-22.6027 42.6144-21.4281Q43.8504-17.4817 48.4469-14.9817Q53.0434-12.4817 59.1635-12.4817Z"/>
  </g>
  <g id="Semibold-M" transform="matrix(1 0 0 1 1984.77 1126)">
   <path d="M29.0015 10.8603L87.9858 10.8603Q96.0995 10.8603 100.313 6.65745Q104.526 2.45461 104.526-5.57077L104.526-64.8183Q104.526-72.8436 100.313-77.0427Q96.0995-81.2417 87.9858-81.2417L29.0015-81.2417Q20.9244-81.2417 16.6926-77.0465Q12.4609-72.8513 12.4609-64.8183L12.4609-5.57077Q12.4609 2.46989 16.6926 6.66509Q20.9244 10.8603 29.0015 10.8603ZM29.925-0.0425279Q26.725-0.0425279 25.0262-1.67768Q23.3273-3.31284 23.3273-6.67681L23.3273-63.7046Q23.3273-67.0502 25.0262-68.6945Q26.725-70.3389 29.925-70.3389L87.0623-70.3389Q90.2652-70.3389 91.9626-68.6945Q93.6601-67.0502 93.6601-63.7046L93.6601-6.67681Q93.6601-3.31284 91.9626-1.67768Q90.2652-0.0425279 87.0623-0.0425279ZM58.414-12.3059Q66.6344-12.3059 71.3836-15.9721Q76.1328-19.6384 76.1328-25.4884Q76.1328-29.7207 73.3408-32.7283Q70.5487-35.736 66.2597-36.1176L66.2597-36.6033Q69.8162-37.1065 72.2865-39.9662Q74.7568-42.8259 74.7568-46.4451Q74.7568-51.6537 70.3087-54.9346Q65.8605-58.2154 58.7061-58.2154Q52.5166-58.2154 48.2358-55.7811Q43.955-53.3468 42.8557-49.2175Q42.7024-48.6434 42.6167-48.1135Q42.5309-47.5836 42.5309-46.9548Q42.5309-45.1121 43.755-44.0063Q44.9791-42.9004 46.9958-42.9004Q49.8233-42.9004 51.1308-45.5389Q51.9859-47.8298 53.9031-49.1306Q55.8203-50.4314 58.5784-50.4314Q61.5724-50.4314 63.2984-49.0688Q65.0245-47.7062 65.0245-45.3249Q65.0245-42.8787 63.1722-41.2628Q61.3199-39.647 58.4085-39.647L56.1809-39.647Q54.3102-39.647 53.1408-38.6034Q51.9714-37.5599 51.9714-35.7902Q51.9714-34.0753 53.1498-32.9915Q54.3283-31.9077 56.1809-31.9077L58.6004-31.9077Q62.0364-31.9077 64.1276-30.2878Q66.2188-28.668 66.2188-26.0161Q66.2188-23.4276 64.1199-21.8314Q62.0209-20.2351 58.596-20.2351Q55.3197-20.2351 53.3371-21.6128Q51.3545-22.9904 50.4507-25.1276Q49.0472-27.7661 46.261-27.7661Q44.2624-27.7661 43.0345-26.6238Q41.8066-25.4814 41.8066-23.6311Q41.8066-22.5425 42.139-21.4491Q43.3147-17.4032 47.8256-14.8546Q52.3364-12.3059 58.414-12.3059Z"/>
  </g>
  <g id="Medium-M" transform="matrix(1 0 0 1 1688.54 1126)">
   <path d="M28.472 10.3863L87.5578 10.3863Q95.4783 10.3863 99.5236 6.35315Q103.569 2.32003 103.569-5.49648L103.569-64.8909Q103.569-72.7075 99.5236-76.736Q95.4783-80.7644 87.5578-80.7644L28.472-80.7644Q20.5942-80.7644 16.5276-76.7406Q12.4609-72.7167 12.4609-64.8909L12.4609-5.49648Q12.4609 2.33852 16.5276 6.36239Q20.5942 10.3863 28.472 10.3863ZM29.0488 0.786706Q25.6495 0.786706 23.8336-0.970977Q22.0177-2.72866 22.0177-6.28719L22.0177-64.091Q22.0177-67.617 23.8336-69.391Q25.6495-71.1649 29.0488-71.1649L86.981-71.1649Q90.3721-71.1649 92.1921-69.391Q94.0121-67.617 94.0121-64.091L94.0121-6.28719Q94.0121-2.72866 92.1921-0.970977Q90.3721 0.786706 86.981 0.786706ZM57.8458-12.1726Q65.9029-12.1726 70.5636-15.8639Q75.2243-19.5552 75.2243-25.3687Q75.2243-29.6324 72.3842-32.6708Q69.5441-35.7091 65.1794-36.1144L65.1794-36.5417Q68.7927-37.0576 71.2811-39.9717Q73.7695-42.8857 73.7695-46.6057Q73.7695-51.7637 69.4304-55.0562Q65.0913-58.3487 58.188-58.3487Q52.0891-58.3487 47.8582-55.8475Q43.6273-53.3464 42.5897-49.1385Q42.4538-48.585 42.3807-48.0946Q42.3076-47.6042 42.3076-46.9976Q42.3076-45.3303 43.4084-44.3185Q44.5092-43.3068 46.2922-43.3068Q48.974-43.3068 50.0778-45.8988Q50.9059-48.3902 52.962-49.8197Q55.0182-51.2492 58.0494-51.2492Q61.337-51.2492 63.2297-49.7405Q65.1224-48.2317 65.1224-45.5883Q65.1224-42.9131 63.087-41.1282Q61.0516-39.3434 57.8844-39.3434L55.2764-39.3434Q53.6646-39.3434 52.6168-38.3939Q51.569-37.4444 51.569-35.8627Q51.569-34.3341 52.6219-33.3484Q53.6748-32.3626 55.2764-32.3626L58.111-32.3626Q61.8406-32.3626 64.1464-30.5509Q66.4522-28.7392 66.4522-25.8001Q66.4522-22.9116 64.126-21.133Q61.7998-19.3543 57.993-19.3543Q54.4203-19.3543 52.3025-20.874Q50.1847-22.3937 49.3093-24.7047Q48.0922-27.2967 45.4707-27.2967Q43.698-27.2967 42.5925-26.2422Q41.4871-25.1876 41.4871-23.5111Q41.4871-22.4968 41.7784-21.465Q42.9085-17.3437 47.3544-14.7582Q51.8003-12.1726 57.8458-12.1726Z"/>
  </g>
  <g id="Regular-M" transform="matrix(1 0 0 1 1392.45 1126)">
   <path d="M27.7814 9.76797L86.9995 9.76797Q94.6681 9.76797 98.494 5.95622Q102.32 2.14448 102.32-5.39959L102.32-64.9857Q102.32-72.5298 98.494-76.3359Q94.6681-80.142 86.9995-80.142L27.7814-80.142Q20.1637-80.142 16.3123-76.3416Q12.4609-72.5412 12.4609-64.9857L12.4609-5.39959Q12.4609 2.16717 16.3123 5.96757Q20.1637 9.76797 27.7814 9.76797ZM27.906 1.86832Q24.2465 1.86832 22.2781-0.0491846Q20.3096-1.96668 20.3096-5.77899L20.3096-64.595Q20.3096-68.3563 22.2781-70.2993Q24.2465-72.2423 27.906-72.2423L86.8749-72.2423Q90.5116-72.2423 92.4914-70.2993Q94.4712-68.3563 94.4712-64.595L94.4712-5.77899Q94.4712-1.96668 92.4914-0.0491846Q90.5116 1.86832 86.8749 1.86832ZM57.1046-11.9987Q64.9488-11.9987 69.4941-15.7227Q74.0393-19.4468 74.0393-25.2127Q74.0393-29.5173 71.1365-32.5957Q68.2337-35.6741 63.7704-36.1102L63.7704-36.4614Q67.4577-36.9938 69.9697-39.9788Q72.4817-42.9637 72.4817-46.8153Q72.4817-51.9072 68.2848-55.2149Q64.0879-58.5226 57.5122-58.5226Q51.5314-58.5226 47.3656-55.9342Q43.1998-53.3457 42.2428-49.0356Q42.1295-48.5089 42.0729-48.0699Q42.0162-47.631 42.0162-47.0533Q42.0162-45.6149 42.9563-44.7259Q43.8963-43.8368 45.3744-43.8368Q47.8662-43.8368 48.7042-46.3682Q49.4971-49.1211 51.7345-50.7185Q53.972-52.316 57.3594-52.316Q61.0299-52.316 63.14-50.6165Q65.2501-48.9171 65.2501-45.9319Q65.2501-42.958 62.9758-40.9527Q60.7015-38.9474 57.2009-38.9474L54.0966-38.9474Q52.8225-38.9474 51.9334-38.1206Q51.0443-37.2938 51.0443-35.9573Q51.0443-34.6718 51.9334-33.8139Q52.8225-32.9559 54.0966-32.9559L57.4728-32.9559Q61.5851-32.9559 64.1709-30.894Q66.7568-28.8321 66.7568-25.5184Q66.7568-22.2386 64.1341-20.222Q61.5115-18.2053 57.2065-18.2053Q53.2473-18.2053 50.953-19.9103Q48.6588-21.6154 47.8206-24.1531Q46.8466-26.6845 44.4398-26.6845Q42.9618-26.6845 42.016-25.7445Q41.0703-24.8044 41.0703-23.3547Q41.0703-22.4372 41.3082-21.4857Q42.3787-17.2661 46.7399-14.6324Q51.101-11.9987 57.1046-11.9987Z"/>
  </g>
  <g id="Light-M" transform="matrix(1 0 0 1 1096.49 1126)">
   <path d="M26.8614 9.03201L86.4291 9.03201Q93.601 9.03201 97.2153 5.40425Q100.83 1.7765 100.83-5.27079L100.83-65.0961Q100.83-72.1434 97.2153-75.7563Q93.601-79.3692 86.4291-79.3692L26.8614-79.3692Q19.7221-79.3692 16.0915-75.7712Q12.4609-72.1732 12.4609-65.0961L12.4609-5.27079Q12.4609 1.83599 16.0915 5.434Q19.7221 9.03201 26.8614 9.03201ZM26.986 2.97226Q22.8482 2.97226 20.6682 0.824768Q18.4881-1.32272 18.4881-5.55821L18.4881-64.779Q18.4881-68.9819 20.6682-71.1457Q22.8482-73.3094 26.986-73.3094L86.3045-73.3094Q90.3828-73.3094 92.5926-71.1457Q94.8024-68.9819 94.8024-64.779L94.8024-5.55821Q94.8024-1.32272 92.5926 0.824768Q90.3828 2.97226 86.3045 2.97226ZM56.5526-12.3667Q63.8817-12.3667 68.2705-16.0171Q72.6594-19.6676 72.6594-25.2863Q72.6594-29.4989 69.7474-32.5681Q66.8353-35.6373 62.4089-36.0734L62.4089-36.3878Q66.1146-36.9754 68.6082-39.9512Q71.1018-42.9269 71.1018-46.7601Q71.1018-51.7232 67.0705-54.9389Q63.0391-58.1546 56.8131-58.1546Q51.237-58.1546 47.2368-55.6122Q43.2366-53.0698 42.4452-48.9436Q42.3503-48.4721 42.3029-48.0791Q42.2554-47.6862 42.2554-47.1821Q42.2554-46.0381 43.0023-45.3238Q43.7492-44.6095 44.896-44.6095Q46.983-44.6095 47.5635-46.6994Q48.2275-49.6731 50.6582-51.4361Q53.0889-53.1991 56.7154-53.1991Q60.6804-53.1991 63.0296-51.2697Q65.3789-49.3403 65.3789-46.0607Q65.3789-42.8108 62.9022-40.5847Q60.4255-38.3586 56.7041-38.3586L53.2135-38.3586Q52.1969-38.3586 51.4826-37.7066Q50.7683-37.0546 50.7683-35.9757Q50.7683-34.9294 51.4826-34.2463Q52.1969-33.5631 53.2135-33.5631L57.0128-33.5631Q61.3275-33.5631 64.1157-31.2896Q66.904-29.0161 66.904-25.4816Q66.904-21.8338 64.0697-19.578Q61.2355-17.3222 56.6177-17.3222Q52.6033-17.3222 50.0239-19.1652Q47.4445-21.0082 46.6615-23.8219Q45.9267-25.9118 43.9614-25.9118Q42.8146-25.9118 42.0528-25.1649Q41.2911-24.418 41.2911-23.2443Q41.2911-22.4556 41.5106-21.5777Q42.5995-17.4869 46.7583-14.9268Q50.917-12.3667 56.5526-12.3667Z"/>
  </g>
  <g id="Thin-M" transform="matrix(1 0 0 1 800.76 1126)">
   <path d="M25.6447 8.05864L85.6747 8.05864Q92.1896 8.05864 95.5241 4.67423Q98.8585 1.28982 98.8585-5.10045L98.8585-65.2421Q98.8585-71.6324 95.5241-74.9898Q92.1896-78.3472 85.6747-78.3472L25.6447-78.3472Q19.1381-78.3472 15.7995-75.0168Q12.4609-71.6865 12.4609-65.2421L12.4609-5.10045Q12.4609 1.39797 15.7995 4.72831Q19.1381 8.05864 25.6447 8.05864ZM25.7693 4.43231Q20.9988 4.43231 18.5389 1.98064Q16.079-0.471023 16.079-5.2662L16.079-65.0223Q16.079-69.8093 18.5389-72.2651Q20.9988-74.7208 25.7693-74.7208L85.5501-74.7208Q90.2125-74.7208 92.7264-72.2651Q95.2404-69.8093 95.2404-65.0223L95.2404-5.2662Q95.2404-0.471023 92.7264 1.98064Q90.2125 4.43231 85.5501 4.43231ZM55.8226-12.8533Q62.4703-12.8533 66.6523-16.4065Q70.8343-19.9596 70.8343-25.3836Q70.8343-29.4745 67.9101-32.5316Q64.9859-35.5886 60.6082-36.0248L60.6082-36.2904Q64.3382-36.9511 66.8075-39.9147Q69.2767-42.8783 69.2767-46.6871Q69.2767-51.4798 65.4644-54.5739Q61.6521-57.6679 55.8884-57.6679Q50.8476-57.6679 47.0665-55.1863Q43.2853-52.7047 42.7128-48.8219Q42.6423-48.4234 42.607-48.0913Q42.5718-47.7592 42.5718-47.3525Q42.5718-46.5978 43.0631-46.1147Q43.5545-45.6315 44.2633-45.6315Q45.815-45.6315 46.0548-47.1374Q46.5485-50.4031 49.2347-52.3851Q51.9208-54.3672 55.8637-54.3672Q60.218-54.3672 62.8836-52.1336Q65.5493-49.9 65.5493-46.231Q65.5493-42.6161 62.8049-40.098Q60.0605-37.5799 56.0471-37.5799L52.0454-37.5799Q51.3695-37.5799 50.8864-37.1591Q50.4033-36.7383 50.4033-36.0001Q50.4033-35.2701 50.8864-34.8181Q51.3695-34.3661 52.0454-34.3661L56.4045-34.3661Q60.9868-34.3661 64.0427-31.8128Q67.0986-29.2594 67.0986-25.433Q67.0986-21.2985 63.9846-18.7263Q60.8705-16.1541 55.839-16.1541Q51.7516-16.1541 48.795-18.1796Q45.8384-20.2052 45.1284-23.3839Q44.7099-24.8897 43.3287-24.8897Q42.6199-24.8897 42.1015-24.3984Q41.5831-23.907 41.5831-23.0983Q41.5831-22.48 41.7783-21.6994Q42.8915-17.7789 46.7826-15.3161Q50.6737-12.8533 55.8226-12.8533Z"/>
  </g>
  <g id="Ultralight-M" transform="matrix(1 0 0 1 504.553 1126)">
   <path d="M25.0215 7.56009L85.2884 7.56009Q91.4667 7.56009 94.6578 4.30031Q97.8489 1.04054 97.8489-5.01321L97.8489-65.3169Q97.8489-71.3707 94.6578-74.5972Q91.4667-77.8237 85.2884-77.8237L25.0215-77.8237Q18.8389-77.8237 15.6499-74.6305Q12.4609-71.4372 12.4609-65.3169L12.4609-5.01321Q12.4609 1.17363 15.6499 4.36686Q18.8389 7.56009 25.0215 7.56009ZM25.1461 5.18014Q20.0516 5.18014 17.4483 2.57267Q14.8451-0.034789 14.8451-5.11663L14.8451-65.147Q14.8451-70.233 17.4483-72.8384Q20.0516-75.4437 25.1461-75.4437L85.1638-75.4437Q90.1252-75.4437 92.795-72.8384Q95.4648-70.233 95.4648-65.147L95.4648-5.11663Q95.4648-0.034789 92.795 2.57267Q90.1252 5.18014 85.1638 5.18014ZM55.4487-13.1026Q61.7474-13.1026 65.8235-16.6059Q69.8996-20.1092 69.8996-25.4335Q69.8996-29.4621 66.9691-32.5129Q64.0387-35.5637 59.6858-35.9998L59.6858-36.2406Q63.4283-36.9386 65.8851-39.896Q68.3419-42.8533 68.3419-46.6497Q68.3419-51.3552 64.6418-54.3869Q60.9417-57.4187 55.4148-57.4187Q50.6482-57.4187 46.9792-54.9682Q43.3102-52.5178 42.8499-48.7596Q42.7919-48.3985 42.7628-48.0975Q42.7338-47.7966 42.7338-47.4397Q42.7338-46.8845 43.0943-46.5198Q43.4548-46.155 43.9392-46.155Q45.2167-46.155 45.282-47.3617Q45.6885-50.777 48.5055-52.8712Q51.3226-54.9654 55.4275-54.9654Q59.9812-54.9654 62.8089-52.576Q65.6365-50.1866 65.6365-46.3182Q65.6365-42.5164 62.755-39.8487Q59.8735-37.1811 55.7106-37.1811L51.4472-37.1811Q50.9458-37.1811 50.581-36.8787Q50.2163-36.5763 50.2163-36.0125Q50.2163-35.4446 50.581-35.111Q50.9458-34.7774 51.4472-34.7774L56.0929-34.7774Q60.8124-34.7774 64.0054-32.0808Q67.1984-29.3841 67.1984-25.408Q67.1984-21.0243 63.9409-18.2901Q60.6835-15.5559 55.4402-15.5559Q51.3154-15.5559 48.1656-17.6749Q45.0158-19.7939 44.3432-23.1596Q44.0868-24.3663 43.0047-24.3663Q42.5202-24.3663 42.1264-24.0058Q41.7327-23.6453 41.7327-23.0235Q41.7327-22.4924 41.9154-21.7617Q43.0411-17.9285 46.7951-15.5156Q50.549-13.1026 55.4487-13.1026Z"/>
  </g>
  <g id="Black-S" transform="matrix(1 0 0 1 2885.5 696)">
   <path d="M25 2.92969L70.8008 2.92969Q77.9785 2.92969 82.0068-1.09863Q86.0352-5.12695 86.0352-12.3047L86.0352-58.1055Q86.0352-65.2832 82.0068-69.3115Q77.9785-73.3398 70.8008-73.3398L25-73.3398Q17.8223-73.3398 13.7939-69.3115Q9.76562-65.2832 9.76562-58.1055L9.76562-12.3047Q9.76562-5.12695 13.7939-1.09863Q17.8223 2.92969 25 2.92969ZM27.2461-11.2305Q25.5859-11.2305 24.7559-11.9873Q23.9258-12.7441 23.9258-14.5508L23.9258-55.8594Q23.9258-57.7148 24.7559-58.4473Q25.5859-59.1797 27.2461-59.1797L68.5547-59.1797Q70.2637-59.1797 71.0693-58.4473Q71.875-57.7148 71.875-55.8594L71.875-14.5508Q71.875-12.7441 71.0693-11.9873Q70.2637-11.2305 68.5547-11.2305ZM48.2422-17.8711Q55.3711-17.8711 59.4727-20.6299Q63.5742-23.3887 63.5742-28.125Q63.5742-31.2988 61.5967-33.5205Q59.6191-35.7422 56.5918-35.9375L56.5918-36.5723Q59.1309-36.9141 60.9863-38.916Q62.8418-40.918 62.8418-43.3105Q62.8418-47.6074 58.8867-50.1221Q54.9316-52.6367 48.2422-52.6367Q43.0176-52.6367 39.4531-51.0254Q35.8887-49.4141 34.7656-46.5332Q34.5703-45.9961 34.4482-45.4102Q34.3262-44.8242 34.3262-44.2383Q34.3262-42.041 35.8154-40.7715Q37.3047-39.502 39.8926-39.502Q42.7246-39.502 44.6289-41.748Q45.4102-42.6758 46.3135-43.1396Q47.2168-43.6035 48.1934-43.6035Q49.2676-43.6035 49.9023-43.1641Q50.5371-42.7246 50.5371-41.9922Q50.5371-41.0645 49.8779-40.5273Q49.2188-39.9902 48.0469-39.9902L47.9492-39.9902Q45.3613-39.9902 43.9209-38.7695Q42.4805-37.5488 42.4805-35.3516Q42.4805-33.2031 43.9453-31.9336Q45.4102-30.6641 47.9492-30.6641L48.0469-30.6641Q49.4629-30.6641 50.1709-30.2246Q50.8789-29.7852 50.8789-28.9551Q50.8789-28.2227 50.2197-27.7588Q49.5605-27.2949 48.5352-27.2949Q47.2656-27.2949 46.2891-27.7588Q45.3125-28.2227 44.4824-29.1504Q42.5781-31.3965 39.6973-31.3965Q37.1582-31.3965 35.6689-30.127Q34.1797-28.8574 34.1797-26.6602Q34.1797-25.4883 34.6191-24.3652Q35.7422-21.5332 39.5508-19.7021Q43.3594-17.8711 48.2422-17.8711Z"/>
  </g>
  <g id="Heavy-S" transform="matrix(1 0 0 1 2589.39 696)">
   <path d="M24.3431 2.33042L70.2476 2.33042Q77.2064 2.33042 81.0157-1.47318Q84.8251-5.27677 84.8251-12.2125L84.8251-58.1977Q84.8251-65.1334 81.0157-68.937Q77.2064-72.7406 70.2476-72.7406L24.3431-72.7406Q17.3959-72.7406 13.5807-68.937Q9.76562-65.1334 9.76562-58.1977L9.76562-12.2125Q9.76562-5.27677 13.5807-1.47318Q17.3959 2.33042 24.3431 2.33042ZM26.0821-10.1587Q24.1915-10.1587 23.2173-11.0653Q22.2432-11.972 22.2432-14.0091L22.2432-56.401Q22.2432-58.4639 23.2173-59.3577Q24.1915-60.2515 26.0821-60.2515L68.5086-60.2515Q70.4365-60.2515 71.392-59.3577Q72.3475-58.4639 72.3475-56.401L72.3475-14.0091Q72.3475-11.972 71.392-11.0653Q70.4365-10.1587 68.5086-10.1587ZM47.4816-17.6291Q54.4376-17.6291 58.4297-20.434Q62.4218-23.2389 62.4218-27.9406Q62.4218-31.1721 60.3751-33.4398Q58.3284-35.7076 55.1858-35.9375L55.1858-36.4916Q57.8055-36.8449 59.6898-38.9275Q61.5741-41.0102 61.5741-43.5526Q61.5741-47.7918 57.7573-50.3353Q53.9405-52.8787 47.5738-52.8787Q42.4298-52.8787 38.9172-51.1637Q35.4046-49.4486 34.3507-46.4295Q34.1785-45.9154 34.0737-45.3813Q33.9689-44.8473 33.9689-44.2844Q33.9689-42.3061 35.3026-41.1518Q36.6363-39.9975 38.9245-39.9975Q41.5952-39.9975 43.2344-42.2321Q43.9926-43.4249 45.0746-44.0558Q46.1565-44.6868 47.5019-44.6868Q48.9679-44.6868 49.8159-44.063Q50.6639-43.4391 50.6639-42.361Q50.6639-41.1336 49.7627-40.3775Q48.8615-39.6215 47.3439-39.6215L46.7391-39.6215Q44.497-39.6215 43.2121-38.516Q41.9273-37.4105 41.9273-35.4553Q41.9273-33.5489 43.2308-32.4003Q44.5343-31.2518 46.7391-31.2518L47.39-31.2518Q49.2094-31.2518 50.2055-30.5588Q51.2016-29.8658 51.2016-28.6439Q51.2016-27.5197 50.237-26.8195Q49.2724-26.1194 47.7284-26.1194Q46.0325-26.1194 44.8946-26.7734Q43.7567-27.4275 42.9612-28.5742Q41.2989-30.8087 38.6024-30.8087Q36.3515-30.8087 35.0178-29.6429Q33.6841-28.4771 33.6841-26.4988Q33.6841-25.4191 34.066-24.3768Q35.1199-21.418 38.8593-19.5235Q42.5988-17.6291 47.4816-17.6291Z"/>
  </g>
  <g id="Bold-S" transform="matrix(1 0 0 1 2293.36 696)">
   <path d="M23.6084 1.66016L69.6289 1.66016Q76.3428 1.66016 79.9072-1.89209Q83.4717-5.44434 83.4717-12.1094L83.4717-58.3008Q83.4717-64.9658 79.9072-68.5181Q76.3428-72.0703 69.6289-72.0703L23.6084-72.0703Q16.9189-72.0703 13.3423-68.5181Q9.76562-64.9658 9.76562-58.3008L9.76562-12.1094Q9.76562-5.44434 13.3423-1.89209Q16.9189 1.66016 23.6084 1.66016ZM24.7803-8.95996Q22.6318-8.95996 21.4966-10.0342Q20.3613-11.1084 20.3613-13.4033L20.3613-57.0068Q20.3613-59.3018 21.4966-60.376Q22.6318-61.4502 24.7803-61.4502L68.457-61.4502Q70.6299-61.4502 71.7529-60.376Q72.876-59.3018 72.876-57.0068L72.876-13.4033Q72.876-11.1084 71.7529-10.0342Q70.6299-8.95996 68.457-8.95996ZM46.6309-17.3584Q53.3936-17.3584 57.2632-20.2148Q61.1328-23.0713 61.1328-27.7344Q61.1328-31.0303 59.0088-33.3496Q56.8848-35.6689 53.6133-35.9375L53.6133-36.4014Q56.3232-36.7676 58.2397-38.9404Q60.1562-41.1133 60.1562-43.8232Q60.1562-47.998 56.4941-50.5737Q52.832-53.1494 46.8262-53.1494Q41.7725-53.1494 38.3179-51.3184Q34.8633-49.4873 33.8867-46.3135Q33.7402-45.8252 33.6548-45.3491Q33.5693-44.873 33.5693-44.3359Q33.5693-42.6025 34.729-41.5771Q35.8887-40.5518 37.8418-40.5518Q40.332-40.5518 41.6748-42.7734Q42.4072-44.2627 43.689-45.0806Q44.9707-45.8984 46.7285-45.8984Q48.6328-45.8984 49.7192-45.0684Q50.8057-44.2383 50.8057-42.7734Q50.8057-41.2109 49.6338-40.21Q48.4619-39.209 46.5576-39.209L45.3857-39.209Q43.5303-39.209 42.4194-38.2324Q41.3086-37.2559 41.3086-35.5713Q41.3086-33.9355 42.4316-32.9224Q43.5547-31.9092 45.3857-31.9092L46.6553-31.9092Q48.9258-31.9092 50.2441-30.9326Q51.5625-29.9561 51.5625-28.2959Q51.5625-26.7334 50.2563-25.769Q48.9502-24.8047 46.8262-24.8047Q44.6533-24.8047 43.335-25.6714Q42.0166-26.5381 41.2598-27.9297Q39.8682-30.1514 37.3779-30.1514Q35.4492-30.1514 34.2896-29.1016Q33.1299-28.0518 33.1299-26.3184Q33.1299-25.3418 33.4473-24.3896Q34.4238-21.2891 38.0859-19.3237Q41.748-17.3584 46.6309-17.3584Z"/>
  </g>
  <g id="Semibold-S" transform="matrix(1 0 0 1 1997.11 696)">
   <path d="M23.1019 1.19805L69.2023 1.19805Q75.7474 1.19805 79.143-2.18091Q82.5386-5.55986 82.5386-12.0383L82.5386-58.3719Q82.5386-64.8503 79.143-68.2292Q75.7474-71.6082 69.2023-71.6082L23.1019-71.6082Q16.5901-71.6082 13.1779-68.2292Q9.76562-64.8503 9.76562-58.3719L9.76562-12.0383Q9.76562-5.55986 13.1779-2.18091Q16.5901 1.19805 23.1019 1.19805ZM23.8827-8.1335Q21.5565-8.1335 20.3102-9.32324Q19.0639-10.513 19.0639-12.9856L19.0639-57.4245Q19.0639-59.8794 20.3102-61.078Q21.5565-62.2767 23.8827-62.2767L68.4215-62.2767Q70.7632-62.2767 72.0018-61.078Q73.2403-59.8794 73.2403-57.4245L73.2403-12.9856Q73.2403-10.513 72.0018-9.32324Q70.7632-8.1335 68.4215-8.1335ZM46.0443-17.1718Q52.6737-17.1718 56.4589-20.0638Q60.2441-22.9558 60.2441-27.5922Q60.2441-30.9325 58.0668-33.2874Q55.8895-35.6423 52.5291-35.9375L52.5291-36.3392Q55.3013-36.7143 57.24-38.9493Q59.1787-41.1844 59.1787-44.0099Q59.1787-48.1402 55.6232-50.7381Q52.0678-53.336 46.3107-53.336Q41.3192-53.336 37.9046-51.425Q34.49-49.514 33.5668-46.2335Q33.4381-45.763 33.366-45.3269Q33.2938-44.8908 33.2938-44.3715Q33.2938-42.8069 34.3335-41.8704Q35.3732-40.9339 37.0953-40.9339Q39.4611-40.9339 40.5995-43.1467Q41.3142-44.8403 42.7336-45.7871Q44.1531-46.7338 46.1953-46.7338Q48.4018-46.7338 49.6526-45.7615Q50.9034-44.7893 50.9034-43.0578Q50.9034-41.2643 49.5449-40.0944Q48.1864-38.9246 46.0155-38.9246L44.4526-38.9246Q42.8638-38.9246 41.8729-38.0369Q40.882-37.1492 40.882-35.6513Q40.882-34.2021 41.8807-33.2823Q42.8793-32.3624 44.4526-32.3624L46.1487-32.3624Q48.7303-32.3624 50.2708-31.1903Q51.8113-30.0183 51.8113-28.056Q51.8113-26.1913 50.2697-25.0448Q48.728-23.8982 46.2041-23.8982Q43.7024-23.8982 42.2597-24.9116Q40.8169-25.9249 40.0867-27.4854Q38.8817-29.6981 36.5337-29.6981Q34.8271-29.6981 33.7875-28.7283Q32.7478-27.7585 32.7478-26.1939Q32.7478-25.2885 33.0207-24.3985Q33.9439-21.2002 37.5527-19.186Q41.1615-17.1718 46.0443-17.1718Z"/>
  </g>
  <g id="Medium-S" transform="matrix(1 0 0 1 1700.76 696)">
   <path d="M22.7178 0.847656L68.8789 0.847656Q75.2959 0.847656 78.5635-2.3999Q81.8311-5.64746 81.8311-11.9844L81.8311-58.4258Q81.8311-64.7627 78.5635-68.0103Q75.2959-71.2578 68.8789-71.2578L22.7178-71.2578Q16.3408-71.2578 13.0532-68.0103Q9.76562-64.7627 9.76562-58.4258L9.76562-11.9844Q9.76562-5.64746 13.0532-2.3999Q16.3408 0.847656 22.7178 0.847656ZM23.2021-7.50684Q20.7412-7.50684 19.4106-8.78418Q18.0801-10.0615 18.0801-12.6689L18.0801-57.7412Q18.0801-60.3174 19.4106-61.6104Q20.7412-62.9033 23.2021-62.9033L68.3945-62.9033Q70.8643-62.9033 72.1904-61.6104Q73.5166-60.3174 73.5166-57.7412L73.5166-12.6689Q73.5166-10.0615 72.1904-8.78418Q70.8643-7.50684 68.3945-7.50684ZM45.5996-17.0303Q52.1279-17.0303 55.8491-19.9492Q59.5703-22.8682 59.5703-27.4844Q59.5703-30.8584 57.3525-33.2402Q55.1348-35.6221 51.707-35.9375L51.707-36.292Q54.5264-36.6738 56.4819-38.9561Q58.4375-41.2383 58.4375-44.1514Q58.4375-48.248 54.9629-50.8628Q51.4883-53.4775 45.9199-53.4775Q40.9756-53.4775 37.5913-51.5059Q34.207-49.5342 33.3242-46.1729Q33.209-45.7158 33.147-45.3101Q33.085-44.9043 33.085-44.3984Q33.085-42.9619 34.0337-42.0928Q34.9824-41.2236 36.5293-41.2236Q38.8008-41.2236 39.7842-43.4297Q40.4854-45.2783 42.0093-46.3228Q43.5332-47.3672 45.791-47.3672Q48.2266-47.3672 49.6021-46.2871Q50.9775-45.207 50.9775-43.2734Q50.9775-41.3047 49.4775-40.0068Q47.9775-38.709 45.6045-38.709L43.7451-38.709Q42.3584-38.709 41.4585-37.8887Q40.5586-37.0684 40.5586-35.7119Q40.5586-34.4043 41.4629-33.5552Q42.3672-32.7061 43.7451-32.7061L45.7646-32.7061Q48.582-32.7061 50.291-31.3857Q52-30.0654 52-27.874Q52-25.7803 50.2798-24.4956Q48.5596-23.2109 45.7324-23.2109Q42.9814-23.2109 41.4443-24.3354Q39.9072-25.46 39.1973-27.1484Q38.1338-29.3545 35.8936-29.3545Q34.3555-29.3545 33.4067-28.4453Q32.458-27.5361 32.458-26.0996Q32.458-25.248 32.6973-24.4053Q33.5801-21.1328 37.1484-19.0815Q40.7168-17.0303 45.5996-17.0303Z"/>
  </g>
  <g id="Regular-S" transform="matrix(1 0 0 1 1404.51 696)">
   <path d="M22.2168 0.390625L68.457 0.390625Q74.707 0.390625 77.8076-2.68555Q80.9082-5.76172 80.9082-11.9141L80.9082-58.4961Q80.9082-64.6484 77.8076-67.7246Q74.707-70.8008 68.457-70.8008L22.2168-70.8008Q16.0156-70.8008 12.8906-67.7246Q9.76562-64.6484 9.76562-58.4961L9.76562-11.9141Q9.76562-5.76172 12.8906-2.68555Q16.0156 0.390625 22.2168 0.390625ZM22.3145-6.68945Q19.6777-6.68945 18.2373-8.08105Q16.7969-9.47266 16.7969-12.2559L16.7969-58.1543Q16.7969-60.8887 18.2373-62.3047Q19.6777-63.7207 22.3145-63.7207L68.3594-63.7207Q70.9961-63.7207 72.4365-62.3047Q73.877-60.8887 73.877-58.1543L73.877-12.2559Q73.877-9.47266 72.4365-8.08105Q70.9961-6.68945 68.3594-6.68945ZM45.0195-16.8457Q51.416-16.8457 55.0537-19.7998Q58.6914-22.7539 58.6914-27.3438Q58.6914-30.7617 56.4209-33.1787Q54.1504-35.5957 50.6348-35.9375L50.6348-36.2305Q53.5156-36.6211 55.4932-38.9648Q57.4707-41.3086 57.4707-44.3359Q57.4707-48.3887 54.1016-51.0254Q50.7324-53.6621 45.4102-53.6621Q40.5273-53.6621 37.1826-51.6113Q33.8379-49.5605 33.0078-46.0938Q32.9102-45.6543 32.8613-45.2881Q32.8125-44.9219 32.8125-44.4336Q32.8125-43.1641 33.6426-42.3828Q34.4727-41.6016 35.791-41.6016Q37.9395-41.6016 38.7207-43.7988Q39.4043-45.8496 41.0645-47.0215Q42.7246-48.1934 45.2637-48.1934Q47.998-48.1934 49.5361-46.9727Q51.0742-45.752 51.0742-43.5547Q51.0742-41.3574 49.3896-39.8926Q47.7051-38.4277 45.0684-38.4277L42.8223-38.4277Q41.6992-38.4277 40.918-37.6953Q40.1367-36.9629 40.1367-35.791Q40.1367-34.668 40.918-33.9111Q41.6992-33.1543 42.8223-33.1543L45.2637-33.1543Q48.3887-33.1543 50.3174-31.6406Q52.2461-30.127 52.2461-27.6367Q52.2461-25.2441 50.293-23.7793Q48.3398-22.3145 45.1172-22.3145Q42.041-22.3145 40.3809-23.584Q38.7207-24.8535 38.0371-26.709Q37.1582-28.9062 35.0586-28.9062Q33.7402-28.9062 32.9102-28.0762Q32.0801-27.2461 32.0801-25.9766Q32.0801-25.1953 32.2754-24.4141Q33.1055-21.0449 36.6211-18.9453Q40.1367-16.8457 45.0195-16.8457Z"/>
  </g>
  <g id="Light-S" transform="matrix(1 0 0 1 1108.45 696)">
   <path d="M21.403-0.260417L67.9525-0.260417Q73.763-0.260417 76.6764-3.17383Q79.5898-6.08724 79.5898-11.8001L79.5898-58.5938Q79.5898-64.3066 76.6764-67.2119Q73.763-70.1172 67.9525-70.1172L21.403-70.1172Q15.625-70.1172 12.6953-67.2201Q9.76562-64.3229 9.76562-58.5938L9.76562-11.8001Q9.76562-6.05469 12.6953-3.15755Q15.625-0.260417 21.403-0.260417ZM21.5007-5.71289Q18.4408-5.71289 16.8132-7.30794Q15.1855-8.90299 15.1855-12.0605L15.1855-58.3171Q15.1855-61.4421 16.8132-63.0534Q18.4408-64.6647 21.5007-64.6647L67.8548-64.6647Q70.8822-64.6647 72.526-63.0534Q74.1699-61.4421 74.1699-58.3171L74.1699-12.0605Q74.1699-8.90299 72.526-7.30794Q70.8822-5.71289 67.8548-5.71289ZM44.5312-17.1712Q50.472-17.1712 53.9714-20.0602Q57.4707-22.9492 57.4707-27.4089Q57.4707-30.7454 55.1921-33.1543Q52.9134-35.5632 49.4303-35.9049L49.4303-36.1654Q52.3275-36.6048 54.2887-38.9404Q56.25-41.276 56.25-44.2871Q56.25-48.2259 53.0273-50.7812Q49.8047-53.3366 44.7917-53.3366Q40.2669-53.3366 37.0687-51.3265Q33.8704-49.3164 33.1868-46.0124Q33.1055-45.6217 33.0648-45.2962Q33.0241-44.9707 33.0241-44.5475Q33.0241-43.5384 33.6833-42.9118Q34.3424-42.2852 35.3678-42.2852Q37.1582-42.2852 37.7116-44.0918Q38.2812-46.3379 40.1123-47.6562Q41.9434-48.9746 44.694-48.9746Q47.6888-48.9746 49.4385-47.5505Q51.1882-46.1263 51.1882-43.6686Q51.1882-41.2272 49.3245-39.5671Q47.4609-37.9069 44.6289-37.9069L42.041-37.9069Q41.1458-37.9069 40.5192-37.3291Q39.8926-36.7513 39.8926-35.8073Q39.8926-34.8958 40.5192-34.2936Q41.1458-33.6914 42.041-33.6914L44.8568-33.6914Q48.1608-33.6914 50.2686-31.9906Q52.3763-30.2897 52.3763-27.6042Q52.3763-24.8861 50.236-23.2096Q48.0957-21.5332 44.5964-21.5332Q41.4714-21.5332 39.5589-22.9248Q37.6465-24.3164 37.0117-26.416Q36.3444-28.2227 34.6354-28.2227Q33.61-28.2227 32.9427-27.5635Q32.2754-26.9043 32.2754-25.8789Q32.2754-25.2116 32.4544-24.4954Q33.3008-21.2402 36.6374-19.2057Q39.974-17.1712 44.5312-17.1712Z"/>
  </g>
  <g id="Thin-S" transform="matrix(1 0 0 1 812.615 696)">
   <path d="M20.3267-1.12147L67.2852-1.12147Q72.5145-1.12147 75.1803-3.81962Q77.8462-6.51777 77.8462-11.6494L77.8462-58.7229Q77.8462-63.8546 75.1803-66.5338Q72.5145-69.2131 67.2852-69.2131L20.3267-69.2131Q15.1084-69.2131 12.437-66.5527Q9.76562-63.8924 9.76562-58.7229L9.76562-11.6494Q9.76562-6.44216 12.437-3.78182Q15.1084-1.12147 20.3267-1.12147ZM20.4243-4.42131Q16.8048-4.42131 14.9296-6.28544Q13.0544-8.14957 13.0544-11.8022L13.0544-58.5323Q13.0544-62.174 14.9296-64.0436Q16.8048-65.9132 20.4243-65.9132L67.1875-65.9132Q70.7315-65.9132 72.6444-64.0436Q74.5574-62.174 74.5574-58.5323L74.5574-11.8022Q74.5574-8.14957 72.6444-6.28544Q70.7315-4.42131 67.1875-4.42131ZM43.8855-17.6018Q49.2235-17.6018 52.5399-20.4046Q55.8562-23.2075 55.8562-27.495Q55.8562-30.7239 53.5668-33.122Q51.2774-35.5201 47.8374-35.8619L47.8374-36.0793Q50.756-36.5833 52.6958-38.9081Q54.6355-41.233 54.6355-44.2225Q54.6355-48.0106 51.6066-50.4584Q48.5777-52.9061 43.9737-52.9061Q39.9225-52.9061 36.918-50.9498Q33.9135-48.9935 33.4236-45.9047Q33.3638-45.5787 33.3339-45.307Q33.3039-45.0353 33.3039-44.6982Q33.3039-44.0335 33.7371-43.6114Q34.1702-43.1893 34.8082-43.1893Q36.1249-43.1893 36.377-44.4793Q36.7959-46.9837 38.853-48.4958Q40.9101-50.0079 43.9406-50.0079Q47.2798-50.0079 49.3093-48.3146Q51.3388-46.6214 51.3388-43.8193Q51.3388-41.055 49.2384-39.1365Q47.138-37.2181 44.0477-37.2181L41.0077-37.2181Q40.4139-37.2181 39.9918-36.8448Q39.5697-36.4715 39.5697-35.8288Q39.5697-35.1972 39.9918-34.7995Q40.4139-34.4018 41.0077-34.4018L44.3186-34.4018Q47.8594-34.4018 50.204-32.4534Q52.5485-30.505 52.5485-27.5611Q52.5485-24.4125 50.1607-22.4562Q47.7728-20.4999 43.9075-20.4999Q40.7179-20.4999 38.4718-22.053Q36.2257-23.606 35.6556-26.0285Q35.2681-27.3185 34.0757-27.3185Q33.4378-27.3185 32.9858-26.8854Q32.5337-26.4522 32.5337-25.7497Q32.5337-25.2331 32.6912-24.6031Q33.5591-21.4986 36.6589-19.5502Q39.7587-17.6018 43.8855-17.6018Z"/>
  </g>
  <g id="Ultralight-S" transform="matrix(1 0 0 1 516.35 696)">
   <path d="M19.7754-1.5625L66.9434-1.5625Q71.875-1.5625 74.4141-4.15039Q76.9531-6.73828 76.9531-11.5723L76.9531-58.7891Q76.9531-63.623 74.4141-66.1865Q71.875-68.75 66.9434-68.75L19.7754-68.75Q14.8438-68.75 12.3047-66.2109Q9.76562-63.6719 9.76562-58.7891L9.76562-11.5723Q9.76562-6.64062 12.3047-4.10156Q14.8438-1.5625 19.7754-1.5625ZM19.873-3.75977Q15.9668-3.75977 13.9648-5.76172Q11.9629-7.76367 11.9629-11.6699L11.9629-58.6426Q11.9629-62.5488 13.9648-64.5508Q15.9668-66.5527 19.873-66.5527L66.8457-66.5527Q70.6543-66.5527 72.7051-64.5508Q74.7559-62.5488 74.7559-58.6426L74.7559-11.6699Q74.7559-7.76367 72.7051-5.76172Q70.6543-3.75977 66.8457-3.75977ZM43.5547-17.8223Q48.584-17.8223 51.8066-20.5811Q55.0293-23.3398 55.0293-27.5391Q55.0293-30.7129 52.7344-33.1055Q50.4395-35.498 47.0215-35.8398L47.0215-36.0352Q49.9512-36.5723 51.8799-38.8916Q53.8086-41.2109 53.8086-44.1895Q53.8086-47.9004 50.8789-50.293Q47.9492-52.6855 43.5547-52.6855Q39.7461-52.6855 36.8408-50.7568Q33.9355-48.8281 33.5449-45.8496Q33.4961-45.5566 33.4717-45.3125Q33.4473-45.0684 33.4473-44.7754Q33.4473-44.2871 33.7646-43.9697Q34.082-43.6523 34.5215-43.6523Q35.5957-43.6523 35.6934-44.6777Q36.0352-47.3145 38.208-48.9258Q40.3809-50.5371 43.5547-50.5371Q47.0703-50.5371 49.2432-48.7061Q51.416-46.875 51.416-43.8965Q51.416-40.9668 49.1943-38.916Q46.9727-36.8652 43.75-36.8652L40.4785-36.8652Q40.0391-36.8652 39.7217-36.5967Q39.4043-36.3281 39.4043-35.8398Q39.4043-35.3516 39.7217-35.0586Q40.0391-34.7656 40.4785-34.7656L44.043-34.7656Q47.7051-34.7656 50.1709-32.6904Q52.6367-30.6152 52.6367-27.5391Q52.6367-24.1699 50.1221-22.0703Q47.6074-19.9707 43.5547-19.9707Q40.332-19.9707 37.915-21.6064Q35.498-23.2422 34.9609-25.8301Q34.7168-26.8555 33.7891-26.8555Q33.3496-26.8555 33.0078-26.5381Q32.666-26.2207 32.666-25.6836Q32.666-25.2441 32.8125-24.6582Q33.6914-21.6309 36.6699-19.7266Q39.6484-17.8223 43.5547-17.8223Z"/>
  </g>
 </g>
</svg>
